<svg xmlns="http://www.w3.org/2000/svg" width="1056.988" height="1057.001" viewBox="0 0 990.92613 990.93867"><path d="M495.463 0C222.044 0 0 222.044 0 495.463 0 768.88 222.044 990.939 495.463 990.939S990.926 768.88 990.926 495.463C990.926 222.044 768.882 0 495.463 0zm0 36.702c30.235 0 59.771 2.949 88.361 8.53-189.277 50.525-333.417 163.555-451.378 291.674a566.063 566.063 0 0 1-51.473-38.424C154.61 143.636 312.417 36.717 495.463 36.717zm162.619 29.631a457.763 457.763 0 0 1 119.773 67.43c-163.514 44.043-323.537 147.268-461.214 287.472-51.653-16.658-102.539-36.185-152.353-64.723C291.883 219.195 447.363 103.546 658.082 66.334zm153.777 96.778a460.536 460.536 0 0 1 68.627 82.668c-159.14 46.662-286.51 126.11-389.97 228.69-45.172-15.2-90.002-27.65-134.318-40.938 138.014-136.568 297.277-233.88 455.66-270.42zm87.939 115.282c34.723 64.607 54.427 138.509 54.427 217.07 0 113.393-41.042 217.088-109.079 297.118 46.104-180.662 3.484-326.51-29.18-486.27 26.862-10.362 54.768-19.692 83.832-27.907zm-118.405 42.055c36.738 177.966 81.319 326.886 8.35 527.09-37.582 31.427-80.27 56.96-126.67 75.163 44.757-161.92 43.901-345.113-8.115-534.387 39.23-25.533 81.249-48.254 126.435-67.866zm-715.36 13.224c134.706 108.806 277.14 130.237 411.689 175.232 2.376 48.342 4.537 96.374 4.537 143.75C293.27 603.254 154.732 536.992 43.38 417.09a456.006 456.006 0 0 1 22.652-83.418zm556.823 76.591c49.667 188.701 46.511 369.475-2.261 526.73-39.773 11.162-81.752 17.173-125.143 17.173-8.496 0-16.934-.234-25.317 0 58.471-144.975 51.58-299.273 44.033-450.814 33.582-33.53 69.68-64.444 108.676-92.444zm-585.058 53.79c115.315 114.116 258.537 178.756 443.924 226.382-1.402 51.148-5.89 101.496-16.071 150.613-123.43-24.615-277.812-66.061-413.991-228.892C41.91 574.903 36.7 535.8 36.7 495.472c0-10.562.401-21.038 1.089-31.42zM84.893 700.48c127.062 118.014 264.555 154.536 372.265 176.29-6.669 24.616-14.947 49.088-25.188 73.074-152.478-21.18-280.876-116.896-347.077-249.363z"/></svg>