<svg xmlns="http://www.w3.org/2000/svg" width="1052.458" height="634.736" viewBox="0 0 986.67963 595.06542"><path d="M67.378 565.935C24.62 542.531-.354 438.363-.354 408.595c0-78.412 105.472-169.309 193.23-169.309 82.172 0 205.976-161.863 142.686-200.213C279.2 4.922 345.5.021 393.345.021c72.804 0 142.263-2.911 37.35 59.816-57.36 34.299-27.995 59.729 104.781 59.206 114.389-.438 147.272-36.192 94.606-39.267-89.222-5.212-42.23-46.35 9.499-39.267 47.011 6.436 66.32 26.458 59.816 85.194-7.146 64.546 19.3 93.768 106.736 117.942 182.093 50.341 234.48 177.575 120.183 291.872-84.377 84.38-163.502 78.873-245.67-17.088-37.56-43.865-99.73-79.755-138.155-79.755-38.43 0-97.708-53.835-131.736-119.633-81.645-157.887-114.556-151.546-83.12 16.02 40.332 214.987-109.086 313.608-260.257 230.874zm195.986-68.725c25.713-53.54 51.055-112.151.399-162.935C144.3 214.813-38.996 378.543 68.702 508.312c62.005 74.71 156.575 68.454 194.793-11.102zm-89.31-110.106c14.974-39.327 37.274-61.459 49.552-49.18 12.278 12.278.024 44.455-27.228 71.504-39.384 39.092-43.966 34.51-22.324-22.324zm742.556 89.828c41.935-47.23 22.654-89.856-31.348-143.862-58.002-58.002-113.296-76.676-166.608-20.345-72.597 76.704-47.598 124.693-49.963-43.196l-1.276-90.059-58.548 77.406c-32.201 42.573-58.548 90.81-58.548 107.187 0 40.994 173.718 26.894 203.81-16.545 13.395-19.34 35.264-6.743 48.595 27.994 17.35 45.221.558 63.162-59.15 63.162-70.632 0-62.904 6.875-19.652 58.99 62.388 75.174 121.646 59.27 192.68-20.732zM590.204 191.784c0-17.737-44.862-32.253-99.694-32.253-112.821 0-117.678 11.517-54.564 129.439l45.125 84.32 54.569-74.622c30.012-41.046 54.564-89.142 54.564-106.884z"/></svg>