<svg xmlns="http://www.w3.org/2000/svg" width="826.227" height="1044.318" viewBox="0 0 774.58797 979.04845"><path d="M56.22 905.253L-.355 812.802V0h774.942v816.929l-74.405 89.912-50.07 66.052-59.162.66-38.381-56.196-38.381-64.905h-273.77l-32.46 72.631c-29.494 65.99-87.891 84.52-151.74-19.815zm137.161-14.07c0-21.31-17.436-38.747-38.747-38.747-21.31 0-38.747 17.437-38.747 38.748 0 21.31 17.436 38.747 38.747 38.747s38.747-17.437 38.747-38.747zm464.966 0c0-21.31-17.437-38.747-38.748-38.747-21.31 0-38.747 17.437-38.747 38.748 0 21.31 17.437 38.747 38.747 38.747 21.311 0 38.748-17.437 38.748-38.747zm77.494-193.735V581.207H38.393v232.482H735.84zm-602.667 35.368l-26.033-42.122 43.12-43.121 43.12-43.118 43.12 43.118 43.121 43.121-26.034 42.122c-14.318 23.167-41.411 42.126-60.207 42.126-18.795 0-45.888-18.959-60.207-42.126zm98.954-35.368c0-21.31-17.436-38.747-38.747-38.747-21.31 0-38.747 17.436-38.747 38.747s17.436 38.747 38.747 38.747 38.747-17.436 38.747-38.747zm288.517 35.368l-26.033-42.122 43.12-43.121 43.12-43.118 43.12 43.118 43.121 43.121-26.033 42.122c-14.319 23.167-41.412 42.126-60.208 42.126-18.795 0-45.888-18.959-60.207-42.126zm98.954-35.368c0-21.31-17.436-38.747-38.747-38.747-21.31 0-38.747 17.436-38.747 38.747s17.436 38.747 38.747 38.747S619.6 718.76 619.6 697.448zm116.242-329.35v-168.83H38.393v337.655H735.84zm0-271.23v-58.12H38.393v116.24H735.84zm-435.905-7.974c47.95-9.234 126.412-9.234 174.362 0l87.18 16.793H212.756z"/></svg>