<svg xmlns="http://www.w3.org/2000/svg" width="1046.276" height="868.492" viewBox="0 0 980.88401 814.2113"><path d="M354.233 749.038C291.015 710.333 229.427 630.234 217.37 571.06c-12.058-59.201-65.977-131.199-119.823-160.027-53.846-28.799-97.901-65.041-97.901-80.5 0-15.459 110.237-96.188 244.972-179.351L489.589 0l244.972 151.182c227.555 140.475 302.107 221.261 204.144 221.261-59.39 0-50.145 234.402 10.205 258.763 30.489 12.311 22.27 22.044-20.414 23.761-49.854 2.864-71.45-27.482-71.45-98.85 0-137.21-65.814-130.054-94.05 10.305-13.367 66.388-72.247 141.478-144.097 183.731-145.175 85.368-123.28 85.454-264.667 0zm304.355-87.286c124.322-100.768 69.963-158.195-65.653-69.335L489.59 660.12l-103.345-67.703c-56.84-37.244-116.552-54.45-132.693-38.246-39.791 39.935 145.49 185.735 236.038 185.735 39.937 0 115.986-35.155 168.999-78.154zm53.895-197.128c101.966-61.607 185.36-121.324 185.32-132.717-.123-34.181-351.406-245.251-408.214-245.251-56.965 0-408.093 211.098-408.213 245.423-.114 31.089 339.164 237.694 396.342 241.358 27.153 2.862 132.799-47.236 234.765-108.813z"/></svg>