<svg xmlns="http://www.w3.org/2000/svg" width="499.875" height="1066.4" viewBox="0 0 468.6328 999.74991"><path d="M124.969 749.813V499.875H0V328.043h123.885l2.252-84.94c2.53-95.444 7.468-125.415 26.563-161.241 22.538-42.285 58.602-65.996 115.926-76.217C287.88 2.21 329.406.223 383.693.136L468.633 0v171.146l-62.209 1.32c-55.83 1.183-63.337 2.157-73.223 9.495-16.611 12.33-20.314 28.617-20.559 90.432l-.22 55.65h156.016l-1.787 10.74c-.982 5.906-4.48 37.978-7.772 71.27-3.292 33.293-6.992 67.123-8.222 75.177l-2.237 14.645H312.422V999.75H124.969V749.813z"/></svg>