<svg xmlns="http://www.w3.org/2000/svg" width="1020.976" height="1054.15" viewBox="0 0 957.16541 988.26561"><path d="M200.797 984.585c-94.239-15.576-159.556-55.04-188.54-113.915-11.86-24.088-12.64-28.203-12.61-66.385.03-37.812.923-42.6 12.58-67.369 9.107-19.352 20.238-34.212 40.591-54.188 53.812-52.815 123.429-78.337 247.785-90.836 18.72-1.882 34.952-4.338 36.073-5.458 1.12-1.12-3.332-9.448-9.893-18.506-21.848-30.16-28.692-69.042-17.657-100.318 3.192-9.046 5.8-16.664 5.795-16.929 0-.264-19.591-.53-43.525-.589-46.12-.114-66.812-4.852-105.21-24.09-23.31-11.678-61.383-47.268-74.498-69.642C24.385 241.55 73.673 102.762 204.666 38.233 274.935 3.617 312.766-1.334 494.833.258c78.253.685 131.328 2.61 131.014 4.751-.29 1.98-16.656 13.732-36.368 26.115l-35.84 22.515h-73.331l26.999 28.423c42.13 44.352 58.972 86.058 59.054 146.237.09 65.588-23.018 110.712-82.95 161.974-55.927 47.838-68.058 71.892-53.196 105.489 6.084 13.755 17.18 24.951 53.713 54.201 84.902 67.975 116.282 109.892 125.166 167.19 11.116 71.703-20.279 145.224-83.494 195.526-40.793 32.46-94.216 55.582-160.375 69.413-33.205 6.942-128.746 8.39-164.428 2.493zm193.469-54.525c83.869-16.047 129.786-63.75 130.034-135.088.175-50.474-28.731-89.723-108.093-146.765l-31.333-22.52-35.944.194c-95.366.517-179.788 30.796-214.749 77.022-26.987 35.683-31.643 91.854-11.094 133.854 11.28 23.055 38.59 50.124 66.067 65.48 51.812 28.959 138.041 40.656 205.112 27.823zm-36.002-517.09c67.789-14.37 99.351-61.653 94.856-142.105-5.724-102.447-58.114-193.22-124.593-215.87-40.416-13.772-92.378-.461-120.737 30.929-22.455 24.855-29.593 45.456-31.42 90.694-4.572 113.12 57.19 221.971 134.544 237.125 20.55 4.026 25.05 3.953 47.35-.774zm408.453 179.573l-1.062-64.965-64.804-1.06-64.804-1.061v-61.528l64.804-1.061 64.804-1.061 1.062-64.965 1.061-64.965 29.89 1.128 29.89 1.129 1.06 64.803 1.06 64.805h127.487v61.902H829.68l-1.06 64.804-1.062 64.804-29.89 1.128-29.889 1.128-1.061-64.965z"/></svg>