<svg xmlns="http://www.w3.org/2000/svg" width="955.417" height="1052.259" viewBox="0 0 895.7038 986.49255"><path d="M167.25 958.929C92.959 941.334 19.298 912.878 3.56 895.69c-15.739-17.185 17.422-19.07 73.69-4.189 285.084 75.399 455.736 76.783 614.949 4.987 89.419-40.322 162.58-88.931 162.58-108.02 0-58.064-180.594-38.775-278.406 29.735-72.74 50.949-115.348 55.194-203.488 20.273l-111.483-44.17 113.514 15.162c161.344 21.55 177.282-40.782 29.913-116.99-80.877-41.822-179.205-56.781-277.565-42.225-113.7 16.826-131.568 12.783-70.474-15.945 127.642-60.02 235.744-50.839 402.524 34.19 113.127 57.676 184.988 69.494 271.569 44.663 130.914-37.545 164.819-20.287 164.819 83.899 0 147.523-407.077 237.98-728.452 161.868zm227.665-432.917c-61.612-33.431-145.55-114.83-176.584-185.632-58.448-133.34-35.97-170.15-12.251-248.988 55.877-85.28 158.382-124.52 281.295-57.462 65.082 35.506 36.919 37.827 97.362 4.972 148.036-80.47 310.967 40.396 310.967 180.055 0 123.209-56.525 201.515-203.488 303.743-178.497 124.164-161.994 124.509-297.299 3.31zm300.353-70.57c113.273-76.334 156.924-125.004 145.821-239.818-11.285-116.696-50.445-105.581-112.384-141.429-45.352-26.247-106.407-3.01-134.964 20.69-36.378 30.191-64.917 30.095-95.334-.327-23.878-23.877-86.971-37.25-140.21-29.718-74.736 10.574-99.624 42.757-109.21 141.218-9.826 100.936 17.433 146.392 115.677 235.304C529.172 590.246 506.11 606.12 695.268 455.44z"/></svg>