<svg xmlns="http://www.w3.org/2000/svg" width="1051.351" height="1052.618" viewBox="0 0 985.64152 986.82972"><path d="M425.1 982.086c-104.868-14.682-195.595-58.496-271.864-131.291C64.62 766.216 14.538 663.259 1.776 539.427-12.668 399.272 36.374 257.86 135.41 154.097 309.425-28.225 586.595-51.566 788.698 99.083c72.338 53.922 133.931 135.554 165.441 219.27 43.652 115.972 41.863 248.47-4.899 362.829C898.817 804.493 792.278 908.167 667.852 955c-77.59 29.205-161.076 38.52-242.752 27.086zm109.232-87.234c95.271-10.443 176.807-49.297 243.584-116.074 124.106-124.106 153.953-312.884 74.25-469.63C778.031 163.351 614.694 74.478 453.094 92.01c-97.253 10.55-178.301 48.912-245.668 116.279C94.95 320.765 59.541 483.603 114.546 635.443c50.099 138.3 183.704 242.705 331.79 259.277 41.729 4.669 46.54 4.676 87.996.132zm-52.246-118.408c-4.76-.863-13.759-6.674-19.997-12.911-15.555-15.555-16.545-27.592-15.068-183.123 1.346-141.84 1.267-141.302 22.761-154 20.922-12.358 51.077-4.483 62.164 16.234 7.744 14.47 7.44 296.384-.336 310.912-9.062 16.933-29.722 26.481-49.524 22.888zm-19.374-456.646c-20.541-12.524-28.625-29.097-26.946-55.24 1.255-19.534 3.175-24.135 15.02-35.979 24.52-24.521 59.25-24.521 83.771 0 11.845 11.844 13.765 16.445 15.02 35.98 1.131 17.613-.249 25.086-6.461 34.982-11.099 17.679-29.613 27.93-50.445 27.93-10.542 0-22.324-3.018-29.96-7.673z"/></svg>