<svg xmlns="http://www.w3.org/2000/svg" width="898.923" height="1055.362" viewBox="0 0 842.74019 989.40187"><path d="M475.611 952.971c-34.145-19.548-123.325-58.254-198.176-86.02C93.607 798.766 46.553 698.474 21.19 320.79L-.354 0l116.538.03c150.252.038 274.57 63.591 388.332 198.522l90.988 107.92 79.798-72.218 79.8-72.216 26.781 69.792c14.73 38.388 17.032 79.543 5.115 91.463-11.917 11.92-21.668-1.06-21.668-28.677 0-35.153-21.145-38.506-70.092-11.125-52.343 29.294-70.685 97.931-72.43 271.035-2.596 257.83 27.053 287.292 118.85 118.084 33.96-62.601 62.492-93.05 63.403-67.665 2.702 75.283-164.669 264.259-234.05 264.259-52.326 0-54.652 11.443-12.621 62.081 56.071 67.563 15.805 78.108-82.777 21.668zM365.775 672.617c-14.013-108.127-53.792-229.188-88.4-269.025-37.863-43.581-44.465-72.428-16.576-72.428 65.977 0 132.035 139.628 132.035 279.086 0 65.437 25.485 153.827 56.634 196.427l56.635 77.452 51.536-96.297c30.675-57.316 42.908-172.846 30.22-285.407-16.855-149.527-52.364-217.565-169.645-325.046-85.43-78.293-192.463-135.932-252.408-135.932H61.728v267.075c0 302.377 52.06 450.033 180.622 512.28 141.878 68.7 150.23 58.674 123.424-148.185zm447.477-217.29c0-56.908 9.396-80.189 20.876-51.735 11.483 28.454 11.483 75.016 0 103.471-11.483 28.454-20.876 5.165-20.876-51.735z"/></svg>