<svg xmlns="http://www.w3.org/2000/svg" width="1062.55" height="638.402" viewBox="0 0 996.14028 598.50233"><path d="M.096 598.498l-.514-99.834h99.665v49.782c0 27.38-.513 50.056-.513 50.056zm198.714-50.052v-49.782h401.196l396.134.67-.402 47.885.223 50.413-426.747.67h-370.43zM-.32 348.486l.055-98.251 98.963-.203-.827 98.735zm199.13-48.951v-49.783h373.367l423.214.67c.216 19.849-.035 48.107-.035 48.107l-.446 50.191-422.728.67H198.815zM-.71.45L98.683 0s.558 23.18.558 50.561v49.782H-.366zm199.52 50.173V.84h370.429l426.14.45.336 48.215-.11 50.454-395.602.45H198.807z"/></svg>