<svg xmlns="http://www.w3.org/2000/svg" width="852.411" height="1046.518" viewBox="0 0 799.13577 981.11077"><path d="M28.617 929.138C2.385 897.53-7.662 853.2 6.29 830.628c13.952-22.574 32.89-80.105 42.083-127.841 9.193-47.74 96.98-168.287 195.083-267.887s178.369-208.81 178.369-242.682C421.825 116.151 545.2 0 626.003 0c189.664 0 242.508 321.274 62.114 377.63C639.33 392.87 501.74 488.72 382.36 590.636 262.981 692.55 134.23 787.26 96.245 801.104c-77.751 28.335-90.335 88.77-26.677 128.113 23.312 14.408 82.173-11.184 130.802-56.868 99.19-93.183 163.791-104.975 205.49-37.503 18.212 29.468 10.738 34.795-21.154 15.087-28.808-17.806-96.317 4.274-162.356 53.1-134.382 99.35-133.09 99.177-193.733 26.105zM321.861 593.3c133.515-136.731 143.902-159.952 82.153-183.65-52.011-19.958-104.893 13.575-200.152 126.924C85.612 677.281 63.852 749.82 139.895 749.82c16.02 0 97.904-70.432 181.966-156.519zm218.356-194.436c0-19.381-28.09-46.02-62.424-59.196-96.54-37.045-109.296-29.014-55.968 35.241 54.446 65.605 118.392 78.546 118.392 23.955zM735.965 297.88C840.8 171.559 686.823-22.483 550.083 63.628c-136.638 86.052-87.959 291.55 69.063 291.55 38.095 0 90.664-25.782 116.819-57.298z"/></svg>