<svg xmlns="http://www.w3.org/2000/svg" width="1035.682" height="956.541" viewBox="0 0 970.95155 896.75739"><path d="M361.638 772.733c-12.716-93.776-45.744-139.483-135.371-187.347C-37.71 444.414-56.657 381.477 95.102 149.695L193.11 0h189.14c207.765 0 274.274 47.267 334.77 237.912 53.118 167.394 21.018 233.36-153.472 315.376-140.395 65.992-161.31 91.389-172.433 209.302L378.46 896.757l-16.82-124.024zm200.704-263.919c144.113-85.02 158.677-150.19 77.165-345.278L586.47 36.604H402.878c-152.429 0-191.007 13.84-227.265 81.6-24.019 44.88-65.776 103.71-92.794 130.724-93.027 93.03-54.11 184.701 115.589 272.288 151.902 78.395 213.633 76.29 363.934-12.325zm-275.794-19.001l-51.538-62.475 76.749 40.88c57.502 30.634 88.481 29.837 123.534-3.082 36.88-34.69 43.237-32.405 30.026 10.785-24.174 79.19-118.82 86.535-178.77 13.866zm281.548-75.134c22.145-16.691 50.68-54.951 63.41-85.149 16.261-38.593 20.614-34.049 14.638 15.15-4.678 38.595-33.212 76.932-63.409 85.149-35.313 9.757-40.537 4.108-14.639-15.15zM216.71 173.97c0-32.857 17.566-70.6 39.038-83.867 62.773-38.797 68.933-4.057 12.872 72.612-43.414 59.378-51.911 61.227-51.911 11.247zm283.86 613.09l17.492-91.517h211.08c186.876 0 213.501 9.244 232.198 80.758 11.614 44.423 12.883 89 2.817 99.065-10.066 10.015-27.805-17.974-39.42-62.448-17.81-68.125-46.793-80.757-184.988-80.757-133.086 0-167.466 13.609-183.013 73.207-27.742 106.076-76.883 90.053-56.167-18.231zm108.331 43.909c-19.99-52.1-.256-62.217 121.392-62.217 137.982 0 188.24 42.317 108.66 91.516-20.132 12.325-36.603 5.135-36.603-16.178 0-53.564-136.892-49.019-154.944 5.136-9.154 27.476-23.575 20.543-38.505-18.231z"/></svg>