<svg xmlns="http://www.w3.org/2000/svg" width="547.733" height="1053.333" viewBox="0 0 513.5 987.49993"><path d="M138.297 777.491l27.84-210.01L83.07 545.76C37.38 533.81 0 509.415 0 491.546 0 463.704 244.566 159.893 363.893 39.5L403.043 0l-27.84 210.009-27.84 210.009 83.068 21.723c45.688 11.947 83.069 36.344 83.069 54.214 0 27.84-244.566 331.652-363.893 452.045l-39.15 39.5 27.84-210.009zM390.836 475.99l-83.123-37.51 20.654-159.99 20.654-159.99-154.74 177.75L39.542 474l83.123 37.51 83.123 37.51-20.654 159.99L164.479 869l154.74-177.75 154.74-177.75-83.123-37.51z"/></svg>