<svg xmlns="http://www.w3.org/2000/svg" width="1059.744" height="1060.233" viewBox="0 0 993.5104 993.96801"><path d="M514.874 811.592L686.04 629.245l-44.005-70.478-44.006-70.448L795.77 301.493l197.74-186.796-171.165 182.346L651.179 479.39l44.005 70.478 44.006 70.477-197.74 186.797-197.741 186.826 171.165-182.376zM170.811 696.916l171.166-182.347-44.005-70.477-44.005-70.479 197.74-186.796L649.447 0 478.283 182.367 307.116 364.714l44.005 70.478 44.006 70.448-197.741 186.826L-.354 879.263 170.81 696.916zm249.309-27.773c38.056-42.078 77.795-76.48 88.308-76.48 10.512 0-12.023 34.402-50.08 76.48-38.056 42.047-77.795 76.45-88.308 76.45-10.512 0 12.023-34.403 50.08-76.45zm114.687-344.088c38.057-42.048 77.796-76.45 88.309-76.45 10.512 0-12.023 34.402-50.08 76.45-38.056 42.078-77.795 76.48-88.308 76.48-10.512 0 12.023-34.402 50.08-76.48zM764.183 95.704c38.056-42.078 77.795-76.469 88.308-76.469 10.512 0-12.023 34.391-50.08 76.469-38.056 42.048-77.795 76.45-88.308 76.45-10.512 0 12.023-34.402 50.08-76.45z"/></svg>