<svg xmlns="http://www.w3.org/2000/svg" width="275.06mm" height="1038.895" viewBox="0 0 974.62199 973.96392"><path d="M866.304 968.776c-11.455-4.08-43.372-33.672-134.411-124.621-72.761-72.69-121.956-124.813-125.96-133.461-3.616-7.805-7.651-14.235-8.969-14.29-1.318-.053-12.37 5.909-24.561 13.25-25.992 15.651-71.215 33.668-107.406 42.79-39.148 9.867-137.701 8.784-176.85-1.943-215.32-59-335.872-273.852-270.927-482.86C83.052 55.78 317.153-55.37 522.84 27.574 637.134 73.663 717.016 164.93 750.72 287.93c10.726 39.148 11.808 137.701 1.941 176.849-9.122 36.191-27.138 81.414-42.79 107.406-7.34 12.19-13.303 23.243-13.249 24.561.054 1.318 6.484 5.344 14.29 8.947 8.726 4.028 60.639 53.174 134.833 127.646C972.46 860.53 974.668 863.323 974.621 896.35c-.023 17.242-16.545 49.217-30.966 59.933-24.529 18.226-49.801 22.307-77.35 12.493zm-397.923-318.13c46.23-15.46 82.486-38.312 115.97-73.092 33.486-34.782 51.165-63.845 66.96-110.075 11.19-32.755 12.317-40.276 12.534-83.622.194-38.816-1.378-53.23-8.5-77.896C609.279 146.377 446.07 59.454 290.097 111.433c-64.178 21.388-124.212 70.418-156.357 127.699-43.779 78.01-48.863 177.718-13.085 256.625 32.044 70.672 93.045 127.322 165.08 153.307 56.669 20.441 124.5 21.03 182.647 1.583z"/></svg>