<svg xmlns="http://www.w3.org/2000/svg" width="900.611" height="1045.998" viewBox="0 0 844.32325 980.62319"><path d="M262.927 870.957c-83.18-83.18-160.085-218.743-199.624-351.885-99.726-335.816-89.316-389.633 81.568-421.691 80.235-15.052 178.42-47.687 218.186-72.522 52.66-32.886 86.865-33.117 125.904-.85 29.48 24.368 121.547 57.003 204.593 72.522 175.208 32.742 186.844 85.235 90.68 409.057-64.873 218.45-180.039 390.448-306.893 458.338-65.753 35.19-101.947 19.497-214.414-92.97zm271.18-21.063C636.01 737.291 762.164 429.702 763.132 291.482c.773-110.35-15.632-129.707-129.976-153.36-164.83-34.098-257.95-34.098-422.78 0C96.033 161.774 79.628 181.131 80.4 291.481c1.546 220.989 223.094 629.6 341.366 629.6 26.353 0 76.906-32.035 112.34-71.188zM280.398 629.162c-85.07-139.524-106.355-252.508-39.824-211.39 22.146 13.687 40.265 43.668 40.265 66.624 0 22.957 37.472 94.364 83.271 158.683 45.8 64.319 63.652 116.944 39.673 116.944s-79.502-58.888-123.385-130.86z"/></svg>