<svg xmlns="http://www.w3.org/2000/svg" width="1036.289" height="758.388" viewBox="0 0 971.52076 710.98859"><path d="M-.35 669.232c0-22.966 108.12-182.938 240.265-355.494L480.18 0l44.491 49.907c143.662 161.152 446.85 579.832 446.85 617.066v44.016l-76.456-91.776-76.457-91.775-1.294 87.469-1.295 87.468H543.895l-.594-68.03c-.311-37.418-17.298-94.272-37.712-126.344l-37.116-58.312-25.46 126.343-25.46 126.343H155.148l-1.295-87.468-1.294-87.469-76.457 91.775L-.354 710.99v-41.757zm427.087-170.95l50.644-165.218 50.943 116.625c28.018 64.143 51.73 139.708 52.695 167.921l1.754 51.298 84.379-12.423 84.38-12.422 13.301-100.668 13.303-100.668L639.18 260.741 500.223 78.756l-35.972 22.232c-19.785 12.227-88.68 98.84-153.1 192.47l-117.127 170.24V663.5h182.068l50.645-165.218z"/></svg>