<svg xmlns="http://www.w3.org/2000/svg" width="707.439" height="1061.722" viewBox="0 0 663.22407 995.3639"><path d="M-.354 911.281c0-46.234 46.306-158.212 102.9-248.828l102.9-164.771-102.9-164.77C45.953 242.27-.353 130.291-.353 84.057V0h663.579v84.058c0 46.234-46.305 158.212-102.902 248.853l-102.9 164.771 102.899 164.77c56.597 90.617 102.901 202.595 102.901 248.83v84.082H-.354v-84.083zm580.63-41.477c0-23.416-46.305-116.735-102.9-207.351l-102.9-164.771 102.9-164.77c144.682-231.672 134-249.986-145.941-249.986-279.94 0-290.621 18.245-145.942 249.985l102.9 164.771-102.9 164.77c-144.679 231.67-133.998 249.96 145.942 249.96 136.864 0 248.84-19.167 248.84-42.608z"/></svg>