<svg xmlns="http://www.w3.org/2000/svg" width="1047.415" height="861.209" viewBox="0 0 981.95152 807.38325"><path d="M234.459 805.219c-69.401-9.576-131.329-28.582-190.767-58.548-58.703-29.596-58.764-28.978 2.916-29.363 59.24-.369 98.3-8.003 150.085-29.333 28.851-11.883 92.27-49.653 92.27-54.952 0-1.638-6.84-2.978-15.2-2.978-38.522 0-99.084-31.186-130.662-67.285-14.098-16.116-41.01-62.04-41.01-69.98 0-1.096 11.209-1.094 24.91 0 27.98 2.246 61.97-1.648 58.824-6.74-1.137-1.838-7.74-4.57-14.675-6.069-39.322-8.499-94.24-54.667-116.76-98.154-7.476-14.435-14.887-31.502-16.47-37.925-4.837-19.637-8.534-56.452-5.668-56.452 1.487 0 9.375 2.788 17.529 6.195 14.335 5.99 64.562 17.89 66.658 15.793.568-.568-10.854-13.193-25.38-28.056C48.082 237.4 29.416 187.985 33.055 127.82c1.713-28.314 15.443-80.074 23.334-87.965.987-.987 15.616 12.469 32.508 29.901 98.978 102.148 229.333 166.404 359.62 177.27l29.87 2.491-1.72-32.78c-2.148-40.91 3.664-69.61 21.19-104.644C536.532 34.789 626.636-11.653 710.402 2.542c33.818 5.731 77.894 25.733 99.278 45.051 8.548 7.723 19.181 14.042 23.63 14.042 12.77 0 70.484-19.251 95.505-31.858 12.53-6.312 23.608-10.65 24.619-9.638 1.01 1.01-2.936 12.075-8.772 24.587-7.294 15.638-20.195 32.157-41.271 52.845-29.293 28.753-30.092 29.994-17.902 27.809 24.745-4.436 58.487-13.623 77.367-21.065 10.503-4.14 19.097-6.24 19.097-4.664-.001 6.427-55.446 67.378-75.635 83.146-21.336 16.664-21.695 17.276-21.695 37.022 0 29.892-7.4 96.99-14.112 127.966-24.518 113.139-79.452 213.026-162.754 295.937-89.432 89.012-188.232 139.276-309.517 157.464-39.784 5.966-133.102 8.262-163.78 4.03z"/></svg>