<svg xmlns="http://www.w3.org/2000/svg" width="1044.686" height="970.857" viewBox="0 0 979.39286 910.17823"><path d="M370.51 908.821l-83.156-20.32 6.75-36.93c11.992-65.599 155.131 103.4 155.131-163.612V429.245L224.44 441.737-.354 454.229 25.44 347.966c14.188-58.444 79.438-160.646 145.002-227.114C271.077 18.828 320.787 0 489.519 0c168.733 0 218.442 18.828 319.077 120.852 65.563 66.468 130.814 168.67 145.001 227.114l25.796 106.263-224.795-12.492-224.795-12.492v200.937c0 315.894-159.292 278.64-159.292 278.64zm-75.33-687.669c37.128-88.399 58.596-160.726 47.707-160.726-66.788 0-183.63 100.024-236.682 202.614L44.327 382.698l91.673-.411c68.609-.322 108.658-40.848 159.179-161.136zm154.056-8.553v-170.1l-55 79.46c-30.25 43.704-67.726 120.248-83.282 170.1-23.056 73.888-12.891 90.639 55 90.639h83.282zm218.85 79.46c-15.555-49.852-53.032-126.396-83.282-170.1l-55-79.46v340.199h83.283c67.891 0 78.056-16.751 55-90.64zm204.75-29.019C819.782 160.45 702.94 60.426 636.152 60.426c-10.89 0 10.579 72.327 47.707 160.726 50.52 120.288 90.57 160.83 159.178 161.136l91.674.411-61.878-119.658z"/></svg>