<svg xmlns="http://www.w3.org/2000/svg" width="1042.354" height="593.284" viewBox="0 0 977.20664 556.20378"><path d="M774.693 554.18c-32.112-10.487-54.395-27.818-93.544-72.753-47.507-54.532-67.095-64.286-87.061-43.356-13.956 14.628-18.587 28.384-22.201 65.936-2.72 28.26-4.429 33.606-13.137 41.096-9.408 8.093-13.411 8.611-66.53 8.611-95.455 0-145.644-18.905-231.016-87.018C197.834 416.137 88.616 250.96 23.516 107.23-14.242 23.863-17.265 27.263 96.15 25.532c68.87-1.05 85.627-.274 92.513 4.29 4.895 3.245 26.796 42.385 52.404 93.657 57.02 114.163 88.962 154.826 116.05 147.734 8.358-2.188 11.945-6.922 17.846-23.549 6.143-17.31 7.427-31.739 7.633-85.8.27-70.788-2.928-87.772-19.973-106.038-5.37-5.756-15.504-11.542-22.518-12.857-16.517-3.099-18.031-6.183-8.8-17.918C343.69 9.304 369.214 3.02 430.654.593c58.235-2.3 102.96 2.16 122.382 12.203 18.322 9.475 20.485 23.919 18.01 120.293-2.806 109.3 2.301 137.73 24.741 137.73 25.99 0 88.382-87.549 132.137-185.413 11.281-25.23 23.42-48.843 26.974-52.47 5.773-5.893 17.008-6.63 105.22-6.915 83.98-.27 100.138.587 107.986 5.729 23.93 15.679 1.371 62.625-87.012 181.086-55.99 75.044-66.708 93.833-62.68 109.884 1.688 6.723 25.495 33.966 63.142 72.251 91.897 93.459 114.32 135.615 81.17 152.608-11.969 6.136-172.226 11.761-188.032 6.6z"/></svg>