<svg xmlns="http://www.w3.org/2000/svg" width="1060.72" height="782.762" viewBox="0 0 994.42542 733.83918"><path d="M394.487 630.967l-96.64-102.872 112.741-28.296c62.005-15.563 150.425-11.48 196.484 9.073l83.751 37.37-99.847 93.798-99.843 93.8-96.645-102.873zm207.314-70.356c0-20.227-47.146-36.776-104.768-36.776-113.927 0-132.618 39.198-55.476 116.342 51.39 51.389 160.244-2.66 160.244-79.566zM184.899 421.678c-40.746-49.095-26.56-72.373 76.601-125.72 161.308-83.416 310.467-83.05 473.313 1.16l128.85 66.63-67.771 67.771c-52.932 52.933-78.848 56.695-118.357 17.183-61.088-61.088-311.871-67.341-348.129-8.68-36.186 58.553-85.93 52.239-144.507-18.344zm312.135-65.47c60.651 0 146.753 19.521 191.338 43.381 53.054 28.395 81.056 28.904 81.056 1.476 0-60.532-144.248-128.67-272.394-128.67-128.147 0-272.395 68.138-272.395 128.67 0 27.43 28.002 26.92 81.06-1.476 44.581-23.86 130.683-43.381 191.334-43.381zM18.637 255.694c-39.204-47.235-21.532-78.46 89.022-157.313C215.587 21.4 300.294 0 497.034 0 693.778 0 778.48 21.401 886.41 98.38c110.554 78.854 128.226 110.079 89.022 157.314-41.546 50.06-69.368 46.29-184.788-25.043-74.732-46.188-206.856-83.977-293.611-83.977-86.752 0-218.88 37.79-293.612 83.977-115.42 71.333-143.238 75.104-184.784 25.043zm478.396-150.613c92.714 0 227.813 36.697 302.303 82.116 74.074 45.163 145.458 64.674 158.634 43.357 36.924-59.748-292.619-209.6-460.938-209.6-168.314 0-497.857 149.852-460.933 209.6 13.176 21.317 84.56 1.806 158.63-43.357 74.49-45.419 209.589-82.116 302.303-82.116z"/></svg>