<?xml version="1.0" standalone="no"?>
<!DOCTYPE svg PUBLIC "-//W3C//DTD SVG 20010904//EN"
 "http://www.w3.org/TR/2001/REC-SVG-20010904/DTD/svg10.dtd">
<svg version="1.0" xmlns="http://www.w3.org/2000/svg"
 width="16.000000pt" height="16.000000pt" viewBox="0 0 16.000000 16.000000"
 preserveAspectRatio="xMidYMid meet">
<metadata>
Created by potrace 1.11, written by Peter Selinger 2001-2013
</metadata>
<g transform="translate(0.000000,16.000000) scale(0.003125,-0.003125)"
fill="#000000" stroke="none">
<path d="M3220 4705 c-7 -8 -16 -15 -21 -15 -5 0 -52 -26 -106 -58 -54 -33
-129 -76 -166 -98 -68 -38 -125 -72 -179 -103 -91 -54 -286 -168 -303 -177
-11 -6 -121 -70 -244 -143 -123 -72 -224 -131 -225 -131 -1 0 -61 -35 -134
-78 l-131 -78 195 -115 c107 -63 211 -123 232 -135 20 -11 124 -71 229 -133
l193 -113 342 200 343 200 0 492 c1 270 -2 493 -6 496 -4 2 -12 -3 -19 -11z"/>
<path d="M340 3422 l0 -399 603 -352 c704 -411 620 -362 781 -456 70 -41 130
-75 132 -75 3 0 17 -8 32 -19 23 -16 132 -80 402 -236 30 -18 104 -60 163 -94
l108 -63 372 217 c205 120 386 225 402 235 17 10 136 79 265 155 129 75 251
146 270 157 19 11 64 37 100 58 36 20 74 42 85 48 20 10 20 8 20 -450 l0 -461
-35 -22 c-19 -12 -55 -33 -80 -47 -25 -14 -160 -93 -300 -175 -140 -82 -278
-163 -306 -179 -59 -33 -481 -281 -504 -295 -8 -5 -77 -45 -152 -89 l-138 -79
-1097 641 c-604 352 -1104 643 -1110 645 -10 4 -13 -79 -13 -393 l0 -399 343
-199 c188 -110 375 -219 416 -244 41 -24 88 -52 105 -62 51 -29 519 -302 551
-321 17 -11 41 -24 55 -31 14 -7 36 -20 50 -29 14 -9 70 -43 125 -74 55 -32
114 -66 130 -75 17 -10 82 -48 145 -85 63 -38 157 -92 208 -122 l93 -54 32 20
c18 11 44 26 57 33 23 12 115 66 383 224 59 35 112 64 117 64 6 0 10 5 10 10
0 6 4 10 9 10 4 0 46 22 92 50 46 27 104 61 129 75 47 26 66 37 168 98 35 20
65 37 67 37 3 0 28 15 57 33 29 19 73 45 98 59 25 14 107 62 184 107 76 44
142 81 146 81 5 0 10 3 12 7 2 5 17 16 33 25 17 9 164 95 327 190 l298 173 0
1263 c0 694 -2 1262 -4 1262 -3 0 -745 -430 -826 -479 -8 -5 -325 -190 -703
-411 l-688 -402 -97 58 c-53 31 -110 65 -127 75 -16 10 -41 24 -55 32 -14 7
-416 242 -895 522 -1098 641 -1036 605 -1041 605 -2 0 -4 -179 -4 -398z"/>
</g>
</svg>
