<?xml version="1.0" standalone="no"?>
<!DOCTYPE svg PUBLIC "-//W3C//DTD SVG 1.1//EN" "http://www.w3.org/Graphics/SVG/1.1/DTD/svg11.dtd" >
<svg xmlns="http://www.w3.org/2000/svg" xmlns:xlink="http://www.w3.org/1999/xlink" version="1.1">
<metadata>
Created by FontForge 20161003 at Thu Dec  8 18:58:28 2016
 By www-data
Pablo Impallari. www.impallari.com. All rights reserved.
</metadata>
<defs>
<font id="LobsterCyrillicRegular" horiz-adv-x="505" vert-adv-y="1000" >
  <font-face 
    font-family="LobsterCyrillicRegular"
    font-weight="400"
    font-stretch="normal"
    units-per-em="1000"
    panose-1="0 0 5 0 0 0 0 0 0 0"
    ascent="800"
    descent="-200"
    x-height="500"
    cap-height="749"
    bbox="-209 -250 1549 1000"
    underline-thickness="50"
    underline-position="-150"
    unicode-range="U+0020-FB04"
  />
<missing-glyph horiz-adv-x="385" vert-adv-y="950" 
 />
    <glyph glyph-name="IJ" unicode="IJ" horiz-adv-x="663" vert-adv-y="950" 
d="M673 750l-150 -710q-24 -116 -82.5 -181.5t-167.5 -65.5q-81 0 -121 37.5t-40 99.5q0 41 16 70h-34l145 679q-67 -27 -103.5 -82.5t-36.5 -135.5q0 -37 7 -51.5t7 -16.5q-54 0 -80.5 22.5t-26.5 74.5q0 64 52.5 124.5t134.5 98t164 37.5q14 0 40 -2l-147 -690
q31 -5 49 -22t18 -42q0 -15 -7 -33q-23 23 -49 23q-27 0 -46 -21.5t-19 -51.5t19.5 -49t51.5 -19t54.5 26.5t37.5 96.5l164 751z" />
    <glyph glyph-name="ij" unicode="ij" horiz-adv-x="507" vert-adv-y="950" 
d="M223.5 577q-23.5 -23 -56.5 -23t-56 23t-23 56t23 56.5t56 23.5t56.5 -23.5t23.5 -56.5t-23.5 -56zM212 500l-72 -340q-4 -15 -4 -32q0 -20 9.5 -28.5t31.5 -8.5q18 0 32 6q-4 -50 -35.5 -76.5t-74.5 -26.5q-48 0 -77.5 30t-29.5 90q0 25 8 65l68 321h144zM482.5 578
q-23.5 -23 -56.5 -23t-56 23t-23 56t23 56.5t56 23.5t56.5 -23.5t23.5 -56.5t-23.5 -56zM288 -213.5q-49 -36.5 -111 -36.5q-48 0 -80 25t-32 72q0 97 164 149l107 504h144l-99 -464q48 16 77 48t49 95h42q-27 -89 -73 -130.5t-104 -56.5l-15 -72q-20 -97 -69 -133.5z
M120 -139q0 -13 9 -23t25 -10q17 0 33 23t25 66l6 29q-98 -36 -98 -85z" />
    <glyph glyph-name="ff" unicode="ff" horiz-adv-x="508" vert-adv-y="950" 
d="M335 -80q-20 -96 -70.5 -133t-111.5 -37q-82 0 -108 63q-48 -63 -136 -63q-47 0 -82.5 30.5t-35.5 77.5q0 43 22 71t57.5 44.5t93.5 34.5l120 571q20 96 70.5 133t111.5 37q34 0 63.5 -17t43.5 -46q49 63 137 63q47 0 82.5 -30.5t35.5 -77.5q0 -23 -3 -41h-47q2 22 2 27
q0 16 -11 25t-27 9q-49 0 -68 -79l-18 -82h100l-9 -40h-99zM334 605q2 16 2 22q0 16 -11 25t-27 9q-49 0 -68 -79l-18 -82h99l17 79zM204 460l-89 -423l103 18l85 405h-99zM110 12l-19 -92q-7 -31 -19 -61q11 -20 58 -20q18 0 34 18.5t25 59.5l24 114zM-119 -66.5
q-29 -23.5 -29 -61.5q0 -12 12 -22.5t28 -10.5q18 0 34 18.5t25 59.5l12 58q-53 -18 -82 -41.5z" />
    <glyph glyph-name="fi" unicode="fi" horiz-adv-x="534" vert-adv-y="950" 
d="M167 703.5q63 45.5 144 45.5q75 0 127 -25t52 -90q0 -42 -22.5 -61.5t-56.5 -19.5q-26 0 -43 12.5t-17 41.5q0 19 9.5 34t24.5 15q7 0 8 -1q-1 20 -15.5 30t-39.5 10q-44 0 -70.5 -32t-35.5 -81l-17 -82h80l-8 -40h-80l-114 -540q-20 -94 -69 -132t-107 -38
q-55 0 -89.5 30.5t-34.5 81.5q0 42 24 69t59 43t90 34l111 526q27 124 90 169.5zM481 32.5q-58 -38.5 -115 -38.5q-48 0 -77.5 30t-29.5 90q0 25 8 65l68 321h144l-72 -340q-4 -15 -4 -32q0 -20 9.5 -28.5t31.5 -8.5q29 0 54 24.5t36 63.5h42q-37 -108 -95 -146.5z
M-122 -65.5q-30 -24.5 -30 -55.5q0 -22 14 -31t27 -9q17 0 33.5 19t24.5 59l12 58q-51 -16 -81 -40.5z" />
    <glyph glyph-name="fl" unicode="fl" horiz-adv-x="548" vert-adv-y="950" 
d="M495 32.5q-58 -38.5 -115 -38.5q-48 0 -77.5 30t-29.5 90q0 25 8 65l104 491q-18 7 -43.5 11.5t-38.5 4.5q-21 0 -40 -17t-28 -62l-22 -107h93l-8 -40h-93l-114 -540q-20 -96 -70.5 -133t-111.5 -37q-47 0 -82.5 30.5t-35.5 77.5q0 43 22 71t57.5 44.5t93.5 34.5l120 571
q20 96 70.5 133t111.5 37t118.5 -17t146.5 -52l-110 -520q-4 -15 -4 -32q0 -20 9.5 -28.5t31.5 -8.5q29 0 54 24.5t36 63.5h42q-37 -108 -95 -146.5zM-125 -66.5q-29 -23.5 -29 -61.5q0 -12 12 -22.5t28 -10.5q18 0 34.5 18.5t24.5 59.5l12 58q-53 -18 -82 -41.5z" />
    <glyph glyph-name="ffi" unicode="ffi" horiz-adv-x="764" vert-adv-y="950" 
d="M806 179q-37 -108 -95 -146.5t-115 -38.5q-48 0 -77.5 30t-29.5 90q0 25 8 65l60 281h-121l-114 -540q-20 -94 -69 -132t-107 -38q-37 0 -65.5 14t-43.5 39q-48 -53 -128 -53q-47 0 -82.5 30.5t-35.5 77.5q0 43 22 71t57.5 44.5t93.5 34.5l120 571q20 96 70.5 133
t111.5 37q83 0 123 -52q57 52 151 52q75 0 127 -25t52 -90q0 -42 -22.5 -61.5t-56.5 -19.5q-26 0 -43 12.5t-17 41.5q0 19 9.5 34t24.5 15q7 0 8 -1q-1 20 -15.5 30t-39.5 10q-44 0 -70.5 -32t-35.5 -81l-17 -82h130h135l-72 -340q-4 -15 -4 -32q0 -20 9.5 -28.5t31.5 -8.5
q29 0 54 24.5t36 63.5h42zM356 659q-14 17 -40 17q-38 0 -58.5 -27t-27.5 -67l-16 -82h85l7 34q15 73 50 125zM290 460h-84l-90 -424l88 15zM199 26l-89 -18l-19 -88q-8 -38 -20 -63q3 -18 14 -25t23 -7q48 0 68 92zM-37 -25q-53 -18 -82 -41.5t-29 -61.5q0 -12 12 -22.5
t28 -10.5q18 0 34.5 18.5t24.5 59.5z" />
    <glyph glyph-name="ffl" unicode="ffl" horiz-adv-x="780" vert-adv-y="950" 
d="M727 32.5q-58 -38.5 -115 -38.5q-48 0 -77.5 30t-29.5 90q0 25 8 65l104 491q-18 7 -43.5 11.5t-38.5 4.5q-21 0 -40 -17t-28 -62l-22 -107h93l-8 -40h-93l-115 -540q-20 -94 -69 -132t-107 -38q-38 0 -66 14t-43 40q-49 -54 -128 -54q-47 0 -82.5 30.5t-35.5 77.5
q0 43 22 71t57.5 44.5t93.5 34.5l120 571q20 96 70.5 133t111.5 37q75 0 115 -42q46 42 117 42q61 0 118.5 -17t146.5 -52l-110 -520q-4 -15 -4 -32q0 -20 9.5 -28.5t31.5 -8.5q29 0 54 24.5t36 63.5h42q-37 -108 -95 -146.5zM348 666q-13 10 -32 10q-38 0 -58.5 -27
t-27.5 -67l-16 -82h85l17 79q9 46 32 87zM206 460l-90 -424l88 15l87 409h-85zM110 8l-19 -88q-9 -38 -20 -62q2 -18 14 -25.5t23 -7.5q48 0 68 92l23 109zM-119 -66.5q-29 -23.5 -29 -61.5q0 -12 12 -22.5t28 -10.5q18 0 34.5 18.5t24.5 59.5l12 58q-53 -18 -82 -41.5z" />
    <glyph glyph-name="E_x" unicode="Ex" horiz-adv-x="797" vert-adv-y="950" 
d="M745.5 32.5q-56.5 -38.5 -112.5 -38.5q-47 0 -72 30t-43 102q-53 -63 -144.5 -102.5t-176.5 -39.5q-84 0 -137 42.5t-53 131.5q0 54 22.5 108.5t64.5 95.5t98 55q-31 22 -46 53.5t-15 66.5q0 52 28.5 102t79 81.5t111.5 31.5q63 0 103 -33t40 -92q0 -44 -22 -74t-52 -30
q-27 0 -47 27q18 6 31 33t13 54q0 29 -16 42.5t-39 13.5q-29 0 -52.5 -20.5t-36.5 -53t-13 -67.5q0 -48 25 -84.5t76 -49.5q-51 -11 -92 -50t-64 -90.5t-23 -98.5q0 -52 27.5 -77t74.5 -25q55 0 117 31t105 80l-50 274h141l32 -178q45 48 70 90t25 69q0 9 -1 12
q-14 -2 -17 -2q-25 0 -36 15.5t-11 40.5q0 22 16 34.5t40 12.5q32 0 50 -25t18 -64q0 -48 -33.5 -103.5t-109.5 -134.5l9 -50q1 -5 6.5 -31.5t18.5 -41.5t34 -15q29 0 54 24.5t36 63.5h42q-37 -108 -93.5 -146.5z" />
    <glyph glyph-name="F_i" unicode="Fi" horiz-adv-x="726" vert-adv-y="950" 
d="M252 668h-11q-66 0 -102.5 -45.5t-36.5 -161.5q0 -37 7 -51.5t7 -16.5q-54 0 -80.5 22.5t-26.5 74.5q0 71 35 129.5t111.5 94.5t194.5 36q36 0 99 -9q6 -1 47.5 -6t84.5 -5q75 0 145 19q-12 -66 -41 -110.5t-83 -44.5q-36 0 -64 7.5t-67 22.5q-40 15 -79 26l-43 -200h126
l-16 -74h-126l-81 -376h-144zM673 32.5q-58 -38.5 -115 -38.5q-48 0 -77.5 30t-29.5 90q0 25 8 65l68 321h144l-72 -340q-4 -15 -4 -32q0 -20 9.5 -28.5t31.5 -8.5q29 0 54 24.5t36 63.5h42q-37 -108 -95 -146.5z" />
    <glyph glyph-name="T_h" unicode="Th" horiz-adv-x="971" vert-adv-y="950" 
d="M927.5 31.5q-48.5 -37.5 -100.5 -37.5q-61 0 -89.5 32.5t-28.5 80.5q0 21 5 47.5t10.5 51.5t7.5 32q8 35 15 69t7 55q0 51 -36 51q-25 0 -44.5 -24t-31.5 -62q-30 -157 -61 -327h-144l137 638q-35 3 -132 17l-141 -655h-144l143 664q-95 -4 -148 -49t-53 -155
q0 -37 7 -51.5t7 -16.5q-54 0 -80.5 22.5t-26.5 74.5q0 70 38 129t117 95t197 36q20 0 85 -9q119 -17 185 -17q86 0 121 24q-15 -28 -24.5 -53t-23.5 -81.5t-36 -166.5q51 58 119 58q51 0 81 -28t30 -85q0 -29 -7 -64.5t-20 -86.5q-8 -31 -14.5 -60.5t-6.5 -46.5
q0 -20 9 -31t31 -11q30 0 48 21.5t36 66.5h42q-37 -110 -85.5 -147.5z" />
    <glyph glyph-name="T_i" unicode="Ti" horiz-adv-x="744" vert-adv-y="950" 
d="M301 671q-21 3 -40 3q-76 0 -119 -49t-43 -165q0 -37 7 -51.5t7 -16.5q-54 0 -80.5 22.5t-26.5 74.5q0 71 35 129.5t111.5 94.5t194.5 36q21 0 78 -5q117 -11 179 -11q81 0 115 14q11 -34 11 -66q0 -54 -33 -77t-70 -23q-23 0 -49.5 7.5t-78.5 26.5l-61 22l-137 -637
h-144zM691 32.5q-58 -38.5 -115 -38.5q-48 0 -77.5 30t-29.5 90q0 25 8 65l68 321h144l-72 -340q-4 -15 -4 -32q0 -20 9.5 -28.5t31.5 -8.5q29 0 54 24.5t36 63.5h42q-37 -108 -95 -146.5z" />
    <glyph glyph-name="a_x" unicode="ax" horiz-adv-x="899" vert-adv-y="950" 
d="M847.5 32.5q-56.5 -38.5 -112.5 -38.5q-47 0 -72.5 31t-43.5 103q-106 -134 -235 -134q-43 0 -74.5 25t-39.5 69q-62 -94 -150 -94q-57 0 -95 39t-38 122q0 74 29.5 155.5t88 138t139.5 56.5q41 0 61 -14t20 -37v-7l11 53h144l-72 -340q-3 -13 -3 -25q0 -44 43 -44
q38 0 82.5 27t77.5 67l-58 315h141l39 -216q45 48 70 90t25 69q0 9 -1 12q-14 -2 -17 -2q-25 0 -36 15.5t-11 40.5q0 22 16 34.5t40 12.5q32 0 50 -25t18 -64q0 -48 -33.5 -103.5t-109.5 -134.5l9 -50q1 -5 6.5 -31.5t18.5 -41.5t34 -15q29 0 54 24.5t36 63.5h42
q-37 -108 -93.5 -146.5zM306 430.5q-10 12.5 -31 12.5q-40 0 -72 -46.5t-50 -112t-18 -115.5t14.5 -64t35.5 -14q25 0 49.5 23.5t33.5 64.5l48 226q0 13 -10 25.5z" />
    <glyph glyph-name="a_z" unicode="az" horiz-adv-x="906" vert-adv-y="950" 
d="M404 128q0 -20 9.5 -28.5t31.5 -8.5q14 0 22 4q-22 -56 -42 -78.5t-58 -22.5q-41 0 -66.5 24.5t-31.5 68.5q-61 -93 -149 -93q-57 0 -95 39t-38 122q0 74 29.5 155.5t88 138t139.5 56.5q41 0 61 -14t20 -37v-7l11 53h144l-72 -340q-4 -15 -4 -32zM306 430.5
q-10 12.5 -31 12.5q-40 0 -72 -46.5t-50 -112t-18 -115.5t14.5 -64t35.5 -14q25 0 49.5 23.5t33.5 64.5l48 226q0 13 -10 25.5zM733 446h-56q-28 0 -41.5 -3t-13.5 -13q0 -2 5.5 -4.5t5.5 -17.5q0 -26 -16 -39.5t-38 -13.5q-19 0 -32.5 11.5t-13.5 32.5t14.5 45t41 40
t60.5 16h257l-245 -423q6 0 22 -2q34 -4 54 -4q43 0 47 20q-9 1 -14 6.5t-5 14.5q0 16 15 29.5t41 13.5q22 0 33 -13t11 -35q0 -24 -15 -49t-43 -41.5t-64 -16.5h-265z" />
    <glyph glyph-name="b_s" unicode="bs" horiz-adv-x="799" vert-adv-y="950" 
d="M841 179q-55 -64 -139 -117q-25 -36 -63.5 -52t-83.5 -16q-80 0 -109.5 38t-29.5 95q0 42 22 68.5t50 26.5q52 0 52 -42q0 -18 -14 -31.5t-34 -13.5q-21 0 -27 13q0 -36 14.5 -55.5t43.5 -19.5q34 0 48.5 20.5t14.5 72.5q0 30 -6 76q-10 96 -16 196q-69 -104 -158 -135
q-5 -70 -34 -140.5t-88.5 -119.5t-150.5 -49q-68 0 -104 33.5t-36 94.5q0 30 7 57l107 501l148 20l-48 -225q28 17 46 22.5t36 5.5q110 0 118 -150q68 13 154 158l148 20q5 -128 17 -277q5 -60 5 -87q0 -20 -3 -37q30 17 71 49h42zM240.5 121.5q24.5 30.5 41.5 78.5t22 98
q-16 12 -16 40q0 25 13 41q-6 24 -18 38.5t-30 14.5q-15 0 -33.5 -4.5t-25.5 -13.5l-55 -254q-3 -12 -3 -23q0 -46 53 -46q27 0 51.5 30.5z" />
    <glyph glyph-name="b_s_x" unicode="bsx" horiz-adv-x="1144" vert-adv-y="950" 
d="M1186 179q-37 -108 -93.5 -146.5t-112.5 -38.5q-49 0 -74.5 33.5t-44.5 114.5q-24 -17 -53 -31.5t-69 -32.5q-8 -4 -18 -8t-21 -10q-25 -34 -63.5 -50t-81.5 -16q-80 0 -109.5 38t-29.5 95q0 42 22 68.5t50 26.5q52 0 52 -42q0 -18 -14 -31.5t-34 -13.5q-21 0 -27 13
q0 -36 14.5 -55.5t43.5 -19.5q34 0 48.5 20.5t14.5 72.5q0 30 -6 76q-10 96 -16 196q-69 -104 -158 -135q-5 -70 -34 -140.5t-88.5 -119.5t-150.5 -49q-68 0 -104 33.5t-36 94.5q0 30 7 57l107 501l148 20l-48 -225q28 17 46 22.5t36 5.5q110 0 118 -150q68 13 154 158
l148 20q5 -128 17 -277q5 -60 5 -87t-4 -44q74 31 124 72l-56 305h141l39 -216q45 48 70 90t25 69q0 9 -1 12q-14 -2 -17 -2q-25 0 -36 15.5t-11 40.5q0 22 16 34.5t40 12.5q32 0 50 -25t18 -64q0 -48 -33.5 -103.5t-109.5 -134.5l9 -50q1 -5 6.5 -31.5t18.5 -41.5t34 -15
q29 0 54 24.5t36 63.5h42zM240.5 121.5q24.5 30.5 41.5 78.5t22 98q-16 12 -16 40q0 25 13 41q-6 24 -18 38.5t-30 14.5q-15 0 -33.5 -4.5t-25.5 -13.5l-55 -254q-3 -12 -3 -23q0 -46 53 -46q27 0 51.5 30.5z" />
    <glyph glyph-name="b_s_z" unicode="bsz" horiz-adv-x="1158" vert-adv-y="950" 
d="M726 254q5 -60 5 -87q0 -90 -52 -131.5t-124 -41.5q-80 0 -109.5 38t-29.5 95q0 42 22 68.5t50 26.5q52 0 52 -42q0 -18 -14 -31.5t-34 -13.5q-21 0 -27 13q0 -36 14.5 -55.5t43.5 -19.5q34 0 48.5 20.5t14.5 72.5q0 30 -6 76q-10 96 -16 196q-69 -104 -158 -135
q-5 -70 -34 -140.5t-88.5 -119.5t-150.5 -49q-68 0 -104 33.5t-36 94.5q0 30 7 57l107 501l148 20l-48 -225q28 17 46 22.5t36 5.5q110 0 118 -150q68 13 154 158l148 20q5 -128 17 -277zM1106 142q11 -13 11 -35q0 -24 -15 -49t-43 -41.5t-64 -16.5h-265l255 446h-56
q-28 0 -41.5 -3t-13.5 -13q0 -2 5.5 -4.5t5.5 -17.5q0 -26 -16 -39.5t-38 -13.5q-19 0 -32.5 11.5t-13.5 32.5t14.5 45t41 40t60.5 16h257l-245 -423q6 0 22 -2q34 -4 54 -4q43 0 47 20q-9 1 -14 6.5t-5 14.5q0 16 15 29.5t41 13.5q22 0 33 -13zM240.5 121.5
q24.5 30.5 41.5 78.5t22 98q-16 12 -16 40q0 25 13 41q-6 24 -18 38.5t-30 14.5q-15 0 -33.5 -4.5t-25.5 -13.5l-55 -254q-3 -12 -3 -23q0 -46 53 -46q27 0 51.5 30.5z" />
    <glyph glyph-name="c_x" unicode="cx" horiz-adv-x="755" vert-adv-y="950" 
d="M704 32.5q-56 -38.5 -110 -38.5q-50 0 -77 32t-43 106q-63 -63 -149 -100.5t-167 -37.5q-80 0 -129 39.5t-49 124.5q0 65 27 147.5t87.5 143t154.5 60.5q61 0 86 -26t25 -67q0 -36 -15.5 -54t-37.5 -18q-19 0 -35 12q12 32 12 59q0 41 -27 41q-30 0 -60 -49.5t-49.5 -117
t-19.5 -114.5q0 -99 101 -99q57 0 121.5 30t112.5 84l-57 310h141l39 -216q45 48 70 90t25 69q0 9 -1 12q-14 -2 -18 -2q-24 0 -35 15t-11 37q0 25 15 38t39 13q34 0 52 -24.5t18 -62.5q0 -48 -33 -103t-110 -138l9 -49q1 -5 6.5 -31.5t18.5 -41.5t34 -15q29 0 54 24.5
t36 63.5h42q-37 -108 -93 -146.5z" />
    <glyph glyph-name="c_z" unicode="cz" horiz-adv-x="769" vert-adv-y="950" 
d="M135 -6q-73 0 -114 38.5t-41 120.5q0 69 27.5 152t88 143.5t153.5 60.5q61 0 86 -26t25 -67q0 -36 -15.5 -54t-37.5 -18q-19 0 -35 12q12 32 12 59q0 41 -27 41q-30 0 -60 -49.5t-49.5 -118t-19.5 -118.5q0 -83 60 -83q27 0 60.5 16.5t59.5 38.5q-27 -148 -173 -148z
M596 446h-36q-28 0 -41.5 -3t-13.5 -13q0 -2 5.5 -4.5t5.5 -17.5q0 -26 -16 -39.5t-38 -13.5q-19 0 -32.5 11.5t-13.5 32.5t14.5 45t41 40t60.5 16h237l-245 -423q25 0 51 -7l18 -3t22 -2q27 0 32 26q-9 1 -14 6.5t-5 14.5q0 16 15 29.5t41 13.5q22 0 33 -13t11 -35
q0 -24 -15 -49t-43 -41.5t-64 -16.5h-265z" />
    <glyph glyph-name="e_x" unicode="ex" horiz-adv-x="762" vert-adv-y="950" 
d="M711 32.5q-56 -38.5 -110 -38.5q-50 0 -76 31t-44 108q-60 -63 -146.5 -101t-169.5 -38q-80 0 -129 39t-49 124q0 66 27 148t88 143t155 61q110 0 110 -96q0 -56 -32 -103t-85 -75.5t-114 -32.5q-1 -9 -1 -27q0 -99 100 -99q57 0 122 30t113 84l-57 310h141l39 -216
q45 48 70 90t25 69q0 9 -1 12q-14 -2 -18 -2q-24 0 -35 15t-11 37q0 25 15 38t39 13q34 0 52 -24.5t18 -62.5q0 -48 -33 -103t-110 -138l9 -49q1 -5 6.5 -31.5t18.5 -41.5t34 -15q29 0 54 24.5t36 63.5h42q-37 -108 -93 -146.5zM215.5 275q33.5 24 54 61.5t20.5 78.5t-25 41
q-35 0 -70 -64.5t-51 -141.5q38 1 71.5 25z" />
    <glyph glyph-name="e_z" unicode="ez" horiz-adv-x="788" vert-adv-y="950" 
d="M135 -6q-73 0 -114 38.5t-41 120.5q0 69 27 152t88 143.5t155 60.5q110 0 110 -96q0 -56 -32 -103t-85 -75.5t-113 -32.5q-2 -22 -2 -30q0 -83 62 -83q28 0 60 15t58 38q-27 -148 -173 -148zM208.5 275q33.5 24 54 61.5t20.5 78.5t-25 41q-35 0 -69.5 -63.5t-51.5 -142.5
q38 1 71.5 25zM615 446h-56q-28 0 -41.5 -3t-13.5 -13q0 -2 5.5 -4.5t5.5 -17.5q0 -26 -16 -39.5t-38 -13.5q-19 0 -32.5 11.5t-13.5 32.5t14.5 45t41 40t60.5 16h257l-245 -423q6 0 22 -2q34 -4 54 -4q43 0 47 20q-9 1 -14 6.5t-5 14.5q0 16 15 29.5t41 13.5q22 0 33 -13
t11 -35q0 -24 -15 -49t-43 -41.5t-64 -16.5h-265z" />
    <glyph glyph-name="eacute_x" unicode="&#xe9;x" horiz-adv-x="760" vert-adv-y="950" 
d="M315 750h105l-121 -189h-75zM708.5 32.5q-56.5 -38.5 -112.5 -38.5q-47 0 -73 32t-44 107q-58 -63 -146 -101t-167 -38q-81 0 -131 38.5t-50 121.5q0 69 27 151.5t88 143t156 60.5q62 0 85.5 -26.5t23.5 -72.5q0 -54 -32 -100.5t-85 -75t-113 -32.5q-2 -22 -2 -32
q0 -49 27.5 -71.5t75.5 -22.5q54 0 119.5 30.5t112.5 83.5l-57 310h141l39 -216q45 48 70 90t25 69q0 9 -1 12q-14 -2 -17 -2q-25 0 -36 15.5t-11 40.5q0 22 16 34.5t40 12.5q32 0 50 -25t18 -64q0 -48 -33.5 -103.5t-109.5 -134.5l9 -50q1 -5 6.5 -31.5t18.5 -41.5t34 -15
q29 0 54 24.5t36 63.5h42q-37 -108 -93.5 -146.5zM213.5 276q33.5 24 54 60.5t20.5 75.5q0 22 -5 33t-19 11q-37 0 -70.5 -62.5t-51.5 -143.5q38 2 71.5 26z" />
    <glyph glyph-name="f_f_t" unicode="fft" horiz-adv-x="780" vert-adv-y="950" 
d="M727 32.5q-58 -38.5 -115 -38.5q-48 0 -77.5 30t-29.5 90q0 25 8 65l59 281h-135l-115 -540q-20 -94 -69 -132t-107 -38q-38 0 -66 14t-43 40q-49 -54 -128 -54q-47 0 -82.5 30.5t-35.5 77.5q0 43 22 71t57.5 44.5t93.5 34.5l120 571q20 96 70.5 133t111.5 37
q75 0 115 -42q46 42 117 42q61 0 118.5 -17t146.5 -52l-38 -180h60l-8 -40h-61l-63 -300q-4 -15 -4 -32q0 -20 9.5 -28.5t31.5 -8.5q29 0 54 24.5t36 63.5h42q-37 -108 -95 -146.5zM573.5 681.5q-25.5 4.5 -38.5 4.5q-21 0 -40 -17t-28 -62l-22 -107h136l36 170
q-18 7 -43.5 11.5zM348 666q-13 10 -32 10q-38 0 -58.5 -27t-27.5 -67l-16 -82h85l17 79q9 46 32 87zM206 460l-90 -424l88 15l87 409h-85zM110 8l-19 -88q-9 -38 -20 -62q2 -18 14 -25.5t23 -7.5q48 0 68 92l23 109zM-119 -66.5q-29 -23.5 -29 -61.5q0 -12 12 -22.5
t28 -10.5q18 0 34.5 18.5t24.5 59.5l12 58q-53 -18 -82 -41.5z" />
    <glyph glyph-name="f_i_x" unicode="fix" horiz-adv-x="898" vert-adv-y="950" 
d="M167 703.5q63 45.5 144 45.5q75 0 127 -25t52 -90q0 -42 -22.5 -61.5t-56.5 -19.5q-26 0 -43 12.5t-17 41.5q0 19 9.5 34t24.5 15q7 0 8 -1q-1 20 -15.5 30t-39.5 10q-44 0 -70.5 -32t-35.5 -81l-17 -82h80l-8 -40h-80l-114 -540q-20 -94 -69 -132t-107 -38
q-55 0 -89.5 30.5t-34.5 81.5q0 42 24 69t59 43t90 34l111 526q27 124 90 169.5zM846.5 32.5q-56.5 -38.5 -112.5 -38.5q-47 0 -72.5 31.5t-43.5 106.5q-52 -59 -120 -98.5t-133 -39.5q-48 0 -77 29.5t-29 89.5q0 23 8 66l68 321h144l-72 -340q-4 -15 -4 -32q0 -36 44 -36
q37 0 82.5 26.5t76.5 67.5l-57 314h141l39 -216q45 48 70 90t25 69q0 9 -1 12q-14 -2 -17 -2q-25 0 -36 15.5t-11 40.5q0 22 16 34.5t40 12.5q32 0 50 -25t18 -64q0 -48 -33.5 -103.5t-109.5 -134.5l9 -50q1 -5 6.5 -31.5t18.5 -41.5t34 -15q29 0 54 24.5t36 63.5h42
q-37 -108 -93.5 -146.5zM-122 -65.5q-30 -24.5 -30 -55.5q0 -22 14 -31t27 -9q17 0 33.5 19t24.5 59l12 58q-51 -16 -81 -40.5z" />
    <glyph glyph-name="f_i_z" unicode="fiz" horiz-adv-x="904" vert-adv-y="950" 
d="M167 703.5q63 45.5 144 45.5q75 0 127 -25t52 -90q0 -42 -22.5 -61.5t-56.5 -19.5q-26 0 -43 12.5t-17 41.5q0 19 9.5 34t24.5 15q7 0 8 -1q-1 20 -15.5 30t-39.5 10q-44 0 -70.5 -32t-35.5 -81l-17 -82h80l-8 -40h-80l-114 -540q-20 -94 -69 -132t-107 -38
q-55 0 -89.5 30.5t-34.5 81.5q0 42 24 69t59 43t90 34l111 526q27 124 90 169.5zM479 500l-72 -340q-4 -15 -4 -32q0 -20 9.5 -28.5t31.5 -8.5q18 0 32 6q-4 -50 -35.5 -76.5t-74.5 -26.5q-48 0 -77.5 30t-29.5 90q0 25 8 65l68 321h144zM731 446h-56q-28 0 -41.5 -3
t-13.5 -13q0 -2 5.5 -4.5t5.5 -17.5q0 -26 -16 -39.5t-38 -13.5q-19 0 -32.5 11.5t-13.5 32.5t14.5 45t41 40t60.5 16h257l-245 -423q6 0 22 -2q34 -4 54 -4q43 0 47 20q-9 1 -14 6.5t-5 14.5q0 16 15 29.5t41 13.5q22 0 33 -13t11 -35q0 -24 -15 -49t-43 -41.5t-64 -16.5
h-265zM-122 -65.5q-30 -24.5 -30 -55.5q0 -22 14 -31t27 -9q17 0 33.5 19t24.5 59l12 58q-51 -16 -81 -40.5z" />
    <glyph glyph-name="f_l_x" unicode="flx" horiz-adv-x="912" vert-adv-y="950" 
d="M860.5 32.5q-56.5 -38.5 -112.5 -38.5q-47 0 -72.5 31.5t-43.5 106.5q-52 -59 -120 -98.5t-133 -39.5q-48 0 -77 29.5t-29 89.5q0 23 8 66l104 491q-18 7 -43.5 11.5t-38.5 4.5q-21 0 -40 -17t-28 -62l-22 -107h93l-8 -40h-93l-114 -540q-20 -96 -70.5 -133t-111.5 -37
q-47 0 -82.5 30.5t-35.5 77.5q0 43 22 71t57.5 44.5t93.5 34.5l120 571q20 96 70.5 133t111.5 37t118.5 -17t146.5 -52l-110 -520q-4 -15 -4 -32q0 -36 44 -36q37 0 82.5 26.5t76.5 67.5l-57 314h141l39 -216q45 48 70 90t25 69q0 9 -1 12q-14 -2 -17 -2q-25 0 -36 15.5
t-11 40.5q0 22 16 34.5t40 12.5q32 0 50 -25t18 -64q0 -48 -33.5 -103.5t-109.5 -134.5l9 -50q1 -5 6.5 -31.5t18.5 -41.5t34 -15q29 0 54 24.5t36 63.5h42q-37 -108 -93.5 -146.5zM-125 -66.5q-29 -23.5 -29 -61.5q0 -12 12 -22.5t28 -10.5q18 0 34 18.5t25 59.5l12 58
q-53 -18 -82 -41.5z" />
    <glyph glyph-name="f_l_z" unicode="flz" horiz-adv-x="938" vert-adv-y="950" 
d="M341.5 681.5q-25.5 4.5 -38.5 4.5q-21 0 -40 -17t-28 -62l-22 -107h93l-8 -40h-93l-114 -540q-20 -96 -70.5 -133t-111.5 -37q-47 0 -82.5 30.5t-35.5 77.5q0 43 22 71t57.5 44.5t93.5 34.5l120 571q20 96 70.5 133t111.5 37t118.5 -17t146.5 -52l-110 -520
q-4 -15 -4 -32q0 -20 9.5 -28.5t31.5 -8.5q18 0 32 6q-4 -50 -35.5 -76.5t-74.5 -26.5q-48 0 -77.5 30t-29.5 90q0 25 8 65l104 491q-18 7 -43.5 11.5zM-125 -66.5q-29 -23.5 -29 -61.5q0 -12 12 -22.5t28 -10.5q18 0 34.5 18.5t24.5 59.5l12 58q-53 -18 -82 -41.5zM765 446
h-56q-28 0 -41.5 -3t-13.5 -13q0 -2 5.5 -4.5t5.5 -17.5q0 -26 -16 -39.5t-38 -13.5q-19 0 -32.5 11.5t-13.5 32.5t14.5 45t41 40t60.5 16h257l-245 -423q6 0 22 -2q34 -4 54 -4q43 0 47 20q-9 1 -14 6.5t-5 14.5q0 16 15 29.5t41 13.5q22 0 33 -13t11 -35q0 -24 -15 -49
t-43 -41.5t-64 -16.5h-265z" />
    <glyph glyph-name="f_t" unicode="ft" horiz-adv-x="548" vert-adv-y="950" 
d="M495 32.5q-58 -38.5 -115 -38.5q-48 0 -77.5 30t-29.5 90q0 25 8 65l59 281h-135l-114 -540q-20 -96 -70.5 -133t-111.5 -37q-47 0 -82.5 30.5t-35.5 77.5q0 43 22 71t57.5 44.5t93.5 34.5l120 571q20 96 70.5 133t111.5 37t118.5 -17t146.5 -52l-38 -180h60l-8 -40h-61
l-63 -300q-4 -15 -4 -32q0 -20 9.5 -28.5t31.5 -8.5q29 0 54 24.5t36 63.5h42q-37 -108 -95 -146.5zM341.5 681.5q-25.5 4.5 -38.5 4.5q-21 0 -40 -17t-28 -62l-22 -107h136l36 170q-18 7 -43.5 11.5zM-125 -66.5q-29 -23.5 -29 -61.5q0 -12 12 -22.5t28 -10.5q18 0 34 18.5
t25 59.5l12 58q-53 -18 -82 -41.5z" />
    <glyph glyph-name="f_u" unicode="fu" horiz-adv-x="772" vert-adv-y="950" 
d="M814 179q-37 -108 -91.5 -146.5t-109.5 -38.5q-43 0 -68.5 24t-30.5 71q-34 -55 -71.5 -75t-76.5 -20q-48 0 -77.5 30t-29.5 90q0 25 8 65l60 281h-123l-115 -540q-20 -97 -69 -133.5t-110 -36.5q-47 0 -82.5 30.5t-35.5 77.5q0 43 22 71t57 44.5t93 34.5l121 571
q20 96 70.5 133t111.5 37q47 0 82.5 -30.5t35.5 -77.5q0 -23 -3 -41h-47q2 22 2 27q0 16 -11 25t-27 9q-21 0 -41 -18.5t-29 -63.5l-17 -79h193h74l-72 -340q-3 -15 -3 -28q0 -41 30 -41q28 0 48 23.5t32 64.5l68 321h144l-72 -340q-4 -15 -4 -32q0 -20 9.5 -28.5t31.5 -8.5
q28 0 48.5 24t32.5 64h42zM-43 -25q-53 -18 -81.5 -41.5t-28.5 -61.5q0 -12 12 -22.5t28 -10.5q40 0 57 78z" />
    <glyph glyph-name="f_x" unicode="fx" horiz-adv-x="663" vert-adv-y="950" 
d="M611.5 32.5q-56.5 -38.5 -112.5 -38.5q-36 0 -59.5 18.5t-38.5 58.5t-28 108l-2 7q-90 -63 -90 -112q3 1 13 1q41 0 41 -49q0 -28 -15 -41.5t-41 -13.5q-33 0 -49.5 19t-16.5 52q0 47 44.5 104t103.5 96l-40 218h-117l-115 -540q-20 -97 -69 -133.5t-110 -36.5
q-47 0 -82.5 30.5t-35.5 77.5q0 43 22 71t57 44.5t93 34.5l121 571q20 96 70.5 133t111.5 37q47 0 82.5 -30.5t35.5 -77.5q0 -23 -3 -41h-47q2 22 2 27q0 16 -11 25t-27 9q-21 0 -41 -18.5t-29 -63.5l-17 -79h243l36 -198q49 43 73.5 78t24.5 63q0 9 -1 12q-14 -2 -17 -2
q-25 0 -36 15.5t-11 40.5q0 22 16 34.5t40 12.5q32 0 50 -25t18 -64q0 -50 -34 -101t-112 -121l12 -66q1 -5 6.5 -31.5t18.5 -41.5t34 -15q29 0 54 24.5t36 63.5h42q-37 -108 -93.5 -146.5zM-127.5 -66.5q-28.5 -23.5 -28.5 -61.5q0 -12 12 -22.5t28 -10.5q40 0 57 78l13 58
q-53 -18 -81.5 -41.5z" />
    <glyph glyph-name="g_p" unicode="gp" horiz-adv-x="975" vert-adv-y="950" 
d="M469 2q-50 -2 -97 -11l-15 -71q-20 -97 -69 -133.5t-111 -36.5q-48 0 -80 25t-32 72q0 56 47.5 94t116.5 60l11 48q-51 -55 -120 -55q-57 0 -95 39t-38 122q0 74 29.5 155.5t88 138t139.5 56.5q41 0 61 -14t20 -37v-6l11 52h144l-98 -459q50 11 100 19l101 477h144
l-16 -75q50 43 117 43q56 0 89 -37t33 -121q0 -79 -23 -159.5t-78 -137t-145 -56.5q-50 0 -92 3l-45 -211l-151 -36zM306 430.5q-10 12.5 -31 12.5q-40 0 -72 -46.5t-50 -112t-18 -115.5t14.5 -64t35.5 -14q23 0 47 21t33 57l51 237q0 12 -10 24.5zM673 76q48 0 79.5 46
t46 109.5t14.5 118.5q0 83 -50 83q-18 0 -36.5 -13t-32.5 -36l-65 -309q15 1 44 1zM120 -139q0 -13 9 -23t25 -10q17 0 33 23t25 66l6 29q-98 -36 -98 -85z" />
    <glyph glyph-name="g_x" unicode="gx" horiz-adv-x="892" vert-adv-y="950" 
d="M840.5 32.5q-56.5 -38.5 -112.5 -38.5q-47 0 -72.5 31.5t-43.5 105.5q-49 -54 -109 -85.5t-131 -52.5l-15 -73q-20 -97 -69 -133.5t-111 -36.5q-48 0 -80 25t-32 72q0 57 45 90t118 56l12 57q-52 -56 -120 -56q-57 0 -95 39t-38 122q0 74 29.5 155.5t88 138t139.5 56.5
q41 0 61 -14t20 -37v-7l11 53h144l-98 -461q58 19 110 54t107 99l-56 308h141l39 -216q45 48 70 90t25 69q0 9 -1 12q-14 -2 -17 -2q-25 0 -36 15.5t-11 40.5q0 22 16 34.5t40 12.5q32 0 50 -25t18 -64q0 -48 -33.5 -103.5t-109.5 -134.5l9 -50q1 -5 6.5 -31.5t18.5 -41.5
t34 -15q29 0 54 24.5t36 63.5h42q-37 -108 -93.5 -146.5zM316 405q0 13 -10 25.5t-31 12.5q-40 0 -72 -46.5t-50 -112t-18 -115.5t14.5 -64t35.5 -14q24 0 48 21.5t33 59.5l2 7zM146.5 -90q-26.5 -21 -26.5 -49q0 -13 9 -23t25 -10q17 0 33 23t25 66l6 30q-45 -16 -71.5 -37
z" />
    <glyph glyph-name="g_z" unicode="gz" horiz-adv-x="907" vert-adv-y="950" 
d="M119 -6q-57 0 -95 39t-38 122q0 74 29.5 155.5t88 138t139.5 56.5q41 0 61 -14t20 -37v-2l10 48h145l-122 -580q-20 -96 -70.5 -133t-111.5 -37q-47 0 -82.5 30.5t-35.5 77.5q0 44 22 72t57 44t94 34l9 42q-52 -56 -120 -56zM274 443q-40 0 -72 -46.5t-50 -112
t-18 -115.5t14.5 -64t35.5 -14q23 0 46.5 19.5t33.5 55.5l51 242q-8 35 -41 35zM141 -66q-29 -24 -29 -62q0 -12 12 -22.5t28 -10.5q18 0 34 18.5t25 59.5l12 59q-53 -18 -82 -42zM734 446h-56q-28 0 -41.5 -3t-13.5 -13q0 -2 5.5 -4.5t5.5 -17.5q0 -26 -16 -39.5t-38 -13.5
q-19 0 -32.5 11.5t-13.5 32.5t14.5 45t41 40t60.5 16h257l-245 -423q6 0 22 -2q34 -4 54 -4q43 0 47 20q-9 1 -14 6.5t-5 14.5q0 16 15 29.5t41 13.5q22 0 33 -13t11 -35q0 -24 -15 -49t-43 -41.5t-64 -16.5h-265z" />
    <glyph glyph-name="i_x" unicode="ix" horiz-adv-x="631" vert-adv-y="950" 
d="M223.5 577q-23.5 -23 -56.5 -23t-56 23t-23 56t23 56.5t56 23.5t56.5 -23.5t23.5 -56.5t-23.5 -56zM579.5 32.5q-56.5 -38.5 -112.5 -38.5q-47 0 -72.5 31.5t-43.5 106.5q-52 -59 -120 -98.5t-133 -39.5q-48 0 -77 29.5t-29 89.5q0 23 8 66l68 321h144l-72 -340
q-4 -15 -4 -32q0 -36 44 -36q37 0 82.5 26.5t76.5 67.5l-57 314h141l39 -216q45 48 70 90t25 69q0 9 -1 12q-14 -2 -17 -2q-25 0 -36 15.5t-11 40.5q0 22 16 34.5t40 12.5q32 0 50 -25t18 -64q0 -48 -33.5 -103.5t-109.5 -134.5l9 -50q1 -5 6.5 -31.5t18.5 -41.5t34 -15
q29 0 54 24.5t36 63.5h42q-37 -108 -93.5 -146.5z" />
    <glyph glyph-name="i_z" unicode="iz" horiz-adv-x="637" vert-adv-y="950" 
d="M223.5 577q-23.5 -23 -56.5 -23t-56 23t-23 56t23 56.5t56 23.5t56.5 -23.5t23.5 -56.5t-23.5 -56zM212 500l-72 -340q-4 -15 -4 -32q0 -20 9.5 -28.5t31.5 -8.5q18 0 32 6q-4 -50 -35.5 -76.5t-74.5 -26.5q-48 0 -77.5 30t-29.5 90q0 25 8 65l68 321h144zM464 446h-56
q-28 0 -41.5 -3t-13.5 -13q0 -2 5.5 -4.5t5.5 -17.5q0 -26 -16 -39.5t-38 -13.5q-19 0 -32.5 11.5t-13.5 32.5t14.5 45t41 40t60.5 16h257l-245 -423q6 0 22 -2q34 -4 54 -4q43 0 47 20q-9 1 -14 6.5t-5 14.5q0 16 15 29.5t41 13.5q22 0 33 -13t11 -35q0 -24 -15 -49
t-43 -41.5t-64 -16.5h-265z" />
    <glyph glyph-name="iacute_x" unicode="&#xed;x" horiz-adv-x="631" vert-adv-y="950" 
d="M203 750h105l-121 -189h-75zM579.5 32.5q-56.5 -38.5 -112.5 -38.5q-47 0 -72.5 31.5t-43.5 106.5q-52 -59 -120 -98.5t-133 -39.5q-48 0 -77 29.5t-29 89.5q0 23 8 66l68 321h144l-72 -340q-4 -15 -4 -32q0 -36 44 -36q37 0 82.5 26.5t76.5 67.5l-57 314h141l39 -216
q45 48 70 90t25 69q0 9 -1 12q-14 -2 -17 -2q-25 0 -36 15.5t-11 40.5q0 22 16 34.5t40 12.5q32 0 50 -25t18 -64q0 -48 -33.5 -103.5t-109.5 -134.5l9 -50q1 -5 6.5 -31.5t18.5 -41.5t34 -15q29 0 54 24.5t36 63.5h42q-37 -108 -93.5 -146.5z" />
    <glyph glyph-name="iacute_z" unicode="&#xed;z" horiz-adv-x="637" vert-adv-y="950" 
d="M212 500l-72 -340q-4 -15 -4 -32q0 -20 9.5 -28.5t31.5 -8.5q18 0 32 6q-4 -50 -35.5 -76.5t-74.5 -26.5q-48 0 -77.5 30t-29.5 90q0 25 8 65l68 321h144zM464 446h-56q-28 0 -41.5 -3t-13.5 -13q0 -2 5.5 -4.5t5.5 -17.5q0 -26 -16 -39.5t-38 -13.5q-19 0 -32.5 11.5
t-13.5 32.5t14.5 45t41 40t60.5 16h257l-245 -423q6 0 22 -2q34 -4 54 -4q43 0 47 20q-9 1 -14 6.5t-5 14.5q0 16 15 29.5t41 13.5q22 0 33 -13t11 -35q0 -24 -15 -49t-43 -41.5t-64 -16.5h-265zM202 750h105l-121 -189h-75z" />
    <glyph glyph-name="j_x" unicode="jx" horiz-adv-x="624" vert-adv-y="950" 
d="M214.5 578q-23.5 -23 -56.5 -23t-56 23t-23 56t23 56.5t56 23.5t56.5 -23.5t23.5 -56.5t-23.5 -56zM572.5 32.5q-56.5 -38.5 -112.5 -38.5q-47 0 -72.5 31.5t-43.5 105.5q-49 -54 -109 -85.5t-131 -52.5l-15 -73q-20 -97 -69 -133.5t-111 -36.5q-48 0 -80 25t-32 72
q0 57 45.5 90t118.5 56l107 507h144l-98 -461q58 19 110 54t107 99l-56 308h141l39 -216q45 48 70 90t25 69q0 9 -1 12q-14 -2 -17 -2q-25 0 -36 15.5t-11 40.5q0 22 16 34.5t40 12.5q32 0 50 -25t18 -64q0 -48 -33.5 -103.5t-109.5 -134.5l9 -50q1 -5 6.5 -31.5t18.5 -41.5
t34 -15q29 0 54 24.5t36 63.5h42q-37 -108 -93.5 -146.5zM-121 -90.5q-27 -20.5 -27 -48.5q0 -13 9 -23t25 -10q17 0 33 23t25 66l7 30q-45 -17 -72 -37.5z" />
    <glyph glyph-name="j_z" unicode="jz" horiz-adv-x="618" vert-adv-y="950" 
d="M222.5 578q-23.5 -23 -56.5 -23t-56 23t-23 56t23 56.5t56 23.5t56.5 -23.5t23.5 -56.5t-23.5 -56zM216 500l-122 -580q-20 -96 -70.5 -133t-111.5 -37q-47 0 -82.5 30.5t-35.5 77.5q0 44 22 72t57 44t95 34l103 492h145zM-122 -66q-29 -24 -29 -62q0 -12 12 -22.5
t28 -10.5q18 0 34 18.5t25 59.5l13 59q-54 -18 -83 -42zM445 446h-56q-28 0 -41.5 -3t-13.5 -13q0 -2 5.5 -4.5t5.5 -17.5q0 -26 -16 -39.5t-38 -13.5q-19 0 -32.5 11.5t-13.5 32.5t14.5 45t41 40t60.5 16h257l-245 -423q6 0 22 -2q34 -4 54 -4q43 0 47 20q-9 1 -14 6.5
t-5 14.5q0 16 15 29.5t41 13.5q22 0 33 -13t11 -35q0 -24 -15 -49t-43 -41.5t-64 -16.5h-265z" />
    <glyph glyph-name="l_x" unicode="lx" horiz-adv-x="631" vert-adv-y="950" 
d="M579.5 32.5q-56.5 -38.5 -112.5 -38.5q-47 0 -72.5 31.5t-43.5 105.5q-53 -59 -120 -98t-132 -39q-48 0 -77 29.5t-29 89.5q0 23 8 66l106 501l148 20l-114 -540q-4 -15 -4 -32q0 -36 44 -36q38 0 82 25.5t77 67.5l-58 315h141l39 -216q45 48 70 90t25 69q0 9 -1 12
q-14 -2 -17 -2q-25 0 -36 15.5t-11 40.5q0 22 16 34.5t40 12.5q32 0 50 -25t18 -64q0 -48 -33.5 -103.5t-109.5 -134.5l9 -50q1 -5 6.5 -31.5t18.5 -41.5t34 -15q29 0 54 24.5t36 63.5h42q-37 -108 -93.5 -146.5z" />
    <glyph glyph-name="l_z" unicode="lz" horiz-adv-x="635" vert-adv-y="950" 
d="M253 702l-115 -540q-4 -15 -4 -29q0 -40 41 -40q18 0 32 6q-4 -50 -35.5 -77.5t-74.5 -27.5q-48 0 -77.5 30.5t-29.5 91.5q0 25 8 65l107 501zM462 446h-56q-28 0 -41.5 -3t-13.5 -13q0 -2 5.5 -4.5t5.5 -17.5q0 -26 -16 -39.5t-38 -13.5q-19 0 -32.5 11.5t-13.5 32.5
t14.5 45t41 40t60.5 16h257l-245 -423q6 0 22 -2q34 -4 54 -4q43 0 47 20q-9 1 -14 6.5t-5 14.5q0 16 15 29.5t41 13.5q22 0 33 -13t11 -35q0 -24 -15 -49t-43 -41.5t-64 -16.5h-265z" />
    <glyph glyph-name="m_x" unicode="mx" horiz-adv-x="1124" vert-adv-y="950" 
d="M1072.5 32.5q-56.5 -38.5 -112.5 -38.5q-47 0 -73 32t-44 106q-55 -58 -122.5 -98t-118.5 -40q-60 0 -86 32t-26 81q0 21 5 47.5t10.5 51.5t7.5 32q8 35 15 69t7 55q0 51 -36 51q-26 0 -46 -25.5t-32 -66.5l-68 -321h-144l73 345q3 12 3 25q0 44 -30 44
q-28 0 -48.5 -25.5t-32.5 -67.5l-68 -321h-144l106 500h144l-11 -52q51 57 122 57q88 0 103 -86q55 85 139 85q51 0 81 -28t30 -85q0 -29 -7 -64.5t-20 -86.5q-8 -31 -14.5 -60.5t-6.5 -46.5q0 -42 44 -42q35 0 81 27t79 68l-57 314h141l39 -216q45 48 70 90t25 69
q0 9 -1 12q-14 -2 -17 -2q-25 0 -36 15.5t-11 40.5q0 22 16 34.5t40 12.5q32 0 50 -25t18 -64q0 -48 -33.5 -103.5t-109.5 -134.5l9 -50q1 -5 6.5 -31.5t18.5 -41.5t34 -15q29 0 54 24.5t36 63.5h42q-37 -108 -93.5 -146.5z" />
    <glyph glyph-name="m_z" unicode="mz" horiz-adv-x="1125" vert-adv-y="950" 
d="M282 345q3 12 3 25q0 44 -30 44q-28 0 -48.5 -25.5t-32.5 -67.5l-68 -321h-144l106 500h144l-11 -52q51 57 122 57q88 0 103 -86q55 85 139 85q51 0 81 -28t30 -85q0 -29 -7 -64.5t-20 -86.5q-8 -31 -14.5 -60.5t-6.5 -46.5q0 -20 9 -31t31 -11q24 0 33 6
q-6 -51 -36.5 -77t-73.5 -26q-53 0 -77 32t-24 81q0 21 5 47.5t10.5 51.5t7.5 32q8 35 15 69t7 55q0 51 -36 51q-26 0 -46 -25.5t-32 -66.5l-68 -321h-144zM952 446h-56q-28 0 -41.5 -3t-13.5 -13q0 -2 5.5 -4.5t5.5 -17.5q0 -26 -16 -39.5t-38 -13.5q-19 0 -32.5 11.5
t-13.5 32.5t14.5 45t41 40t60.5 16h257l-245 -423q6 0 22 -2q34 -4 54 -4q43 0 47 20q-9 1 -14 6.5t-5 14.5q0 16 15 29.5t41 13.5q22 0 33 -13t11 -35q0 -24 -15 -49t-43 -41.5t-64 -16.5h-265z" />
    <glyph glyph-name="n_z" unicode="nz" horiz-adv-x="882" vert-adv-y="950" 
d="M68 500h144l-11 -52q50 56 117 56q51 0 81 -28t30 -85q0 -29 -7 -64.5t-20 -86.5q-8 -31 -14.5 -60.5t-6.5 -46.5q0 -20 9 -31t31 -11q24 0 33 6q-6 -51 -36.5 -77t-73.5 -26q-53 0 -77 32t-24 81q0 21 5 47.5t10.5 51.5t7.5 32q8 35 15 69t7 55q0 51 -36 51
q-26 0 -46 -25.5t-32 -66.5l-68 -321h-144zM709 446h-56q-28 0 -41.5 -3t-13.5 -13q0 -2 5.5 -4.5t5.5 -17.5q0 -26 -16 -39.5t-38 -13.5q-19 0 -32.5 11.5t-13.5 32.5t14.5 45t41 40t60.5 16h257l-245 -423q6 0 22 -2q34 -4 54 -4q43 0 47 20q-9 1 -14 6.5t-5 14.5
q0 16 15 29.5t41 13.5q22 0 33 -13t11 -35q0 -24 -15 -49t-43 -41.5t-64 -16.5h-265z" />
    <glyph glyph-name="o_ae" unicode="o&#xe6;" horiz-adv-x="1089" vert-adv-y="950" 
d="M1005.5 45.5q-66.5 -51.5 -158.5 -51.5q-57 0 -95 23.5t-52 72.5q-49 -96 -136 -96q-60 0 -96.5 28.5t-36.5 102.5q0 165 228 165q31 0 46 -4q22 49 22 90q0 70 -68 70q-41 0 -69 -13t-68 -43q-35 -27 -64.5 -44.5t-71.5 -32.5q-5 -96 -37.5 -167.5t-85 -110.5
t-115.5 -39q-74 0 -117 38t-43 120q0 69 27 151.5t88 143t156 60.5q124 0 128 -151q32 13 58.5 29.5t59.5 42.5q50 38 87 56.5t90 18.5q52 0 88.5 -10t60.5 -31q57 41 132 41q62 0 85.5 -25t23.5 -70q0 -54 -32 -100.5t-85 -75t-113 -32.5q-2 -22 -2 -32q0 -53 15 -72.5
t45 -19.5q46 0 77.5 12t53.5 31t58 58h34q-51 -82 -117.5 -133.5zM920.5 276q33.5 24 54 60.5t20.5 75.5q0 22 -5 33t-19 11q-37 0 -70.5 -62.5t-51.5 -143.5q38 2 71.5 26zM274 343q0 42 31 53q-2 29 -11 40.5t-27 11.5q-33 0 -63 -47.5t-48.5 -115t-18.5 -118.5
q0 -48 11 -64.5t40 -16.5q24 0 47.5 27.5t41.5 75.5t24 106q-27 6 -27 48zM677 229q-43 0 -74 -23.5t-31 -67.5q0 -28 15.5 -37.5t35.5 -9.5q22 0 42.5 31.5t32.5 105.5z" />
    <glyph glyph-name="o_s" unicode="os" horiz-adv-x="786" vert-adv-y="950" 
d="M689 62q-25 -36 -63.5 -52t-83.5 -16q-80 0 -109.5 38t-29.5 95q0 42 22 68.5t50 26.5q52 0 52 -42q0 -18 -14 -31.5t-34 -13.5q-21 0 -27 13q0 -36 14.5 -55.5t43.5 -19.5q34 0 48.5 20.5t14.5 72.5q0 30 -6 76q-10 96 -16 196q-71 -109 -168 -138q-6 -92 -39 -161
t-84.5 -106t-113.5 -37q-74 0 -117 38t-43 120q0 69 27 151.5t88 143t156 60.5q127 0 128 -157q74 4 163 159l148 20q5 -128 17 -277q5 -60 5 -87q0 -20 -3 -37q30 17 71 49h42q-55 -64 -139 -117zM275 338q0 39 28 52q-2 32 -10.5 45t-27.5 13q-33 0 -63 -47.5t-48.5 -115
t-18.5 -118.5q0 -48 11 -64.5t40 -16.5q37 0 69 59.5t44 147.5q-24 9 -24 45z" />
    <glyph glyph-name="o_s_x" unicode="osx" horiz-adv-x="1132" vert-adv-y="950" 
d="M1080.5 32.5q-56.5 -38.5 -112.5 -38.5q-49 0 -74.5 33.5t-44.5 114.5q-24 -17 -53 -31.5t-69 -32.5q-8 -4 -18 -8t-21 -10q-25 -34 -63.5 -50t-81.5 -16q-80 0 -109.5 38t-29.5 95q0 42 22 68.5t50 26.5q52 0 52 -42q0 -18 -14 -31.5t-34 -13.5q-21 0 -27 13
q0 -36 14.5 -55.5t43.5 -19.5q34 0 48.5 20.5t14.5 72.5q0 30 -6 76q-10 96 -16 196q-71 -109 -168 -138q-6 -92 -39 -161t-84.5 -106t-113.5 -37q-74 0 -117 38t-43 120q0 69 27 151.5t88 143t156 60.5q127 0 128 -157q74 4 163 159l148 20q5 -128 17 -277q5 -60 5 -87
t-4 -44q74 31 124 72l-56 305h141l39 -216q45 48 70 90t25 69q0 9 -1 12q-14 -2 -17 -2q-25 0 -36 15.5t-11 40.5q0 22 16 34.5t40 12.5q32 0 50 -25t18 -64q0 -48 -33.5 -103.5t-109.5 -134.5l9 -50q1 -5 6.5 -31.5t18.5 -41.5t34 -15q29 0 54 24.5t36 63.5h42
q-37 -108 -93.5 -146.5zM276 338q0 39 28 52q-2 32 -10.5 45t-27.5 13q-33 0 -63 -47.5t-48.5 -115t-18.5 -118.5q0 -48 11 -64.5t40 -16.5q37 0 69 59.5t44 147.5q-24 9 -24 45z" />
    <glyph glyph-name="o_s_z" unicode="osz" horiz-adv-x="1139" vert-adv-y="950" 
d="M713 254q5 -60 5 -87q0 -90 -52 -131.5t-124 -41.5q-80 0 -109.5 38t-29.5 95q0 42 22 68.5t50 26.5q52 0 52 -42q0 -18 -14 -31.5t-34 -13.5q-21 0 -27 13q0 -36 14.5 -55.5t43.5 -19.5q34 0 48.5 20.5t14.5 72.5q0 30 -6 76q-10 96 -16 196q-71 -109 -168 -138
q-6 -92 -39 -161t-84.5 -106t-113.5 -37q-74 0 -117 38t-43 120q0 69 27 151.5t88 143t156 60.5q127 0 128 -157q74 4 163 159l148 20q5 -128 17 -277zM966 446h-56q-28 0 -41.5 -3t-13.5 -13q0 -2 5.5 -4.5t5.5 -17.5q0 -26 -16 -39.5t-38 -13.5q-19 0 -32.5 11.5
t-13.5 32.5t14.5 45t41 40t60.5 16h257l-245 -423q6 0 22 -2q34 -4 54 -4q43 0 47 20q-9 1 -14 6.5t-5 14.5q0 16 15 29.5t41 13.5q22 0 33 -13t11 -35q0 -24 -15 -49t-43 -41.5t-64 -16.5h-265zM275 338q0 39 28 52q-2 32 -10.5 45t-27.5 13q-33 0 -63 -47.5t-48.5 -115
t-18.5 -118.5q0 -48 11 -64.5t40 -16.5q37 0 69 59.5t44 147.5q-24 9 -24 45z" />
    <glyph glyph-name="o_x" unicode="ox" horiz-adv-x="851" vert-adv-y="950" 
d="M798.5 32.5q-56.5 -38.5 -112.5 -38.5q-36 0 -59.5 18.5t-38.5 58.5t-28 108l-2 7q-90 -63 -90 -112q3 1 13 1q41 0 41 -49q0 -28 -15 -41.5t-41 -13.5q-33 0 -49.5 19t-16.5 52q0 47 44.5 104t103.5 96l-28 155q-61 -73 -135 -96q-8 -92 -41.5 -161t-85.5 -106.5
t-113 -37.5q-74 0 -117 38t-43 120q0 68 28 151t90 143.5t156 60.5q127 0 128 -157q55 6 123 100l-9 48h141l36 -198q49 43 73.5 78t24.5 63q0 9 -1 12q-14 -2 -17 -2q-25 0 -36 15.5t-11 40.5q0 22 16 34.5t40 12.5q32 0 50 -25t18 -64q0 -50 -34 -101t-112 -121l12 -66
q1 -5 6.5 -31.5t18.5 -41.5t34 -15q29 0 54 24.5t36 63.5h42q-37 -108 -93.5 -146.5zM274 338q0 42 31 53q-2 32 -10.5 44.5t-27.5 12.5q-33 0 -64 -48t-50 -115t-19 -118q0 -48 11 -64.5t40 -16.5q24 0 48 27.5t42 74.5t26 105q-27 8 -27 45z" />
    <glyph glyph-name="oacute_s" unicode="&#xf3;s" horiz-adv-x="787" vert-adv-y="950" 
d="M310 750h105l-121 -189h-75zM690 62q-25 -36 -63.5 -52t-83.5 -16q-80 0 -109.5 38t-29.5 95q0 42 22 68.5t50 26.5q52 0 52 -42q0 -18 -14 -31.5t-34 -13.5q-21 0 -27 13q0 -36 14.5 -55.5t43.5 -19.5q34 0 48.5 20.5t14.5 72.5q0 30 -6 76q-10 96 -16 196
q-71 -109 -168 -138q-6 -92 -39 -161t-84.5 -106t-113.5 -37q-74 0 -117 38t-43 120q0 69 27 151.5t88 143t156 60.5q127 0 128 -157q74 4 163 159l148 20q5 -128 17 -277q5 -60 5 -87q0 -20 -3 -37q30 17 71 49h42q-55 -64 -139 -117zM276 338q0 39 28 52q-2 32 -10.5 45
t-27.5 13q-33 0 -63 -47.5t-48.5 -115t-18.5 -118.5q0 -48 11 -64.5t40 -16.5q37 0 69 59.5t44 147.5q-24 9 -24 45z" />
    <glyph glyph-name="oacute_s_x" unicode="&#xf3;sx" horiz-adv-x="1141" vert-adv-y="950" 
d="M311 750h105l-121 -189h-75zM715 254q5 -60 5 -87q0 -90 -52 -131.5t-124 -41.5q-80 0 -109.5 38t-29.5 95q0 42 22 68.5t50 26.5q52 0 52 -42q0 -18 -14 -31.5t-34 -13.5q-21 0 -27 13q0 -36 14.5 -55.5t43.5 -19.5q34 0 48.5 20.5t14.5 72.5q0 30 -6 76q-10 96 -16 196
q-71 -109 -168 -138q-6 -92 -39 -161t-84.5 -106t-113.5 -37q-74 0 -117 38t-43 120q0 69 27 151.5t88 143t156 60.5q127 0 128 -157q74 4 163 159l148 20q5 -128 17 -277zM968 446h-56q-28 0 -41.5 -3t-13.5 -13q0 -2 5.5 -4.5t5.5 -17.5q0 -26 -16 -39.5t-38 -13.5
q-19 0 -32.5 11.5t-13.5 32.5t14.5 45t41 40t60.5 16h257l-245 -423q6 0 22 -2q34 -4 54 -4q43 0 47 20q-9 1 -14 6.5t-5 14.5q0 16 15 29.5t41 13.5q22 0 33 -13t11 -35q0 -24 -15 -49t-43 -41.5t-64 -16.5h-265zM277 338q0 39 28 52q-2 32 -10.5 45t-27.5 13
q-33 0 -63 -47.5t-48.5 -115t-18.5 -118.5q0 -48 11 -64.5t40 -16.5q37 0 69 59.5t44 147.5q-24 9 -24 45z" />
    <glyph glyph-name="oacute_s_z" unicode="&#xf3;sz" horiz-adv-x="1140" vert-adv-y="950" 
d="M310 750h105l-121 -189h-75zM714 254q5 -60 5 -87q0 -90 -52 -131.5t-124 -41.5q-80 0 -109.5 38t-29.5 95q0 42 22 68.5t50 26.5q52 0 52 -42q0 -18 -14 -31.5t-34 -13.5q-21 0 -27 13q0 -36 14.5 -55.5t43.5 -19.5q34 0 48.5 20.5t14.5 72.5q0 30 -6 76q-10 96 -16 196
q-71 -109 -168 -138q-6 -92 -39 -161t-84.5 -106t-113.5 -37q-74 0 -117 38t-43 120q0 69 27 151.5t88 143t156 60.5q127 0 128 -157q74 4 163 159l148 20q5 -128 17 -277zM967 446h-56q-28 0 -41.5 -3t-13.5 -13q0 -2 5.5 -4.5t5.5 -17.5q0 -26 -16 -39.5t-38 -13.5
q-19 0 -32.5 11.5t-13.5 32.5t14.5 45t41 40t60.5 16h257l-245 -423q6 0 22 -2q34 -4 54 -4q43 0 47 20q-9 1 -14 6.5t-5 14.5q0 16 15 29.5t41 13.5q22 0 33 -13t11 -35q0 -24 -15 -49t-43 -41.5t-64 -16.5h-265zM276 338q0 39 28 52q-2 32 -10.5 45t-27.5 13
q-33 0 -63 -47.5t-48.5 -115t-18.5 -118.5q0 -48 11 -64.5t40 -16.5q37 0 69 59.5t44 147.5q-24 9 -24 45z" />
    <glyph glyph-name="oacute_x" unicode="&#xf3;x" horiz-adv-x="852" vert-adv-y="950" 
d="M309 750h105l-121 -189h-75zM799.5 32.5q-56.5 -38.5 -112.5 -38.5q-36 0 -59.5 18.5t-38.5 58.5t-28 108l-2 7q-90 -63 -90 -112q3 1 13 1q41 0 41 -49q0 -28 -15 -41.5t-41 -13.5q-33 0 -49.5 19t-16.5 52q0 47 44.5 104t103.5 96l-28 155q-61 -74 -135 -96
q-8 -92 -41.5 -161t-85.5 -106.5t-113 -37.5q-74 0 -117 38t-43 120q0 68 28 151t90 143.5t156 60.5q127 0 128 -157q55 6 123 100l-9 48h141l36 -198q49 43 73.5 78t24.5 63q0 9 -1 12q-14 -2 -17 -2q-25 0 -36 15.5t-11 40.5q0 22 16 34.5t40 12.5q32 0 50 -25t18 -64
q0 -50 -34 -101t-112 -121l12 -66q1 -5 6.5 -31.5t18.5 -41.5t34 -15q29 0 54 24.5t36 63.5h42q-37 -108 -93.5 -146.5zM275 338q0 42 31 53q-2 32 -10.5 44.5t-27.5 12.5q-33 0 -64 -48t-50 -115t-19 -118q0 -48 11 -64.5t40 -16.5q24 0 48 27.5t42 74.5t26 105
q-27 8 -27 45z" />
    <glyph glyph-name="r_x" unicode="rx" horiz-adv-x="784" vert-adv-y="950" 
d="M733.5 32.5q-55.5 -38.5 -110.5 -38.5q-36 0 -59 18.5t-39 58t-31 108.5l-2 7q-90 -63 -90 -112q3 1 13 1q41 0 41 -49q0 -28 -15 -41.5t-41 -13.5q-33 0 -49.5 19t-16.5 52q0 48 43.5 103.5t102.5 94.5l-58 260h141l45 -202q51 47 76.5 82t25.5 63q0 9 -1 12
q-14 -2 -17 -2q-25 0 -36 15.5t-11 40.5q0 22 16 34.5t40 12.5q32 0 50 -25t18 -64q0 -50 -34.5 -101.5t-114.5 -122.5l15 -64q1 -4 6.5 -31t19 -42t33.5 -15q29 0 54 24.5t36 63.5h42q-37 -108 -92.5 -146.5zM68 500h144l-13 -62q34 30 61.5 46t59.5 16t50.5 -22t18.5 -53
q0 -29 -19 -51t-53 -22q-22 0 -29.5 10.5t-11.5 30.5q-3 13 -6 19t-11 6q-21 0 -35.5 -8.5t-37.5 -29.5l-80 -380h-144z" />
    <glyph glyph-name="r_z" unicode="rz" horiz-adv-x="654" vert-adv-y="950" 
d="M480 443h-93q1 -3 1 -15q0 -33 -19 -54.5t-52 -21.5q-22 0 -29.5 10.5t-11.5 30.5q-3 13 -6 19t-11 6q-21 0 -35.5 -8.5t-37.5 -29.5l-80 -380h-144l106 500h144l-13 -62q34 30 61.5 46t59.5 16h334l-245 -423q25 0 51 -7l18 -3t22 -2q27 0 32 26q-9 1 -14 6.5t-5 14.5
q0 16 15 29.5t41 13.5q22 0 33 -13t11 -35q0 -24 -15 -49t-43 -41.5t-64 -16.5h-265z" />
    <glyph glyph-name="s_x" unicode="sx" horiz-adv-x="727" vert-adv-y="950" 
d="M675.5 32.5q-56.5 -38.5 -112.5 -38.5q-49 0 -74.5 33.5t-44.5 114.5q-33 -23 -74.5 -42t-47.5 -22l-51 -24q-29 -31 -71.5 -45.5t-85.5 -14.5q-48 0 -81 18.5t-49 48t-16 61.5q0 33 15.5 57.5t37.5 35.5q39 70 68 141.5t55 154.5l148 20q5 -128 17 -277q5 -60 5 -87
q0 -20 -5 -45q80 33 125 73l-56 305h141l39 -216q45 48 70 90t25 69q0 9 -1 12q-14 -2 -17 -2q-25 0 -36 15.5t-11 40.5q0 22 16 34.5t40 12.5q32 0 50 -25t18 -64q0 -48 -33.5 -103.5t-109.5 -134.5l9 -50q1 -5 6.5 -31.5t18.5 -41.5t34 -15q29 0 54 24.5t36 63.5h42
q-37 -108 -93.5 -146.5zM69 214q23 -12 23 -35q0 -19 -12.5 -34t-31.5 -15q-21 0 -27 13q0 -36 14.5 -53t46.5 -17q37 0 62 22t25 71q0 30 -6 84q-10 114 -13 153q-24 -79 -81 -189z" />
    <glyph glyph-name="s_z" unicode="sz" horiz-adv-x="744" vert-adv-y="950" 
d="M309 254q5 -60 5 -87q0 -61 -31 -100t-76.5 -56t-92.5 -17q-48 0 -81 18.5t-49 48t-16 61.5q0 33 15.5 57.5t37.5 35.5q39 70 68 141.5t55 154.5l148 20q5 -128 17 -277zM69 214q23 -12 23 -35q0 -19 -12.5 -34t-31.5 -15q-21 0 -27 13q0 -36 14.5 -53t46.5 -17
q37 0 62 22t25 71q0 30 -6 84q-10 114 -13 153q-24 -79 -81 -189zM571 446h-56q-28 0 -41.5 -3t-13.5 -13q0 -2 5.5 -4.5t5.5 -17.5q0 -26 -16 -39.5t-38 -13.5q-19 0 -32.5 11.5t-13.5 32.5t14.5 45t41 40t60.5 16h257l-245 -423q6 0 22 -2q34 -4 54 -4q43 0 47 20
q-9 1 -14 6.5t-5 14.5q0 16 15 29.5t41 13.5q22 0 33 -13t11 -35q0 -24 -15 -49t-43 -41.5t-64 -16.5h-265z" />
    <glyph glyph-name="t_x" unicode="tx" horiz-adv-x="631" vert-adv-y="950" 
d="M579.5 32.5q-56.5 -38.5 -112.5 -38.5q-47 0 -72.5 31.5t-43.5 105.5q-53 -59 -120 -98t-132 -39q-48 0 -77 29.5t-29 89.5q0 23 8 66l60 281h-33l8 40h33l30 138l148 20l-34 -158h210l39 -216q45 48 70 90t25 69q0 9 -1 12q-14 -2 -17 -2q-25 0 -36 15.5t-11 40.5
q0 22 16 34.5t40 12.5q32 0 50 -25t18 -64q0 -48 -33.5 -103.5t-109.5 -134.5l9 -50q1 -5 6.5 -31.5t18.5 -41.5t34 -15q29 0 54 24.5t36 63.5h42q-37 -108 -93.5 -146.5zM205 460l-64 -300q-4 -15 -4 -32q0 -36 44 -36q38 0 82 25.5t77 67.5l-51 275h-84z" />
    <glyph glyph-name="t_z" unicode="tz" horiz-adv-x="704" vert-adv-y="950" 
d="M31 460l8 40h33l30 138l148 20q-9 -38 -10 -45q-7 -28 -24 -113h60l-8 -40h-60l-64 -300q-5 -22 -5 -35q0 -36 35 -36q18 0 26 3q-20 -58 -47 -78t-59 -20q-51 0 -75.5 31t-24.5 82q0 26 6 53l64 300h-33zM531 446h-56q-28 0 -41.5 -3t-13.5 -13q0 -2 5.5 -4.5t5.5 -17.5
q0 -26 -16 -39.5t-38 -13.5q-19 0 -32.5 11.5t-13.5 32.5t14.5 45t41 40t60.5 16h257l-245 -423q6 0 22 -2q34 -4 54 -4q43 0 47 20q-9 1 -14 6.5t-5 14.5q0 16 15 29.5t41 13.5q22 0 33 -13t11 -35q0 -24 -15 -49t-43 -41.5t-64 -16.5h-265z" />
    <glyph glyph-name="u_v" unicode="uv" horiz-adv-x="923" vert-adv-y="950" 
d="M821 415q-20 0 -31 16.5t-11 39.5q0 17 17 33t40 16q31 0 47.5 -24.5t16.5 -65.5q0 -88 -30.5 -190t-93.5 -174t-157 -72q-59 0 -91.5 29.5t-32.5 85.5q0 23 6 51l59 286l-26 13l8 41h176l-73 -340q-6 -30 -6 -37q0 -32 38 -32q41 0 79.5 52.5t62 127t23.5 132.5v16
q-9 -4 -21 -4zM220 51q-51 -57 -121 -57q-48 0 -77.5 30t-29.5 90q0 25 8 65l68 321h144l-72 -340q-3 -12 -3 -25q0 -44 30 -44q28 0 48 23.5t32 64.5l68 321h143l-106 -500h-143z" />
    <glyph glyph-name="u_x" unicode="ux" horiz-adv-x="878" vert-adv-y="950" 
d="M826.5 32.5q-56.5 -38.5 -112.5 -38.5q-47 0 -72.5 31t-43.5 103q-106 -134 -235 -134q-43 0 -75 26t-40 70q-35 -56 -72 -76t-77 -20q-48 0 -77.5 30.5t-29.5 90.5q0 24 8 64l68 321h144l-72 -340q-3 -12 -3 -25q0 -44 30 -44q28 0 48 23.5t32 64.5l68 321h144l-72 -340
q-3 -13 -3 -25q0 -44 43 -44q38 0 82.5 27t77.5 67l-58 315h141l39 -216q45 48 70 90t25 69q0 9 -1 12q-14 -2 -17 -2q-25 0 -36 15.5t-11 40.5q0 22 16 34.5t40 12.5q32 0 50 -25t18 -64q0 -48 -33.5 -103.5t-109.5 -134.5l9 -50q1 -5 6.5 -31.5t18.5 -41.5t34 -15
q29 0 54 24.5t36 63.5h42q-37 -108 -93.5 -146.5z" />
    <glyph glyph-name="y_p" unicode="yp" horiz-adv-x="954" vert-adv-y="950" 
d="M448 2q-50 -2 -97 -11l-15 -71q-20 -97 -69 -133.5t-111 -36.5q-48 0 -80 25t-32 72q0 56 47.5 94t116.5 60l11 49q-29 -32 -59 -44t-61 -12q-48 0 -77.5 30t-29.5 90q0 25 8 65l68 321h144l-72 -340q-3 -12 -3 -25q0 -44 30 -44q26 0 46 22.5t32 59.5l70 327h144
l-98 -459q50 11 100 19l101 477h144l-16 -75q50 43 117 43q56 0 89 -37t33 -121q0 -79 -23 -159.5t-78 -137t-145 -56.5q-50 0 -92 3l-45 -211l-151 -36zM652 76q48 0 79.5 46t46 109.5t14.5 118.5q0 83 -50 83q-18 0 -36.5 -13t-32.5 -36l-65 -309q15 1 44 1zM99 -139
q0 -13 9 -23t25 -10q17 0 33 23t25 66l6 29q-98 -36 -98 -85z" />
    <glyph glyph-name="y_x" unicode="yx" horiz-adv-x="871" vert-adv-y="950" 
d="M820 33q-56 -38 -113 -38q-47 0 -72.5 31t-43.5 105q-49 -54 -109 -85.5t-131 -52.5l-15 -73q-20 -97 -69 -133.5t-111 -36.5q-48 0 -80 25t-32 72q0 57 45 90t118 56l13 58q-29 -33 -59 -44.5t-62 -11.5q-48 0 -77.5 29.5t-29.5 89.5q0 25 8 65l68 321h144l-72 -340
q-3 -12 -3 -25q0 -44 30 -44q28 0 48 23.5t32 64.5l68 321h144l-98 -461q58 19 110 54t107 99l-56 308h141l39 -216q45 48 70 90t25 69q0 9 -1 12q-14 -2 -17 -2q-25 0 -36 15.5t-11 40.5q0 22 16 34.5t40 12.5q32 0 50 -25t18 -64q0 -48 -33.5 -103.5t-109.5 -134.5l9 -50
q1 -5 6.5 -31.5t18.5 -41.5t34 -15q29 0 54 24.5t36 63.5h42q-37 -108 -93 -146zM125.5 -90q-26.5 -21 -26.5 -49q0 -13 9 -23t25 -10q17 0 33 23t25 66l6 30q-45 -16 -71.5 -37z" />
    <glyph glyph-name="y_z" unicode="yz" horiz-adv-x="888" vert-adv-y="950" 
d="M99 -6q-48 0 -77.5 30t-29.5 90q0 25 8 65l68 321h144l-72 -340q-3 -12 -3 -25q0 -44 30 -44q28 0 48 23.5t32 64.5l68 321h145l-122 -580q-20 -96 -70.5 -133t-111.5 -37q-47 0 -82.5 30.5t-35.5 77.5q0 44 22 72t57 44t94 34l10 44q-51 -58 -122 -58zM122 -66
q-29 -24 -29 -62q0 -12 12 -22.5t28 -10.5q18 0 34 18.5t25 59.5l12 59q-53 -18 -82 -42zM715 446h-56q-28 0 -41.5 -3t-13.5 -13q0 -2 5.5 -4.5t5.5 -17.5q0 -26 -16 -39.5t-38 -13.5q-19 0 -32.5 11.5t-13.5 32.5t14.5 45t41 40t60.5 16h257l-245 -423q6 0 22 -2
q34 -4 54 -4q43 0 47 20q-9 1 -14 6.5t-5 14.5q0 16 15 29.5t41 13.5q22 0 33 -13t11 -35q0 -24 -15 -49t-43 -41.5t-64 -16.5h-265z" />
    <glyph glyph-name="_0001" unicode="&#x430;&#x445;" horiz-adv-x="899" vert-adv-y="950" 
d="M847.5 32.5q-56.5 -38.5 -112.5 -38.5q-47 0 -72.5 31t-43.5 103q-106 -134 -235 -134q-43 0 -74.5 25t-39.5 69q-62 -94 -150 -94q-57 0 -95 39t-38 122q0 74 29.5 155.5t88 138t139.5 56.5q41 0 61 -14t20 -37v-7l11 53h144l-72 -340q-3 -13 -3 -25q0 -44 43 -44
q38 0 82.5 27t77.5 67l-58 315h141l39 -216q45 48 70 90t25 69q0 9 -1 12q-14 -2 -17 -2q-25 0 -36 15.5t-11 40.5q0 22 16 34.5t40 12.5q32 0 50 -25t18 -64q0 -48 -33.5 -103.5t-109.5 -134.5l9 -50q1 -5 6.5 -31.5t18.5 -41.5t34 -15q29 0 54 24.5t36 63.5h42
q-37 -108 -93.5 -146.5zM306 430.5q-10 12.5 -31 12.5q-40 0 -72 -46.5t-50 -112t-18 -115.5t14.5 -64t35.5 -14q25 0 49.5 23.5t33.5 64.5l48 226q0 13 -10 25.5z" />
    <glyph glyph-name="_0002" unicode="&#x430;&#x447;" horiz-adv-x="993" vert-adv-y="950" 
d="M404 128q0 -20 9.5 -28.5t31.5 -8.5q14 0 22 4q-22 -56 -42 -78.5t-58 -22.5q-41 0 -66.5 24.5t-31.5 68.5q-61 -93 -149 -93q-57 0 -95 39t-38 122q0 74 29.5 155.5t88 138t139.5 56.5q41 0 61 -14t20 -37v-7l11 53h144l-72 -340q-4 -15 -4 -32zM943.5 32.5
q-54.5 -38.5 -109.5 -38.5q-48 0 -77.5 30t-29.5 90q0 25 8 65l5 25q-29 -32 -59 -44t-61 -12q-48 0 -77.5 30t-29.5 90q0 25 8 65l35 167h144l-39 -186q-3 -15 -3 -28q0 -41 30 -41q29 0 50.5 24t29.5 64l35 167h144l-72 -340q-4 -15 -4 -32q0 -20 9.5 -28.5t31.5 -8.5
q28 0 48.5 24t32.5 64h42q-37 -108 -91.5 -146.5zM306 430.5q-10 12.5 -31 12.5q-40 0 -72 -46.5t-50 -112t-18 -115.5t14.5 -64t35.5 -14q25 0 49.5 23.5t33.5 64.5l48 226q0 13 -10 25.5z" />
    <glyph glyph-name="_0003" unicode="&#x431;&#x433;" horiz-adv-x="816" vert-adv-y="950" 
d="M737.5 43.5q-66.5 -49.5 -154.5 -49.5q-74 0 -114.5 28t-40.5 85q0 37 14.5 64.5t35.5 46t55 42.5q43 29 64 52.5t21 58.5q0 22 -11.5 34.5t-34.5 12.5q-81 0 -181 -190q-10 -20 -16 -30q-33 -64 -59.5 -104.5t-68.5 -69t-100 -28.5q-77 0 -118.5 41.5t-41.5 127.5
q0 78 32.5 149t94.5 115t146 44l17 -1q-16 19 -49 52q-37 36 -55 61.5t-18 56.5q0 38 26 56t82 18h152h31q26 0 38 3t19 12.5t13 32.5h44q-16 -78 -35 -116t-49.5 -52t-84.5 -14h-96q-6 0 -9.5 -2.5t-3.5 -9.5q0 -5 16 -23q37 -48 63 -99.5t27 -127.5q50 91 108 140t141 49
q58 0 95 -28t37 -85q0 -43 -16 -75t-39.5 -52.5t-58.5 -44.5q-39 -27 -57 -46.5t-18 -46.5q0 -53 71 -53q45 0 85.5 23t87.5 78h34q-54 -86 -120.5 -135.5zM253 136q27 50 39.5 113t12.5 97q0 38 -9 52t-29 14q-44 0 -74 -48t-45 -109t-15 -95q0 -43 11.5 -58.5t40.5 -15.5
q41 0 68 50z" />
    <glyph glyph-name="_0004" unicode="&#x431;&#x436;" horiz-adv-x="1261" vert-adv-y="950" 
d="M1221 48q-55 -54 -128 -54q-68 0 -107 43t-39 116q0 52 8 87h-57l-50 -240h-134l51 240h-57q-21 -101 -75 -173.5t-138 -72.5q-56 0 -79.5 26.5t-23.5 65.5q0 35 14.5 54t36.5 19q19 0 35 -12q-10 -33 -10 -59q0 -19 6 -30t17 -11q25 0 50.5 45.5t41.5 112t16 125.5
q0 52 -19 78.5t-48 26.5q-50 0 -87 -64t-73 -162l-10 -27q-35 -88 -87 -137t-128 -49q-77 0 -118.5 41.5t-41.5 127.5q0 78 32.5 149t94.5 115t146 44l17 -1q-16 19 -49 52q-37 36 -55 61.5t-18 56.5q0 38 26 56t82 18h152h31q26 0 38 3t19 12.5t13 32.5h44
q-16 -78 -35 -116t-49.5 -52t-84.5 -14h-96q-6 0 -9.5 -2.5t-3.5 -9.5q0 -3 7 -12t10 -13q35 -47 58 -89.5t29 -98.5q37 71 82 111.5t107 40.5q68 0 107 -43t39 -116q0 -23 -3 -50h60l42 200h134l-42 -200h56q27 91 78 150t127 59q56 0 79.5 -26.5t23.5 -65.5
q0 -35 -14.5 -54t-36.5 -19q-18 0 -35 12q10 33 10 59q0 19 -6 30t-17 11q-25 0 -50.5 -45.5t-41.5 -112t-16 -125.5q0 -53 20 -79t54 -26q37 0 68.5 28t49.5 83h42q-27 -77 -82 -131zM253 136q27 50 39.5 113t12.5 97q0 38 -9 52t-29 14q-44 0 -74 -48t-45 -109t-15 -95
q0 -43 11.5 -58.5t40.5 -15.5q41 0 68 50z" />
    <glyph glyph-name="_0005" unicode="&#x431;&#x44d;" horiz-adv-x="860" vert-adv-y="950" 
d="M550 300h120q2 26 2 38q0 49 -19.5 68t-59.5 19q-62 0 -125 -83t-129 -214q-31 -60 -81 -96t-111 -36q-77 0 -118.5 41.5t-41.5 127.5q0 78 32.5 149t94.5 115t146 44l17 -1q-16 19 -49 52q-37 36 -55 61.5t-18 56.5q0 38 26 56t82 18h152h31q26 0 38 3t19 12.5t13 32.5
h44q-16 -78 -35 -116t-49.5 -52t-84.5 -14h-96q-6 0 -9.5 -2.5t-3.5 -9.5q0 -4 18 -27q39 -51 65 -103.5t23 -117.5q47 83 110 135t158 52q77 0 120.5 -41t43.5 -123q0 -64 -31 -147t-96.5 -143.5t-161.5 -60.5q-67 0 -101.5 28t-34.5 78q0 40 16.5 62t41.5 22q22 0 37 -14
q-13 -35 -13 -68q0 -55 55 -55q41 0 76 56.5t53 136.5h-124zM253 136q27 50 39.5 113t12.5 97q0 38 -9 52t-29 14q-44 0 -74 -48t-45 -109t-15 -95q0 -43 11.5 -58.5t40.5 -15.5q41 0 68 50z" />
    <glyph glyph-name="_0006" unicode="&#x431;&#x453;" horiz-adv-x="816" vert-adv-y="950" 
d="M737.5 43.5q-66.5 -49.5 -154.5 -49.5q-74 0 -114.5 28t-40.5 85q0 37 14.5 64.5t35.5 46t55 42.5q43 29 64 52.5t21 58.5q0 22 -11.5 34.5t-34.5 12.5q-81 0 -181 -190q-10 -20 -16 -30q-33 -64 -59.5 -104.5t-68.5 -69t-100 -28.5q-77 0 -118.5 41.5t-41.5 127.5
q0 78 32.5 149t94.5 115t146 44l17 -1q-16 19 -49 52q-37 36 -55 61.5t-18 56.5q0 38 26 56t82 18h152h31q26 0 38 3t19 12.5t13 32.5h44q-16 -78 -35 -116t-49.5 -52t-84.5 -14h-96q-6 0 -9.5 -2.5t-3.5 -9.5q0 -5 16 -23q37 -48 63 -99.5t27 -127.5q50 91 108 140t141 49
q58 0 95 -28t37 -85q0 -43 -16 -75t-39.5 -52.5t-58.5 -44.5q-39 -27 -57 -46.5t-18 -46.5q0 -53 71 -53q45 0 85.5 23t87.5 78h34q-54 -86 -120.5 -135.5zM685 750h105l-121 -189h-75zM253 136q27 50 39.5 113t12.5 97q0 38 -9 52t-29 14q-44 0 -74 -48t-45 -109t-15 -95
q0 -43 11.5 -58.5t40.5 -15.5q41 0 68 50z" />
    <glyph glyph-name="_0007" unicode="&#x431;&#x456;" horiz-adv-x="697" vert-adv-y="950" 
d="M285.5 579.5q-3.5 -2.5 -3.5 -9.5q0 -4 17 -26q37 -45 63 -97t26 -122q0 -76 -29.5 -152.5t-84.5 -126.5t-127 -50q-77 0 -118.5 41.5t-41.5 127.5q0 78 32.5 149t94.5 115t146 44l17 -1q-16 19 -49 52q-37 36 -55 61.5t-18 56.5q0 38 26 56t82 18h102h31q26 0 38 3
t19 12.5t13 32.5h44q-16 -78 -35 -116t-49.5 -52t-84.5 -14h-46q-6 0 -9.5 -2.5zM653.5 577q-23.5 -23 -56.5 -23t-56 23t-23 56t23 56.5t56 23.5t56.5 -23.5t23.5 -56.5t-23.5 -56zM644 32.5q-58 -38.5 -115 -38.5q-48 0 -77.5 30t-29.5 90q0 25 8 65l68 321h144l-72 -340
q-4 -15 -4 -32q0 -20 9.5 -28.5t31.5 -8.5q29 0 54 24.5t36 63.5h42q-37 -108 -95 -146.5zM253 136q27 50 39.5 113t12.5 97q0 38 -9 52t-29 14q-44 0 -74 -48t-45 -109t-15 -95q0 -43 11.5 -58.5t40.5 -15.5q41 0 68 50z" />
    <glyph glyph-name="_0008" unicode="&#x431;&#x457;" horiz-adv-x="697" vert-adv-y="950" 
d="M285.5 579.5q-3.5 -2.5 -3.5 -9.5q0 -4 17 -26q37 -45 63 -97t26 -122q0 -76 -29.5 -152.5t-84.5 -126.5t-127 -50q-77 0 -118.5 41.5t-41.5 127.5q0 78 32.5 149t94.5 115t146 44l17 -1q-16 19 -49 52q-37 36 -55 61.5t-18 56.5q0 38 26 56t82 18h84h31q26 0 38 3
t19 12.5t13 32.5h44q-16 -78 -35 -116t-49.5 -52t-84.5 -14h-28q-6 0 -9.5 -2.5zM503.5 590.5q-17.5 17.5 -17.5 43.5q0 25 17.5 43t43.5 18q25 0 43 -18t18 -43q0 -26 -18 -43.5t-43 -17.5q-26 0 -43.5 17.5zM653.5 590.5q-17.5 17.5 -17.5 43.5q0 25 17.5 43t43.5 18
q25 0 43 -18t18 -43q0 -26 -18 -43.5t-43 -17.5q-26 0 -43.5 17.5zM644 32.5q-58 -38.5 -115 -38.5q-48 0 -77.5 30t-29.5 90q0 25 8 65l68 321h144l-72 -340q-4 -15 -4 -32q0 -20 9.5 -28.5t31.5 -8.5q29 0 54 24.5t36 63.5h42q-37 -108 -95 -146.5zM253 136
q27 50 39.5 113t12.5 97q0 38 -9 52t-29 14q-44 0 -74 -48t-45 -109t-15 -95q0 -43 11.5 -58.5t40.5 -15.5q41 0 68 50z" />
    <glyph glyph-name="_0009" unicode="&#x431;&#x458;" horiz-adv-x="669" vert-adv-y="950" 
d="M285.5 579.5q-3.5 -2.5 -3.5 -9.5q0 -4 17 -26q37 -45 63 -97t26 -122q0 -76 -29.5 -152.5t-84.5 -126.5t-127 -50q-77 0 -118.5 41.5t-41.5 127.5q0 78 32.5 149t94.5 115t146 44l17 -1q-16 19 -49 52q-37 36 -55 61.5t-18 56.5q0 38 26 56t82 18h102h31q26 0 38 3
t19 12.5t13 32.5h44q-16 -78 -35 -116t-49.5 -52t-84.5 -14h-46q-6 0 -9.5 -2.5zM644.5 578q-23.5 -23 -56.5 -23t-56 23t-23 56t23 56.5t56 23.5t56.5 -23.5t23.5 -56.5t-23.5 -56zM450 -213.5q-49 -36.5 -111 -36.5q-48 0 -80 25t-32 72q0 57 46 91.5t117 57.5l108 504
h144l-99 -464q48 16 77 48t49 95h42q-27 -89 -73 -130.5t-104 -56.5l-15 -72q-20 -97 -69 -133.5zM253 136q27 50 39.5 113t12.5 97q0 38 -9 52t-29 14q-44 0 -74 -48t-45 -109t-15 -95q0 -43 11.5 -58.5t40.5 -15.5q41 0 68 50zM282 -139q0 -13 9 -23t25 -10q17 0 33 23
t25 66l6 29q-98 -36 -98 -85z" />
    <glyph glyph-name="_0010" unicode="&#x431;&#x45e;" horiz-adv-x="916" vert-adv-y="950" 
d="M285.5 579.5q-3.5 -2.5 -3.5 -9.5q0 -4 17 -26q37 -45 63 -97t26 -122q0 -76 -29.5 -152.5t-84.5 -126.5t-127 -50q-77 0 -118.5 41.5t-41.5 127.5q0 78 32.5 149t94.5 115t146 44l17 -1q-16 19 -49 52q-37 36 -55 61.5t-18 56.5q0 38 26 56t82 18h132h31q26 0 38 3
t19 12.5t13 32.5h44q-16 -78 -35 -116t-49.5 -52t-84.5 -14h-76q-6 0 -9.5 -2.5zM817.5 587q-51.5 -38 -127.5 -38q-62 0 -96 23t-34 63q0 33 18.5 53t48.5 20q29 0 45.5 -14t16.5 -40q0 -32 -24 -48q13 -4 40 -4q48 0 89 27t65 90h42q-32 -94 -83.5 -132zM697 -213.5
q-49 -36.5 -111 -36.5q-48 0 -80 25t-32 72q0 57 46 91.5t117 57.5l12 54q-29 -32 -59 -44t-61 -12q-48 0 -77.5 30t-29.5 90q0 25 8 65l68 321h144l-72 -340q-3 -12 -3 -25q0 -44 30 -44q26 0 46 22.5t32 59.5l70 327h144l-99 -464q48 16 77 48t49 95h42
q-27 -89 -73 -130.5t-104 -56.5l-15 -72q-20 -97 -69 -133.5zM253 136q27 50 39.5 113t12.5 97q0 38 -9 52t-29 14q-44 0 -74 -48t-45 -109t-15 -95q0 -43 11.5 -58.5t40.5 -15.5q41 0 68 50zM529 -139q0 -13 9 -23t25 -10q17 0 33 23t25 66l6 29q-98 -36 -98 -85z" />
    <glyph glyph-name="_0011" unicode="&#x431;&#x451;" horiz-adv-x="814" vert-adv-y="950" 
d="M285.5 579.5q-3.5 -2.5 -3.5 -9.5q0 -4 17 -26q37 -45 63 -97t26 -122q0 -76 -29.5 -152.5t-84.5 -126.5t-127 -50q-77 0 -118.5 41.5t-41.5 127.5q0 78 32.5 149t94.5 115t146 44l17 -1q-16 19 -49 52q-37 36 -55 61.5t-18 56.5q0 38 26 56t82 18h122h31q26 0 38 3
t19 12.5t13 32.5h44q-16 -78 -35 -116t-49.5 -52t-84.5 -14h-66q-6 0 -9.5 -2.5zM566.5 590.5q-17.5 17.5 -17.5 43.5q0 25 17.5 43t43.5 18q25 0 43 -18t18 -43q0 -26 -18 -43.5t-43 -17.5q-26 0 -43.5 17.5zM746.5 590.5q-17.5 17.5 -17.5 43.5q0 25 17.5 43t43.5 18
q25 0 43 -18t18 -43q0 -26 -18 -43.5t-43 -17.5q-26 0 -43.5 17.5zM573 -6q-74 0 -115 38.5t-41 120.5q0 69 27 152t88 143.5t155 60.5q110 0 110 -96q0 -56 -32 -103t-85 -75.5t-113 -32.5q-2 -30 -2 -40q0 -49 17 -66.5t55 -17.5q54 0 92.5 25t84.5 76h34
q-111 -185 -275 -185zM645.5 276q33.5 24 54 61t20.5 78t-25 41q-36 0 -70.5 -63t-49.5 -143q37 2 70.5 26zM253 136q27 50 39.5 113t12.5 97q0 38 -9 52t-29 14q-44 0 -74 -48t-45 -109t-15 -95q0 -43 11.5 -58.5t40.5 -15.5q41 0 68 50z" />
    <glyph glyph-name="_0012" unicode="&#x431;&#x439;" horiz-adv-x="935" vert-adv-y="950" 
d="M285.5 579.5q-3.5 -2.5 -3.5 -9.5q0 -4 17 -26q37 -45 63 -97t26 -122q0 -76 -29.5 -152.5t-84.5 -126.5t-127 -50q-77 0 -118.5 41.5t-41.5 127.5q0 78 32.5 149t94.5 115t146 44l17 -1q-16 19 -49 52q-37 36 -55 61.5t-18 56.5q0 38 26 56t82 18h132h31q26 0 38 3
t19 12.5t13 32.5h44q-16 -78 -35 -116t-49.5 -52t-84.5 -14h-76q-6 0 -9.5 -2.5zM817.5 587q-51.5 -38 -127.5 -38q-62 0 -96 23t-34 63q0 33 18.5 53t48.5 20q29 0 45.5 -14t16.5 -40q0 -32 -24 -48q13 -4 40 -4q48 0 89 27t65 90h42q-32 -94 -83.5 -132zM885.5 32.5
q-54.5 -38.5 -109.5 -38.5q-43 0 -68.5 24t-30.5 71q-34 -55 -71.5 -75t-76.5 -20q-48 0 -77.5 30t-29.5 90q0 25 8 65l68 321h144l-72 -340q-3 -15 -3 -28q0 -41 30 -41q28 0 48 23.5t32 64.5l68 321h144l-72 -340q-4 -15 -4 -32q0 -20 9.5 -28.5t31.5 -8.5q28 0 48.5 24
t32.5 64h42q-37 -108 -91.5 -146.5zM253 136q27 50 39.5 113t12.5 97q0 38 -9 52t-29 14q-44 0 -74 -48t-45 -109t-15 -95q0 -43 11.5 -58.5t40.5 -15.5q41 0 68 50z" />
    <glyph glyph-name="_0014" unicode="&#x432;&#x433;" horiz-adv-x="837" vert-adv-y="950" 
d="M750.5 43.5q-66.5 -49.5 -154.5 -49.5q-74 0 -114.5 28t-40.5 85q0 37 14.5 64.5t35.5 46t55 42.5q43 29 64 52.5t21 58.5q0 22 -11 34.5t-31 12.5q-26 0 -55.5 -14t-87.5 -49q-28 -18 -67 -40q11 -30 11 -66q0 -67 -29 -125t-83 -93t-126 -35q-83 0 -124.5 49t-41.5 131
q0 80 43 220.5t114 247.5t153 107q110 0 110 -137q0 -97 -82 -240q13 -6 31 -22q22 12 74 51q67 51 119 78.5t111 27.5q55 0 89 -30.5t34 -82.5q0 -43 -16 -75t-39.5 -52.5t-58.5 -44.5q-39 -27 -57 -46.5t-18 -46.5q0 -53 71 -53q45 0 85.5 23t87.5 78h34
q-54 -86 -120.5 -135.5zM275 276.5q-8 -1.5 -21 -1.5q-24 0 -38 13t-14 36q0 30 18.5 44t51.5 16q29 53 49.5 117.5t20.5 116.5q0 30 -7.5 42.5t-25.5 12.5q-39 0 -79.5 -97t-67.5 -221t-27 -182q0 -87 61 -87q31 0 54.5 21t36 53t12.5 66q0 37 -9 55q-7 -3 -15 -4.5z" />
    <glyph glyph-name="_0015" unicode="&#x432;&#x453;" horiz-adv-x="837" vert-adv-y="950" 
d="M750.5 43.5q-66.5 -49.5 -154.5 -49.5q-74 0 -114.5 28t-40.5 85q0 37 14.5 64.5t35.5 46t55 42.5q43 29 64 52.5t21 58.5q0 22 -11 34.5t-31 12.5q-26 0 -55.5 -14t-87.5 -49q-28 -18 -67 -40q11 -30 11 -66q0 -67 -29 -125t-83 -93t-126 -35q-83 0 -124.5 49t-41.5 131
q0 80 43 220.5t114 247.5t153 107q110 0 110 -137q0 -97 -82 -240q13 -6 31 -22q22 12 74 51q67 51 119 78.5t111 27.5q55 0 89 -30.5t34 -82.5q0 -43 -16 -75t-39.5 -52.5t-58.5 -44.5q-39 -27 -57 -46.5t-18 -46.5q0 -53 71 -53q45 0 85.5 23t87.5 78h34
q-54 -86 -120.5 -135.5zM698 750h105l-121 -189h-75zM275 276.5q-8 -1.5 -21 -1.5q-24 0 -38 13t-14 36q0 30 18.5 44t51.5 16q29 53 49.5 117.5t20.5 116.5q0 30 -7.5 42.5t-25.5 12.5q-39 0 -79.5 -97t-67.5 -221t-27 -182q0 -87 61 -87q31 0 54.5 21t36 53t12.5 66
q0 37 -9 55q-7 -3 -15 -4.5z" />
    <glyph glyph-name="_0016" unicode="&#x432;&#x436;" horiz-adv-x="1279" vert-adv-y="950" 
d="M1239 48q-55 -54 -128 -54q-68 0 -107 43t-39 116q0 52 8 87h-57l-50 -240h-134l51 240h-57q-21 -101 -75 -173.5t-138 -72.5q-56 0 -79.5 26.5t-23.5 65.5q0 35 14.5 54t36.5 19q19 0 35 -12q-10 -33 -10 -59q0 -19 6 -30t17 -11q25 0 50.5 45.5t41.5 112t16 125.5
q0 56 -13.5 80.5t-40.5 24.5q-34 0 -82.5 -29t-102.5 -90q12 -33 12 -67q0 -67 -29 -125t-83 -93t-126 -35q-83 0 -124.5 49t-41.5 131q0 80 43 220.5t114 247.5t153 107q110 0 110 -137q0 -97 -82 -240q17 -8 30 -21q73 88 133.5 122t115.5 34q59 0 97.5 -43.5t38.5 -115.5
q0 -23 -3 -50h60l42 200h134l-42 -200h56q27 91 78 150t127 59q56 0 79.5 -26.5t23.5 -65.5q0 -35 -14.5 -54t-36.5 -19q-18 0 -35 12q10 33 10 59q0 19 -6 30t-17 11q-25 0 -50.5 -45.5t-41.5 -112t-16 -125.5q0 -53 20 -79t54 -26q37 0 68.5 28t49.5 83h42
q-27 -77 -82 -131zM275 276.5q-8 -1.5 -21 -1.5q-24 0 -38 13t-14 36q0 30 18.5 44t51.5 16q29 53 49.5 117.5t20.5 116.5q0 30 -7.5 42.5t-25.5 12.5q-39 0 -79.5 -97t-67.5 -221t-27 -182q0 -87 61 -87q31 0 54.5 21t36 53t12.5 66q0 37 -9 55q-7 -3 -15 -4.5z" />
    <glyph glyph-name="_0017" unicode="&#x432;&#x437;" horiz-adv-x="824" vert-adv-y="950" 
d="M791 46q-48 -42 -108 -57q-2 -112 -53.5 -175.5t-135.5 -63.5q-48 0 -80 25t-32 72q0 97 157 147q-3 106 -72 106h-31l13 60h29q35 0 63.5 23.5t44 65t15.5 93.5q0 76 -51 76q-29 0 -61.5 -19.5t-93.5 -64.5l-20 -15q15 -33 15 -70q0 -67 -29 -125t-83 -93t-126 -35
q-83 0 -124.5 49t-41.5 131q0 80 43 220.5t114 247.5t153 107q110 0 110 -137q0 -97 -82 -240q13 -6 25 -18q8 7 16 14.5t17 15.5q58 56 109 89.5t113 33.5q73 0 110.5 -43.5t37.5 -115.5q0 -60 -28.5 -108.5t-65.5 -78t-61 -34.5q26 -9 49.5 -36t32.5 -64q57 17 89.5 49
t55.5 101h42q-27 -91 -75 -133zM275 276.5q-8 -1.5 -21 -1.5q-24 0 -38 13t-14 36q0 30 18.5 44t51.5 16q29 53 49.5 117.5t20.5 116.5q0 30 -7.5 42.5t-25.5 12.5q-39 0 -79.5 -97t-67.5 -221t-27 -182q0 -87 61 -87q31 0 54.5 21t36 53t12.5 66q0 37 -9 55q-7 -3 -15 -4.5
zM437 -139q0 -15 8.5 -24t25.5 -9q21 0 40 35t25 83q-99 -34 -99 -85z" />
    <glyph glyph-name="_0018" unicode="&#x432;&#x445;" horiz-adv-x="851" vert-adv-y="950" 
d="M801 34.5q-56 -40.5 -112 -40.5q-46 0 -76.5 42t-45.5 132l-138 -168h-72l202 228l-16 112q-8 48 -16 65.5t-20 17.5q-20 0 -43.5 -18.5t-89.5 -84.5q16 -33 16 -71q0 -67 -29 -125t-83 -93t-126 -35q-83 0 -124.5 49t-41.5 131q0 80 43 220.5t114 247.5t153 107
q110 0 110 -137q0 -97 -82 -240q13 -6 25 -18q16 14 47 45q54 53 91.5 78.5t84.5 25.5q53 0 74.5 -34.5t26.5 -84.5l11 -89q49 53 72.5 90.5t25.5 66.5q-14 -2 -17 -2q-25 0 -36 15.5t-11 40.5t19.5 37t48.5 12q26 0 41 -27.5t15 -63.5q0 -44 -32.5 -90.5t-118.5 -139.5
l8 -58q6 -48 20.5 -67.5t41.5 -19.5q29 0 54 24.5t36 63.5h42q-36 -104 -92 -144.5zM275 276.5q-8 -1.5 -21 -1.5q-24 0 -38 13t-14 36q0 30 18.5 44t51.5 16q29 53 49.5 117.5t20.5 116.5q0 30 -7.5 42.5t-25.5 12.5q-39 0 -79.5 -97t-67.5 -221t-27 -182q0 -87 61 -87
q31 0 54.5 21t36 53t12.5 66q0 37 -9 55q-7 -3 -15 -4.5z" />
    <glyph glyph-name="_0019" unicode="&#x433;&#x437;" horiz-adv-x="840" vert-adv-y="950" 
d="M807 46q-48 -42 -108 -57q-2 -112 -53.5 -175.5t-135.5 -63.5q-48 0 -80 25t-32 72q0 97 157 147q-3 106 -72 106h-31l13 60h29q35 0 63 23t44 62.5t16 86.5q0 36 -12.5 61t-43.5 25q-30 0 -55.5 -21.5t-49.5 -61.5t-63 -117q-39 -76 -71.5 -121.5t-80.5 -74t-117 -28.5
q-66 0 -105.5 28t-39.5 85q0 37 16.5 64.5t39.5 46t61 42.5q48 29 71.5 52.5t23.5 58.5q0 22 -11.5 34.5t-34.5 12.5q-33 0 -59 -25t-49 -79h-48q33 94 84 144.5t134 50.5q58 0 96.5 -28t38.5 -85q0 -43 -18 -75t-44 -52.5t-65 -44.5q-44 -27 -64 -46.5t-20 -46.5t17 -40
t44 -13q51 0 87.5 40.5t75.5 116.5l25 50q39 78 67.5 122t72.5 73t107 29q65 0 103 -42t38 -117q0 -60 -28.5 -108.5t-65.5 -78t-61 -34.5q26 -9 49.5 -36t32.5 -64q57 17 89.5 49t55.5 101h42q-27 -91 -75 -133zM453 -139q0 -15 8.5 -24t25.5 -9q21 0 40 35t25 83
q-99 -34 -99 -85z" />
    <glyph glyph-name="_0020" unicode="&#x433;&#x445;" horiz-adv-x="740" vert-adv-y="950" 
d="M689.5 32.5q-55.5 -38.5 -110.5 -38.5q-50 0 -77.5 38t-47.5 128q-83 -79 -160.5 -122.5t-165.5 -43.5q-69 0 -109 28t-40 85q0 37 16.5 64.5t39.5 46t61 42.5q48 29 71.5 52.5t23.5 58.5q0 22 -11.5 34.5t-34.5 12.5q-33 0 -59 -25t-49 -79h-48q33 94 84 144.5t134 50.5
q58 0 96.5 -28t38.5 -85q0 -43 -18 -75t-44 -52.5t-65 -44.5q-44 -27 -64 -46.5t-20 -46.5q0 -53 71 -53q55 0 111.5 35.5t128.5 99.5l-64 287h141l45 -202q51 47 76.5 82t25.5 63q0 9 -1 12q-14 -2 -17 -2q-25 0 -36 15.5t-11 40.5q0 22 16 34.5t40 12.5q32 0 50 -25
t18 -64q0 -50 -34.5 -101.5t-114.5 -122.5l15 -64q1 -4 6.5 -31t19 -42t33.5 -15q29 0 54 24.5t36 63.5h42q-37 -108 -92.5 -146.5z" />
    <glyph glyph-name="_0021" unicode="&#x433;&#x447;" horiz-adv-x="880" vert-adv-y="950" 
d="M830.5 32.5q-54.5 -38.5 -109.5 -38.5q-48 0 -77.5 30t-29.5 90q0 25 8 65l5 25q-29 -32 -59 -44t-61 -12q-73 0 -97 61q-48 -92 -122 -153.5t-154 -61.5q-155 0 -155 113q0 37 16.5 64.5t39.5 46t61 42.5q48 29 71.5 52.5t23.5 58.5q0 22 -11.5 34.5t-34.5 12.5
q-33 0 -59 -25t-49 -79h-48q33 94 84 144.5t134 50.5q58 0 96.5 -28t38.5 -85q0 -43 -18 -75t-44 -52.5t-65 -44.5q-44 -27 -64 -46.5t-20 -46.5q0 -28 18 -40.5t53 -12.5q34 0 75 32.5t76 88t52 122.5l3 12l35 167h144l-39 -186q-3 -15 -3 -28q0 -41 30 -41q29 0 50.5 24
t29.5 64l35 167h144l-72 -340q-4 -15 -4 -32q0 -20 9.5 -28.5t31.5 -8.5q28 0 48.5 24t32.5 64h42q-37 -108 -91.5 -146.5z" />
    <glyph glyph-name="_0022" unicode="&#x453;&#x437;" horiz-adv-x="840" vert-adv-y="950" 
d="M296 750h105l-121 -189h-75zM807 46q-48 -42 -108 -57q-2 -112 -53.5 -175.5t-135.5 -63.5q-48 0 -80 25t-32 72q0 97 157 147q-3 106 -72 106h-31l13 60h29q35 0 63 23t44 62.5t16 86.5q0 36 -12.5 61t-43.5 25q-30 0 -55.5 -21.5t-49.5 -61.5t-63 -117
q-39 -76 -71.5 -121.5t-80.5 -74t-117 -28.5q-66 0 -105.5 28t-39.5 85q0 37 16.5 64.5t39.5 46t61 42.5q48 29 71.5 52.5t23.5 58.5q0 22 -11.5 34.5t-34.5 12.5q-33 0 -59 -25t-49 -79h-48q33 94 84 144.5t134 50.5q58 0 96.5 -28t38.5 -85q0 -43 -18 -75t-44 -52.5
t-65 -44.5q-44 -27 -64 -46.5t-20 -46.5t17 -40t44 -13q51 0 87.5 40.5t75.5 116.5l25 50q39 78 67.5 122t72.5 73t107 29q65 0 103 -42t38 -117q0 -60 -28.5 -108.5t-65.5 -78t-61 -34.5q26 -9 49.5 -36t32.5 -64q57 17 89.5 49t55.5 101h42q-27 -91 -75 -133zM453 -139
q0 -15 8.5 -24t25.5 -9q21 0 40 35t25 83q-99 -34 -99 -85z" />
    <glyph glyph-name="_0023" unicode="&#x453;&#x445;" horiz-adv-x="740" vert-adv-y="950" 
d="M296 750h105l-121 -189h-75zM689.5 32.5q-55.5 -38.5 -110.5 -38.5q-50 0 -77.5 38t-47.5 128q-83 -79 -160.5 -122.5t-165.5 -43.5q-69 0 -109 28t-40 85q0 37 16.5 64.5t39.5 46t61 42.5q48 29 71.5 52.5t23.5 58.5q0 22 -11.5 34.5t-34.5 12.5q-33 0 -59 -25t-49 -79
h-48q33 94 84 144.5t134 50.5q58 0 96.5 -28t38.5 -85q0 -43 -18 -75t-44 -52.5t-65 -44.5q-44 -27 -64 -46.5t-20 -46.5q0 -53 71 -53q55 0 111.5 35.5t128.5 99.5l-64 287h141l45 -202q51 47 76.5 82t25.5 63q0 9 -1 12q-14 -2 -17 -2q-25 0 -36 15.5t-11 40.5
q0 22 16 34.5t40 12.5q32 0 50 -25t18 -64q0 -50 -34.5 -101.5t-114.5 -122.5l15 -64q1 -4 6.5 -31t19 -42t33.5 -15q29 0 54 24.5t36 63.5h42q-37 -108 -92.5 -146.5z" />
    <glyph glyph-name="_0024" unicode="&#x453;&#x447;" horiz-adv-x="880" vert-adv-y="950" 
d="M296 750h105l-121 -189h-75zM830.5 32.5q-54.5 -38.5 -109.5 -38.5q-48 0 -77.5 30t-29.5 90q0 25 8 65l5 25q-29 -32 -59 -44t-61 -12q-73 0 -97 61q-48 -92 -122 -153.5t-154 -61.5q-155 0 -155 113q0 37 16.5 64.5t39.5 46t61 42.5q48 29 71.5 52.5t23.5 58.5
q0 22 -11.5 34.5t-34.5 12.5q-33 0 -59 -25t-49 -79h-48q33 94 84 144.5t134 50.5q58 0 96.5 -28t38.5 -85q0 -43 -18 -75t-44 -52.5t-65 -44.5q-44 -27 -64 -46.5t-20 -46.5q0 -28 18 -40.5t53 -12.5q34 0 75 32.5t76 88t52 122.5l38 179h144l-39 -186q-3 -15 -3 -28
q0 -41 30 -41q29 0 50.5 24.5t29.5 63.5l35 167h144l-72 -340q-4 -15 -4 -32q0 -20 9.5 -28.5t31.5 -8.5q28 0 48.5 24t32.5 64h42q-37 -108 -91.5 -146.5z" />
    <glyph glyph-name="_0025" unicode="&#x434;&#x447;" horiz-adv-x="1010" vert-adv-y="950" 
d="M960.5 32.5q-54.5 -38.5 -109.5 -38.5q-48 0 -77.5 30t-29.5 90q0 25 8 65l5 25q-29 -32 -59 -44t-61 -12q-58 0 -87 41q-21 -91 -69.5 -135.5t-108.5 -61.5l-15 -72q-20 -97 -69 -133.5t-111 -36.5q-48 0 -80 25t-32 72q0 57 46 91.5t117 57.5l12 53q-51 -55 -120 -55
q-57 0 -95 39t-38 122q0 74 29.5 155.5t88 138t139.5 56.5q41 0 61 -14t20 -37v-6l11 52h144l-99 -464q53 19 85 58.5t47 113.5l60 292h144l-39 -186q-3 -15 -3 -28q0 -41 30 -41q29 0 50.5 24.5t29.5 63.5l35 167h144l-72 -340q-4 -15 -4 -32q0 -20 9.5 -28.5t31.5 -8.5
q28 0 48.5 24t32.5 64h42q-37 -108 -91.5 -146.5zM306 430.5q-10 12.5 -31 12.5q-40 0 -72 -46.5t-50 -112t-18 -115.5t14.5 -64t35.5 -14q23 0 47 21t33 57l51 237q0 12 -10 24.5zM120 -139q0 -13 9 -23t25 -10q17 0 33 23t25 66l6 29q-98 -36 -98 -85z" />
    <glyph glyph-name="_0026" unicode="&#x434;&#x458;" horiz-adv-x="746" vert-adv-y="950" 
d="M721.5 578q-23.5 -23 -56.5 -23t-56 23t-23 56t23 56.5t56 23.5t56.5 -23.5t23.5 -56.5t-23.5 -56zM526.5 -213.5q-49.5 -36.5 -111.5 -36.5q-40 0 -66.5 15.5t-39.5 43.5q-49 -59 -132 -59q-48 0 -80 25t-32 72q0 56 43 88t118 48l14 67q-52 -56 -120 -56q-57 0 -95 39
t-38 122q0 74 29.5 155.5t88 138t139.5 56.5q41 0 61 -14t20 -37v-7l11 53h144l-106 -496q31 2 46 5l51 5l104 486h144l-98 -459q48 16 79.5 48.5t45.5 89.5h42q-23 -82 -66 -123.5t-110 -58.5l-16 -77q-20 -97 -69.5 -133.5zM316 405q0 13 -10 25.5t-31 12.5
q-40 0 -72 -46.5t-50 -112t-18 -115.5t14.5 -64t35.5 -14q24 0 48 21.5t33 59.5l2 7zM418 -31l-52 -5l-9 -44q-5 -27 -21 -64q16 -17 44 -17t45 17.5t26 60.5l12 57q-30 -2 -45 -5zM145.5 -91q-25.5 -19 -25.5 -48q0 -13 9 -23t25 -10q17 0 33 23t25 66l5 23
q-46 -12 -71.5 -31z" />
    <glyph glyph-name="_0041" unicode="&#x451;&#x437;" horiz-adv-x="876" vert-adv-y="950" 
d="M136.5 590.5q-17.5 17.5 -17.5 43.5q0 25 17.5 43t43.5 18q25 0 43 -18t18 -43q0 -26 -18 -43.5t-43 -17.5q-26 0 -43.5 17.5zM316.5 590.5q-17.5 17.5 -17.5 43.5q0 25 17.5 43t43.5 18q25 0 43 -18t18 -43q0 -26 -18 -43.5t-43 -17.5q-26 0 -43.5 17.5zM843 46
q-48 -42 -108 -57q-2 -112 -53.5 -175.5t-135.5 -63.5q-48 0 -80 25t-32 72q0 97 157 147q-3 106 -72 106h-31l13 60h29q35 0 63 23t44 62.5t16 86.5q0 86 -61 86q-45 0 -79 -35.5t-70 -122.5q-33 -79 -69.5 -135.5t-93.5 -93.5t-137 -37q-74 0 -115 38.5t-41 120.5
q0 69 27 152t88 143.5t155 60.5q110 0 110 -96q0 -56 -32 -103t-85 -75.5t-113 -32.5q-2 -30 -2 -40q0 -49 17 -66.5t55 -17.5q53 0 89 25t59 64t49 101q3 7 5.5 12.5t4.5 9.5q34 78 59 120.5t67 70.5t106 28q73 0 115.5 -42t42.5 -117q0 -60 -28.5 -108.5t-65.5 -78
t-61 -34.5q26 -9 49.5 -36t32.5 -64q57 17 89.5 49t55.5 101h42q-27 -91 -75 -133zM215.5 276q33.5 24 54 61t20.5 78t-25 41q-36 0 -70.5 -63t-49.5 -143q37 2 70.5 26zM489 -139q0 -15 8.5 -24t25.5 -9q21 0 40 35t25 83q-99 -34 -99 -85z" />
    <glyph glyph-name="_0028" unicode="&#x435;&#x447;" horiz-adv-x="889" vert-adv-y="950" 
d="M839.5 32.5q-54.5 -38.5 -109.5 -38.5q-48 0 -77.5 30t-29.5 90q0 25 8 65l5 25q-29 -32 -59 -44t-61 -12q-73 0 -97 61q-47 -89 -120.5 -152t-155.5 -63q-74 0 -115 38.5t-41 120.5q0 69 27 152t88 143.5t155 60.5q110 0 110 -96q0 -56 -32 -103t-85 -75.5t-113 -32.5
q-2 -30 -2 -40q0 -48 16.5 -66t51.5 -18q38 0 83 35t81 94t50 126l35 167h144l-39 -186q-3 -15 -3 -28q0 -41 30 -41q29 0 50.5 24.5t29.5 63.5l35 167h144l-72 -340q-4 -15 -4 -32q0 -20 9.5 -28.5t31.5 -8.5q28 0 48.5 24t32.5 64h42q-37 -108 -91.5 -146.5zM215.5 276
q33.5 24 54 61t20.5 78t-25 41q-36 0 -70.5 -63t-49.5 -143q37 2 70.5 26z" />
    <glyph glyph-name="_0030" unicode="&#x451;&#x447;" horiz-adv-x="889" vert-adv-y="950" 
d="M136.5 590.5q-17.5 17.5 -17.5 43.5q0 25 17.5 43t43.5 18q25 0 43 -18t18 -43q0 -26 -18 -43.5t-43 -17.5q-26 0 -43.5 17.5zM316.5 590.5q-17.5 17.5 -17.5 43.5q0 25 17.5 43t43.5 18q25 0 43 -18t18 -43q0 -26 -18 -43.5t-43 -17.5q-26 0 -43.5 17.5zM839.5 32.5
q-54.5 -38.5 -109.5 -38.5q-48 0 -77.5 30t-29.5 90q0 25 8 65l5 25q-29 -32 -59 -44t-61 -12q-73 0 -97 61q-47 -89 -120.5 -152t-155.5 -63q-74 0 -115 38.5t-41 120.5q0 69 27 152t88 143.5t155 60.5q110 0 110 -96q0 -56 -32 -103t-85 -75.5t-113 -32.5q-2 -30 -2 -40
q0 -48 16.5 -66t51.5 -18q50 0 95 43t76.5 103t42.5 109l35 167h144l-39 -186q-3 -15 -3 -28q0 -41 30 -41q29 0 50.5 24.5t29.5 63.5l35 167h144l-72 -340q-4 -15 -4 -32q0 -20 9.5 -28.5t31.5 -8.5q28 0 48.5 24t32.5 64h42q-37 -108 -91.5 -146.5zM215.5 276
q33.5 24 54 61t20.5 78t-25 41q-36 0 -70.5 -63t-49.5 -143q37 2 70.5 26z" />
    <glyph glyph-name="_0032" unicode="&#x436;&#x447;" horiz-adv-x="1392" vert-adv-y="950" 
d="M1337.5 32.5q-54.5 -38.5 -109.5 -38.5q-48 0 -77.5 30t-29.5 90q0 25 8 65l5 25q-29 -32 -59 -44t-61 -12q-71 0 -95 56q-37 -87 -95.5 -148.5t-139.5 -61.5q-68 0 -107 43t-39 116q0 52 8 87h-57l-50 -240h-134l51 240h-56q-21 -102 -76 -174t-142 -72
q-62 0 -90.5 30.5t-28.5 75.5q0 40 17 62t42 22q22 0 36 -14q-13 -35 -13 -66q0 -29 11 -43t25 -14q27 0 52 45t41 112t16 126q0 105 -61 105q-28 0 -45 -18t-32 -57h-52q22 73 60.5 111t105.5 38q68 0 107 -43t39 -116q0 -24 -3 -50h60l42 200h134l-42 -200h56
q27 91 78 150t127 59q56 0 79.5 -26.5t23.5 -65.5q0 -35 -14.5 -54t-36.5 -19q-18 0 -35 12q10 33 10 59q0 19 -6 30t-17 11q-25 0 -50.5 -45.5t-41.5 -112t-16 -125.5q0 -53 20 -79t54 -26q32 0 69 38t67.5 100t44.5 129l35 165h144l-39 -186q-3 -15 -3 -28q0 -41 30 -41
q29 0 50 23.5t29 62.5l36 169h144l-72 -340q-4 -15 -4 -32q0 -20 9.5 -28.5t31.5 -8.5q28 0 48.5 24t32.5 64h42q-37 -108 -91.5 -146.5z" />
    <glyph glyph-name="_0034" unicode="&#x438;&#x447;" horiz-adv-x="1010" vert-adv-y="950" 
d="M960.5 32.5q-54.5 -38.5 -109.5 -38.5q-48 0 -77.5 30t-29.5 90q0 25 8 65l5 25q-29 -32 -59 -44t-61 -12q-59 0 -87 42q-28 -89 -78.5 -142.5t-125.5 -53.5q-43 0 -68.5 24t-30.5 71q-34 -55 -71.5 -75t-76.5 -20q-48 0 -77.5 30t-29.5 90q0 25 8 65l68 321h144
l-72 -340q-3 -15 -3 -28q0 -41 30 -41q28 0 48 23.5t32 64.5l68 321h144l-72 -340q-4 -15 -4 -32q0 -20 9.5 -28.5t31.5 -8.5q45 0 68.5 61.5t40.5 153.5l6 31l34 163h144l-39 -186q-3 -15 -3 -28q0 -41 30 -41q29 0 50.5 24t29.5 64l35 167h144l-72 -340q-4 -15 -4 -32
q0 -20 9.5 -28.5t31.5 -8.5q28 0 48.5 24t32.5 64h42q-37 -108 -91.5 -146.5z" />
    <glyph glyph-name="_0035" unicode="&#x439;&#x447;" horiz-adv-x="1010" vert-adv-y="950" 
d="M387.5 587q-51.5 -38 -127.5 -38q-62 0 -96 23t-34 63q0 33 18.5 53t48.5 20q29 0 45.5 -14t16.5 -40q0 -32 -24 -48q13 -4 40 -4q48 0 89 27t65 90h42q-32 -94 -83.5 -132zM960.5 32.5q-54.5 -38.5 -109.5 -38.5q-48 0 -77.5 30t-29.5 90q0 25 8 65l5 25
q-29 -32 -59 -44t-61 -12q-59 0 -87 42q-28 -89 -78.5 -142.5t-125.5 -53.5q-43 0 -68.5 24t-30.5 71q-34 -55 -71.5 -75t-76.5 -20q-48 0 -77.5 30t-29.5 90q0 25 8 65l68 321h144l-72 -340q-3 -15 -3 -28q0 -41 30 -41q28 0 48 23.5t32 64.5l68 321h144l-72 -340
q-4 -15 -4 -32q0 -20 9.5 -28.5t31.5 -8.5q45 0 69.5 65t40.5 156q0 -3 4 23l35 165h144l-39 -186q-3 -15 -3 -28q0 -41 30 -41q29 0 50 23.5t29 62.5l36 169h144l-72 -340q-4 -15 -4 -32q0 -20 9.5 -28.5t31.5 -8.5q28 0 48.5 24t32.5 64h42q-37 -108 -91.5 -146.5z" />
    <glyph glyph-name="_0027" unicode="&#x435;&#x437;" horiz-adv-x="876" vert-adv-y="950" 
d="M843 46q-48 -42 -108 -57q-2 -112 -53.5 -175.5t-135.5 -63.5q-48 0 -80 25t-32 72q0 97 157 147q-3 106 -72 106h-31l13 60h29q35 0 63 23t44 62.5t16 86.5q0 86 -61 86q-45 0 -79 -35.5t-70 -122.5q-33 -79 -69.5 -135.5t-93.5 -93.5t-137 -37q-74 0 -115 38.5
t-41 120.5q0 69 27 152t88 143.5t155 60.5q110 0 110 -96q0 -56 -32 -103t-85 -75.5t-113 -32.5q-2 -30 -2 -40q0 -49 17 -66.5t55 -17.5q53 0 89 25t59 64t49 101q3 7 5.5 12.5t4.5 9.5q34 78 59 120.5t67 70.5t106 28q73 0 115.5 -42t42.5 -117q0 -60 -28.5 -108.5
t-65.5 -78t-61 -34.5q26 -9 49.5 -36t32.5 -64q57 17 89.5 49t55.5 101h42q-27 -91 -75 -133zM215.5 276q33.5 24 54 61t20.5 78t-25 41q-36 0 -70.5 -63t-49.5 -143q37 2 70.5 26zM489 -139q0 -15 8.5 -24t25.5 -9q21 0 40 35t25 83q-99 -34 -99 -85z" />
    <glyph glyph-name="_0036" unicode="&#x43a;&#x447;" horiz-adv-x="1016" vert-adv-y="950" 
d="M973.5 32.5q-54.5 -38.5 -109.5 -38.5q-48 0 -77.5 30t-29.5 90q0 25 8 65l5 25q-29 -32 -59 -44t-61 -12q-63 0 -91 47q-33 -113 -84 -157t-114 -44q-60 0 -90.5 29.5t-30.5 81.5q0 14 7 56q5 25 5 39q0 48 -38 48q-13 0 -24.5 -7.5t-39.5 -29.5l-44 -211h-144l107 500
h144l-43 -198q33 33 95 100q40 44 62 64.5t44 31.5t49 11q34 0 51.5 -18.5t17.5 -47.5q0 -30 -16.5 -47.5t-46.5 -17.5q-28 0 -42 15.5t-13 35.5q-20 -13 -36.5 -28.5t-44.5 -45.5q-36 -39 -37 -40q20 4 42 4q52 0 73.5 -23t21.5 -70q0 -14 -6 -46q-6 -34 -6 -52
q0 -37 43 -37q23 0 43.5 14.5t41.5 61.5t40 138l40 195h144l-39 -186q-3 -15 -3 -28q0 -41 30 -41q29 0 50.5 24t29.5 64l35 167h144l-72 -340q-4 -15 -4 -32q0 -20 9.5 -28.5t31.5 -8.5q28 0 48.5 24t32.5 64h42q-37 -108 -91.5 -146.5z" />
    <glyph glyph-name="_0037" unicode="&#x45c;&#x447;" horiz-adv-x="1016" vert-adv-y="950" 
d="M323 750h105l-121 -189h-75zM973.5 32.5q-54.5 -38.5 -109.5 -38.5q-48 0 -77.5 30t-29.5 90q0 25 8 65l5 25q-29 -32 -59 -44t-61 -12q-63 0 -91 47q-33 -114 -84.5 -157.5t-114.5 -43.5q-59 0 -89.5 29.5t-30.5 81.5q0 14 7 56q5 25 5 39q0 48 -38 48q-13 0 -24.5 -7.5
t-39.5 -29.5l-44 -211h-144l107 500h144l-43 -198q33 33 95 100q40 44 62 64.5t44 31.5t49 11q34 0 51.5 -18.5t17.5 -47.5q0 -30 -16.5 -47.5t-46.5 -17.5q-28 0 -42 15.5t-13 35.5q-20 -13 -36.5 -28.5t-44.5 -45.5q-36 -39 -37 -40q20 4 42 4q52 0 73.5 -23t21.5 -70
q0 -14 -6 -46q-6 -34 -6 -52q0 -37 43 -37q23 0 43.5 14.5t41.5 61.5t40 138l40 195h144l-39 -186q-3 -15 -3 -28q0 -41 30 -41q29 0 50.5 24.5t29.5 63.5l35 167h144l-72 -340q-4 -15 -4 -32q0 -20 9.5 -28.5t31.5 -8.5q28 0 48.5 24t32.5 64h42q-37 -108 -91.5 -146.5z
" />
    <glyph glyph-name="_0038" unicode="&#x43b;&#x447;" horiz-adv-x="1061" vert-adv-y="950" 
d="M1011.5 32.5q-54.5 -38.5 -109.5 -38.5q-48 0 -77.5 30t-29.5 90q0 25 8 65l5 25q-29 -32 -59 -44t-61 -12q-58 0 -87 41q-30 -96 -82.5 -145.5t-104.5 -49.5q-57 0 -87.5 30.5t-30.5 75.5q0 42 22 136l44 198q-34 0 -56.5 -19t-38.5 -59.5t-31 -113.5
q-21 -97 -37 -145.5t-45.5 -75.5t-81.5 -27q-54 0 -82 33t-28 82q0 36 16.5 57t45.5 21q23 0 37.5 -14.5t14.5 -37.5q0 -24 -11.5 -36t-28.5 -10q3 -15 10.5 -23.5t28.5 -8.5q26 0 42 18.5t24.5 46t19.5 80.5q3 16 11 50q24 103 50 156t60.5 72.5t87.5 19.5h141l-53 -248
q-10 -43 -17 -75t-7 -44q0 -42 40 -42q29 0 49.5 30.5t33 75t28.5 119.5l39 184h144l-39 -186q-3 -15 -3 -28q0 -41 30 -41q29 0 50.5 24.5t29.5 63.5l35 167h144l-72 -340q-4 -15 -4 -32q0 -20 9.5 -28.5t31.5 -8.5q28 0 48.5 24t32.5 64h42q-37 -108 -91.5 -146.5z" />
    <glyph glyph-name="_0039" unicode="&#x43c;&#x447;" horiz-adv-x="1276" vert-adv-y="950" 
d="M1226.5 32.5q-54.5 -38.5 -109.5 -38.5q-48 0 -77.5 30t-29.5 90q0 25 8 65l5 25q-29 -32 -59 -44t-61 -12q-58 0 -87 41q-30 -96 -82.5 -145.5t-104.5 -49.5q-57 0 -87.5 30.5t-30.5 75.5q0 42 22 136l15 67l-148 -303h-140l-18 305l-13 -63q-19 -95 -34.5 -144
t-44 -76.5t-78.5 -27.5q-53 0 -81.5 35t-28.5 80q0 35 16.5 55t45.5 20q23 0 37.5 -14.5t14.5 -37.5q0 -24 -11.5 -36t-28.5 -10q-1 -14 8 -26t31 -12q30 0 48 22.5t27.5 56.5t21.5 94l6 31l53 248h140l21 -384l186 384h148l-53 -248q-10 -43 -17 -75t-7 -44q0 -42 40 -42
q29 0 49.5 30.5t33 75t28.5 119.5l39 184h144l-39 -186q-3 -15 -3 -28q0 -41 30 -41q29 0 50.5 24t29.5 64l35 167h144l-72 -340q-4 -15 -4 -32q0 -20 9.5 -28.5t31.5 -8.5q28 0 48.5 24t32.5 64h42q-37 -108 -91.5 -146.5z" />
    <glyph glyph-name="_0040" unicode="&#x43d;&#x447;" horiz-adv-x="1011" vert-adv-y="950" 
d="M961.5 32.5q-54.5 -38.5 -109.5 -38.5q-48 0 -77.5 30t-29.5 90q0 25 8 65l5 25q-29 -32 -59 -44t-61 -12q-59 0 -87 42q-29 -93 -78.5 -144.5t-109.5 -51.5q-57 0 -87.5 30.5t-30.5 75.5q0 29 23 140h-111l-51 -240h-144l106 500h144l-43 -200h112l45 200h134l-53 -248
q-10 -43 -17 -75t-7 -44q0 -42 40 -42q29 0 48.5 26.5t32 69.5t31.5 128l39 185h144l-39 -186q-3 -15 -3 -28q0 -41 30 -41q29 0 50.5 24.5t29.5 63.5l35 167h144l-72 -340q-4 -15 -4 -32q0 -20 9.5 -28.5t31.5 -8.5q28 0 48.5 24t32.5 64h42q-37 -108 -91.5 -146.5z" />
    <glyph glyph-name="_0042" unicode="&#x43e;&#x433;" horiz-adv-x="804" vert-adv-y="950" 
d="M727.5 43.5q-66.5 -49.5 -154.5 -49.5q-74 0 -114.5 28t-40.5 85q0 37 16.5 64.5t39.5 46t61 42.5q48 29 71.5 52.5t23.5 58.5q0 22 -11.5 34.5t-34.5 12.5t-48.5 -15.5t-71.5 -50.5q-52 -40 -78 -55h-1q-8 -91 -41 -159t-85 -105t-113 -37q-74 0 -117 38t-43 120
q0 68 28 151t90 143.5t156 60.5q128 0 128 -160v-1q12 10 38 36q59 58 109 91.5t111 33.5q58 0 96.5 -28t38.5 -85q0 -43 -18 -75t-44 -52.5t-65 -44.5q-44 -27 -64 -46.5t-20 -46.5q0 -53 71 -53q45 0 85.5 23t87.5 78h34q-54 -86 -120.5 -135.5zM275 336q0 41 31 54
q-2 33 -10 45.5t-28 12.5q-33 0 -64 -48t-50 -115t-19 -118q0 -48 11 -64.5t40 -16.5q24 0 48 27.5t42 75t26 105.5q-27 6 -27 42z" />
    <glyph glyph-name="_0043" unicode="&#x43e;&#x453;" horiz-adv-x="804" vert-adv-y="950" 
d="M725 750h105l-121 -189h-75zM727.5 43.5q-66.5 -49.5 -154.5 -49.5q-74 0 -114.5 28t-40.5 85q0 37 16.5 64.5t39.5 46t61 42.5q48 29 71.5 52.5t23.5 58.5q0 22 -11.5 34.5t-34.5 12.5t-48.5 -15.5t-71.5 -50.5q-52 -40 -78 -55h-1q-8 -91 -41 -159t-85 -105t-113 -37
q-74 0 -117 38t-43 120q0 68 28 151t90 143.5t156 60.5q128 0 128 -160v-1q12 10 38 36q59 58 109 91.5t111 33.5q58 0 96.5 -28t38.5 -85q0 -43 -18 -75t-44 -52.5t-65 -44.5q-44 -27 -64 -46.5t-20 -46.5q0 -53 71 -53q45 0 85.5 23t87.5 78h34q-54 -86 -120.5 -135.5z
M275 336q0 41 31 54q-2 33 -10 45.5t-28 12.5q-33 0 -64 -48t-50 -115t-19 -118q0 -48 11 -64.5t40 -16.5q24 0 48 27.5t42 75t26 105.5q-27 6 -27 42z" />
    <glyph glyph-name="_0044" unicode="&#x44e;&#x433;" horiz-adv-x="1050" vert-adv-y="950" 
d="M963.5 43.5q-66.5 -49.5 -154.5 -49.5q-74 0 -114.5 28t-40.5 85q0 37 16.5 64.5t39.5 46t61 42.5q48 29 71.5 52.5t23.5 58.5q0 22 -11.5 34.5t-34.5 12.5t-48.5 -15.5t-71.5 -50.5q-52 -40 -78 -55h-1q-8 -91 -41 -159t-85 -105t-113 -37q-74 0 -117 38t-43 120
q0 38 9 86h-75l-50 -240h-144l106 500h144l-42 -200h78q30 89 92.5 149t155.5 60q128 0 128 -160v-1q12 10 38 36q59 58 109 91.5t111 33.5q58 0 96.5 -28t38.5 -85q0 -43 -18 -75t-44 -52.5t-65 -44.5q-44 -27 -64 -46.5t-20 -46.5q0 -53 71 -53q45 0 85.5 23t87.5 78h34
q-54 -86 -120.5 -135.5zM511 336q0 41 31 54q-2 33 -10 45.5t-28 12.5q-33 0 -64 -48t-50 -115t-19 -118q0 -48 11 -64.5t40 -16.5q24 0 48 27.5t42 75t26 105.5q-27 6 -27 42z" />
    <glyph glyph-name="_0045" unicode="&#x44e;&#x453;" horiz-adv-x="1050" vert-adv-y="950" 
d="M961 750h105l-121 -189h-75zM963.5 43.5q-66.5 -49.5 -154.5 -49.5q-74 0 -114.5 28t-40.5 85q0 37 16.5 64.5t39.5 46t61 42.5q48 29 71.5 52.5t23.5 58.5q0 22 -11.5 34.5t-34.5 12.5t-48.5 -15.5t-71.5 -50.5q-52 -40 -78 -55h-1q-8 -91 -41 -159t-85 -105t-113 -37
q-74 0 -117 38t-43 120q0 38 9 86h-75l-50 -240h-144l106 500h144l-42 -200h78q30 89 92.5 149t155.5 60q128 0 128 -160v-1q12 10 38 36q59 58 109 91.5t111 33.5q58 0 96.5 -28t38.5 -85q0 -43 -18 -75t-44 -52.5t-65 -44.5q-44 -27 -64 -46.5t-20 -46.5q0 -53 71 -53
q45 0 85.5 23t87.5 78h34q-54 -86 -120.5 -135.5zM511 336q0 41 31 54q-2 33 -10 45.5t-28 12.5q-33 0 -64 -48t-50 -115t-19 -118q0 -48 11 -64.5t40 -16.5q24 0 48 27.5t42 75t26 105.5q-27 6 -27 42z" />
    <glyph glyph-name="_0046" unicode="&#x43e;&#x436;" horiz-adv-x="1271" vert-adv-y="950" 
d="M1231 48q-55 -54 -128 -54q-68 0 -107 43t-39 116q0 52 8 87h-57l-50 -240h-134l51 240h-57q-21 -101 -75 -173.5t-138 -72.5q-67 0 -95 30t-28 76q0 41 17 62.5t44 21.5q19 0 34 -14q-13 -35 -13 -68q0 -26 10.5 -40.5t25.5 -14.5q27 0 52.5 45t41 112t15.5 126
q0 56 -13.5 80.5t-40.5 24.5q-29 0 -66.5 -32t-102.5 -106h-1q-8 -91 -41 -159t-85 -105t-113 -37q-74 0 -117 38t-43 120q0 68 28 151t90 143.5t156 60.5q124 0 128 -151q45 64 79.5 97t63.5 43.5t65 10.5q58 0 96.5 -43t38.5 -116q0 -23 -3 -50h60l42 200h134l-42 -200h56
q27 91 78 150t127 59q56 0 79.5 -26.5t23.5 -65.5q0 -35 -14.5 -54t-36.5 -19q-18 0 -35 12q10 33 10 59q0 19 -6 30t-17 11q-25 0 -50.5 -45.5t-41.5 -112t-16 -125.5q0 -53 20 -79t54 -26q37 0 68.5 28t49.5 83h42q-27 -77 -82 -131zM275 336q0 41 31 54q-2 33 -10 45.5
t-28 12.5q-33 0 -64 -48t-50 -115t-19 -118q0 -48 11 -64.5t40 -16.5q24 0 48 27.5t42 75t26 105.5q-27 6 -27 42z" />
    <glyph glyph-name="_0047" unicode="&#x44e;&#x436;" horiz-adv-x="1507" vert-adv-y="950" 
d="M1467 48q-55 -54 -128 -54q-68 0 -107 43t-39 116q0 52 8 87h-57l-50 -240h-134l51 240h-57q-21 -101 -75 -173.5t-138 -72.5q-67 0 -95 30t-28 76q0 41 17 62.5t44 21.5q19 0 34 -14q-13 -35 -13 -68q0 -26 10.5 -40.5t25.5 -14.5q27 0 52.5 45t41 112t15.5 126
q0 56 -13.5 80.5t-40.5 24.5q-29 0 -66.5 -32t-102.5 -106h-1q-8 -91 -41 -159t-85 -105t-113 -37q-74 0 -117 38t-43 120q0 38 9 86h-75l-50 -240h-144l106 500h144l-42 -200h78q30 89 92.5 149t155.5 60q124 0 128 -151q45 64 79.5 97t63.5 43.5t65 10.5q58 0 96.5 -43
t38.5 -116q0 -23 -3 -50h60l42 200h134l-42 -200h56q27 91 78 150t127 59q56 0 79.5 -26.5t23.5 -65.5q0 -35 -14.5 -54t-36.5 -19q-18 0 -35 12q10 33 10 59q0 19 -6 30t-17 11q-25 0 -50.5 -45.5t-41.5 -112t-16 -125.5q0 -53 20 -79t54 -26q37 0 68.5 28t49.5 83h42
q-27 -77 -82 -131zM511 336q0 41 31 54q-2 33 -10 45.5t-28 12.5q-33 0 -64 -48t-50 -115t-19 -118q0 -48 11 -64.5t40 -16.5q24 0 48 27.5t42 75t26 105.5q-27 6 -27 42z" />
    <glyph glyph-name="_0048" unicode="&#x43e;&#x437;" horiz-adv-x="837" vert-adv-y="950" 
d="M804 46q-48 -42 -108 -57q-2 -112 -53.5 -175.5t-135.5 -63.5q-48 0 -80 25t-32 72q0 97 157 147q-3 106 -72 106h-31l13 60h29q35 0 63 23t44 62.5t16 86.5q0 35 -13 60.5t-44 25.5q-29 0 -56.5 -19.5t-71.5 -61.5q-44 -41 -43 -40h-1q-8 -91 -41 -159t-85 -105
t-113 -37q-74 0 -117 38t-43 120q0 68 28 151t90 143.5t156 60.5q125 0 128 -155q1 1 22 25q39 45 66 70.5t62 42.5t79 17q65 0 106.5 -42.5t41.5 -116.5q0 -60 -28.5 -108.5t-65.5 -78t-61 -34.5q26 -9 49.5 -36t32.5 -64q57 17 89.5 49t55.5 101h42q-27 -91 -75 -133z
M275 336q0 41 31 54q-2 33 -10 45.5t-28 12.5q-33 0 -64 -48t-50 -115t-19 -118q0 -48 11 -64.5t40 -16.5q24 0 48 27.5t42 75t26 105.5q-27 6 -27 42zM450 -139q0 -15 8.5 -24t25.5 -9q21 0 40 35t25 83q-99 -34 -99 -85z" />
    <glyph glyph-name="_0049" unicode="&#x44e;&#x437;" horiz-adv-x="1073" vert-adv-y="950" 
d="M1040 46q-48 -42 -108 -57q-2 -112 -53.5 -175.5t-135.5 -63.5q-48 0 -80 25t-32 72q0 97 157 147q-3 106 -72 106h-31l13 60h29q35 0 63 23t44 62.5t16 86.5q0 35 -13 60.5t-44 25.5q-29 0 -56.5 -19.5t-71.5 -61.5q-44 -41 -43 -40h-1q-8 -91 -41 -159t-85 -105
t-113 -37q-74 0 -117 38t-43 120q0 38 9 86h-75l-50 -240h-144l106 500h144l-42 -200h78q30 89 92.5 149t155.5 60q125 0 128 -155q1 1 22 25q39 45 66 70.5t62 42.5t79 17q65 0 106.5 -42.5t41.5 -116.5q0 -60 -28.5 -108.5t-65.5 -78t-61 -34.5q26 -9 49.5 -36t32.5 -64
q57 17 89.5 49t55.5 101h42q-27 -91 -75 -133zM511 336q0 41 31 54q-2 33 -10 45.5t-28 12.5q-33 0 -64 -48t-50 -115t-19 -118q0 -48 11 -64.5t40 -16.5q24 0 48 27.5t42 75t26 105.5q-27 6 -27 42zM686 -139q0 -15 8.5 -24t25.5 -9q21 0 40 35t25 83q-99 -34 -99 -85z" />
    <glyph glyph-name="_0050" unicode="&#x43e;&#x43b;" horiz-adv-x="992" vert-adv-y="950" 
d="M848 -6q-57 0 -87.5 30.5t-30.5 75.5q0 42 22 136l44 198q-35 0 -57 -19t-37.5 -59.5t-31.5 -113.5q-21 -98 -36.5 -145.5t-45 -75t-82.5 -27.5q-44 0 -70 21.5t-35 56.5q-52 -32 -124 -54t-131 -22q-74 0 -117 38t-43 120q0 68 28 151t90 143.5t156 60.5q128 0 128 -160
q0 -88 -22.5 -158t-63.5 -119q59 20 94 42q2 34 18.5 53.5t43.5 19.5q23 0 37.5 -14.5t14.5 -37.5q0 -24 -11.5 -36t-28.5 -10q2 -32 39 -32q27 0 43.5 20.5t25.5 52t20 86.5q2 9 4 18.5t4 17.5q21 101 48 155t61 73.5t83 19.5h147l-53 -248q-10 -43 -17 -75t-7 -44
q0 -42 40 -42q28 0 45 19t39 69h42q-63 -185 -186 -185zM243.5 125q28.5 39 46 103.5t17.5 138.5q0 44 -8.5 62.5t-30.5 18.5q-33 0 -64 -48t-50 -115t-19 -118q0 -48 11 -64.5t40 -16.5t57.5 39z" />
    <glyph glyph-name="_0051" unicode="&#x44e;&#x43b;" horiz-adv-x="1228" vert-adv-y="950" 
d="M1084 -6q-57 0 -87.5 30.5t-30.5 75.5q0 42 22 136l44 198q-35 0 -57 -19t-37.5 -59.5t-31.5 -113.5q-21 -98 -36.5 -145.5t-45 -75t-82.5 -27.5q-44 0 -70 21.5t-35 56.5q-52 -32 -124 -54t-131 -22q-74 0 -117 38t-43 120q0 38 9 86h-75l-50 -240h-144l106 500h144
l-42 -200h78q30 89 92.5 149t155.5 60q128 0 128 -160q0 -88 -22.5 -158t-63.5 -119q59 20 94 42q2 34 18.5 53.5t43.5 19.5q23 0 37.5 -14.5t14.5 -37.5q0 -24 -11.5 -36t-28.5 -10q2 -32 39 -32q27 0 43.5 20.5t25.5 52t20 86.5q2 9 4 18.5t4 17.5q21 101 48 155t61 73.5
t83 19.5h147l-53 -248q-10 -43 -17 -75t-7 -44q0 -42 40 -42q28 0 45 19t39 69h42q-63 -185 -186 -185zM479.5 125q28.5 39 46 103.5t17.5 138.5q0 44 -8.5 62.5t-30.5 18.5q-33 0 -64 -48t-50 -115t-19 -118q0 -48 11 -64.5t40 -16.5t57.5 39z" />
    <glyph glyph-name="_0052" unicode="&#x43e;&#x459;" horiz-adv-x="1179" vert-adv-y="950" 
d="M739 415q-22 -19 -37.5 -59.5t-31.5 -113.5q-21 -98 -36.5 -145.5t-45 -75t-82.5 -27.5q-45 0 -71 21t-35 56q-52 -32 -123.5 -53.5t-130.5 -21.5q-74 0 -117 38t-43 120q0 68 28 151t90 143.5t156 60.5q128 0 128 -160q0 -88 -22.5 -158t-63.5 -119q59 20 94 42
q2 33 18.5 53t43.5 20q23 0 37.5 -14.5t14.5 -37.5q0 -24 -11.5 -36t-28.5 -10q2 -32 39 -32q27 0 43.5 20.5t25.5 52t20 86.5q2 9 4 18.5t4 17.5q21 101 48 155t61 73.5t83 19.5h147l-35 -162q32 13 53.5 16.5t46.5 3.5q60 0 94.5 -35t34.5 -98q0 -48 -27.5 -101.5
t-86 -91.5t-145.5 -38q-68 0 -107.5 34t-39.5 94q0 30 7 57l56 255q-35 0 -57 -19zM243.5 125q28.5 39 46 103.5t17.5 138.5q0 44 -8.5 62.5t-30.5 18.5q-33 0 -64 -48t-50 -115t-19 -118q0 -48 11 -64.5t40 -16.5t57.5 39zM867 120q0 -41 43 -41q25 0 47.5 22t36.5 55
t14 63t-14 47.5t-40 17.5q-11 0 -30.5 -6t-28.5 -12l-25 -118q-3 -8 -3 -28z" />
    <glyph glyph-name="_0053" unicode="&#x44e;&#x459;" horiz-adv-x="1415" vert-adv-y="950" 
d="M975 415q-22 -19 -37.5 -59.5t-31.5 -113.5q-21 -98 -36.5 -145.5t-45 -75t-82.5 -27.5q-45 0 -71 21t-35 56q-52 -32 -123.5 -53.5t-130.5 -21.5q-74 0 -117 38t-43 120q0 38 9 86h-75l-50 -240h-144l106 500h144l-42 -200h78q30 89 92.5 149t155.5 60q128 0 128 -160
q0 -88 -22.5 -158t-63.5 -119q59 20 94 42q2 33 18.5 53t43.5 20q23 0 37.5 -14.5t14.5 -37.5q0 -24 -11.5 -36t-28.5 -10q2 -32 39 -32q27 0 43.5 20.5t25.5 52t20 86.5q2 9 4 18.5t4 17.5q21 101 48 155t61 73.5t83 19.5h147l-35 -162q32 13 53.5 16.5t46.5 3.5
q60 0 94.5 -35t34.5 -98q0 -48 -27.5 -101.5t-86 -91.5t-145.5 -38q-68 0 -107.5 34t-39.5 94q0 30 7 57l56 255q-35 0 -57 -19zM479.5 125q28.5 39 46 103.5t17.5 138.5q0 44 -8.5 62.5t-30.5 18.5q-33 0 -64 -48t-50 -115t-19 -118q0 -48 11 -64.5t40 -16.5t57.5 39z
M1103 120q0 -41 43 -41q25 0 47.5 22t36.5 55t14 63t-14 47.5t-40 17.5q-11 0 -30.5 -6t-28.5 -12l-25 -118q-3 -8 -3 -28z" />
    <glyph glyph-name="_0054" unicode="&#x43e;&#x43c;" horiz-adv-x="1207" vert-adv-y="950" 
d="M1063 -6q-57 0 -87.5 30.5t-30.5 75.5q0 40 21 133l16 71l-148 -304h-140l-18 305l-13 -63q-19 -95 -34.5 -144t-44 -76.5t-78.5 -27.5q-42 0 -68 21.5t-37 56.5q-52 -32 -124 -54t-131 -22q-74 0 -117 38t-43 120q0 68 28 151t90 143.5t156 60.5q128 0 128 -160
q0 -88 -22.5 -158t-63.5 -119q59 20 94 42q1 33 17 51.5t45 18.5q23 0 37.5 -14.5t14.5 -37.5q0 -24 -11.5 -36t-28.5 -10q-1 -14 8 -26t31 -12q30 0 48 22t27.5 55t20.5 92l7 35l53 248h140l21 -384l186 384h148l-53 -248q-10 -43 -17 -75t-7 -44q0 -42 40 -42q28 0 45 19
t39 69h42q-63 -185 -186 -185zM243.5 125q28.5 39 46 103.5t17.5 138.5q0 44 -8.5 62.5t-30.5 18.5q-33 0 -64 -48t-50 -115t-19 -118q0 -48 11 -64.5t40 -16.5t57.5 39z" />
    <glyph glyph-name="_0055" unicode="&#x44e;&#x43c;" horiz-adv-x="1443" vert-adv-y="950" 
d="M1299 -6q-57 0 -87.5 30.5t-30.5 75.5q0 40 21 133l16 71l-148 -304h-140l-18 305l-13 -63q-19 -95 -34.5 -144t-44 -76.5t-78.5 -27.5q-42 0 -68 21.5t-37 56.5q-52 -32 -124 -54t-131 -22q-74 0 -117 38t-43 120q0 38 9 86h-75l-50 -240h-144l106 500h144l-42 -200h78
q30 89 92.5 149t155.5 60q128 0 128 -160q0 -88 -22.5 -158t-63.5 -119q59 20 94 42q1 33 17 51.5t45 18.5q23 0 37.5 -14.5t14.5 -37.5q0 -24 -11.5 -36t-28.5 -10q-1 -14 8 -26t31 -12q30 0 48 22t27.5 55t20.5 92l7 35l53 248h140l21 -384l186 384h148l-53 -248
q-10 -43 -17 -75t-7 -44q0 -42 40 -42q28 0 45 19t39 69h42q-63 -185 -186 -185zM479.5 125q28.5 39 46 103.5t17.5 138.5q0 44 -8.5 62.5t-30.5 18.5q-33 0 -64 -48t-50 -115t-19 -118q0 -48 11 -64.5t40 -16.5t57.5 39z" />
    <glyph glyph-name="_0056" unicode="&#x44e;&#x445;" horiz-adv-x="1088" vert-adv-y="950" 
d="M1035.5 32.5q-56.5 -38.5 -112.5 -38.5q-36 0 -59.5 18.5t-38.5 58.5t-28 108l-2 7q-90 -63 -90 -112q3 1 13 1q41 0 41 -49q0 -28 -15 -41.5t-41 -13.5q-33 0 -49.5 19t-16.5 52q0 47 44.5 104t103.5 96l-28 155q-62 -73 -135 -96q-8 -92 -41.5 -161t-85.5 -106.5
t-113 -37.5q-74 0 -117 38t-43 120q0 38 9 86h-75l-50 -240h-144l106 500h144l-42 -200h78q30 89 92.5 149t155.5 60q127 0 128 -157q55 6 123 100l-9 48h141l36 -198q49 43 73.5 78t24.5 63q0 9 -1 12q-14 -2 -17 -2q-25 0 -36 15.5t-11 40.5q0 22 16 34.5t40 12.5
q32 0 50 -25t18 -64q0 -50 -34 -101t-112 -121l12 -66q1 -5 6.5 -31.5t18.5 -41.5t34 -15q29 0 54 24.5t36 63.5h42q-37 -108 -93.5 -146.5zM511 338q0 42 31 53q-2 32 -10.5 44.5t-27.5 12.5q-33 0 -64 -48t-50 -115t-19 -118q0 -48 11 -64.5t40 -16.5q24 0 48 27.5
t42 74.5t26 105q-27 8 -27 45z" />
    <glyph glyph-name="_0057" unicode="&#x43e;&#x44d;" horiz-adv-x="867" vert-adv-y="950" 
d="M557 300h120q2 26 2 38q0 49 -19 68t-63 19q-26 0 -56.5 -19t-79.5 -56q-50 -38 -75 -53h-1q-8 -91 -41 -159t-85 -105t-113 -37q-74 0 -117 38t-43 120q0 68 28 151t90 143.5t156 60.5q128 0 128 -160v-1q12 8 41 36q58 56 112 90.5t121 34.5q78 0 121.5 -41t43.5 -123
q0 -64 -31 -147t-96.5 -143.5t-161.5 -60.5q-67 0 -101.5 28t-34.5 78q0 40 16.5 62t41.5 22q22 0 37 -14q-13 -35 -13 -68q0 -55 55 -55q41 0 76 56.5t53 136.5h-124zM275 336q0 41 31 54q-2 33 -10 45.5t-28 12.5q-33 0 -64 -48t-50 -115t-19 -118q0 -48 11 -64.5
t40 -16.5q24 0 48 27.5t42 75t26 105.5q-27 6 -27 42z" />
    <glyph glyph-name="_0058" unicode="&#x44e;&#x44d;" horiz-adv-x="1103" vert-adv-y="950" 
d="M793 300h120q2 26 2 38q0 49 -19 68t-63 19q-26 0 -56.5 -19t-79.5 -56q-50 -38 -75 -53h-1q-8 -91 -41 -159t-85 -105t-113 -37q-74 0 -117 38t-43 120q0 38 9 86h-75l-50 -240h-144l106 500h144l-42 -200h78q30 89 92.5 149t155.5 60q128 0 128 -160v-1q12 8 41 36
q58 56 112 90.5t121 34.5q78 0 121.5 -41t43.5 -123q0 -64 -31 -147t-96.5 -143.5t-161.5 -60.5q-67 0 -101.5 28t-34.5 78q0 40 16.5 62t41.5 22q22 0 37 -14q-13 -35 -13 -68q0 -55 55 -55q41 0 76 56.5t53 136.5h-124zM511 336q0 41 31 54q-2 33 -10 45.5t-28 12.5
q-33 0 -64 -48t-50 -115t-19 -118q0 -48 11 -64.5t40 -16.5q24 0 48 27.5t42 75t26 105.5q-27 6 -27 42z" />
    <glyph glyph-name="_0059" unicode="&#x43f;&#x447;" horiz-adv-x="1010" vert-adv-y="950" 
d="M960.5 32.5q-54.5 -38.5 -109.5 -38.5q-48 0 -77.5 30t-29.5 90q0 25 8 65l5 25q-29 -32 -59 -44t-61 -12q-58 0 -87 42q-60 -196 -189 -196q-61 0 -89.5 32.5t-28.5 80.5q0 21 5 47.5t10.5 51.5t7.5 32q8 35 15 69t7 55q0 51 -36 51q-26 0 -46 -25.5t-32 -66.5l-68 -321
h-144l106 500h144l-11 -52q50 56 117 56q51 0 81 -28t30 -85q0 -29 -7 -64.5t-20 -86.5q-8 -31 -14.5 -60.5t-6.5 -46.5q0 -20 9 -31t31 -11q32 0 51.5 27t30.5 68t31 131l39 183h144l-39 -186q-3 -15 -3 -28q0 -41 30 -41q29 0 50.5 24.5t29.5 63.5l35 167h144l-72 -340
q-4 -15 -4 -32q0 -20 9.5 -28.5t31.5 -8.5q28 0 48.5 24t32.5 64h42q-37 -108 -91.5 -146.5z" />
    <glyph glyph-name="_0060" unicode="&#x441;&#x437;" horiz-adv-x="876" vert-adv-y="950" 
d="M843 46q-48 -42 -108 -57q-2 -112 -53.5 -175.5t-135.5 -63.5q-48 0 -80 25t-32 72q0 97 157 147q-3 106 -72 106h-31l13 60h29q35 0 63 23t44 62.5t16 86.5q0 86 -61 86q-45 0 -79 -35.5t-70 -122.5q-33 -79 -69.5 -135.5t-93.5 -93.5t-137 -37q-74 0 -115 38.5
t-41 120.5q0 69 27.5 152t88 143.5t153.5 60.5q60 0 85.5 -26t25.5 -66q0 -35 -15 -54t-38 -19q-17 0 -35 12q12 33 12 59q0 19 -7 30t-21 11q-30 0 -60 -49t-49 -119t-19 -126q0 -49 17 -66.5t55 -17.5q53 0 89 25t59 64t49 101q3 7 5.5 12.5t4.5 9.5q34 78 59 120.5
t67 70.5t106 28q73 0 115.5 -42t42.5 -117q0 -60 -28.5 -108.5t-65.5 -78t-61 -34.5q26 -9 49.5 -36t32.5 -64q57 17 89.5 49t55.5 101h42q-27 -91 -75 -133zM489 -139q0 -15 8.5 -24t25.5 -9q21 0 40 35t25 83q-99 -34 -99 -85z" />
    <glyph glyph-name="_0067" unicode="&#x443;&#x458;" horiz-adv-x="725" vert-adv-y="950" 
d="M700.5 578q-23.5 -23 -56.5 -23t-56 23t-23 56t23 56.5t56 23.5t56.5 -23.5t23.5 -56.5t-23.5 -56zM505.5 -213.5q-49.5 -36.5 -111.5 -36.5q-40 0 -66.5 15.5t-39.5 43.5q-49 -59 -132 -59q-48 0 -80 25t-32 72q0 56 43 88t118 48l15 68q-51 -57 -121 -57
q-48 0 -77.5 30t-29.5 90q0 25 8 65l68 321h144l-72 -340q-3 -12 -3 -25q0 -44 30 -44q28 0 48 23.5t32 64.5l68 321h144l-106 -496l97 10l104 486h144l-98 -459q48 16 79.5 48.5t45.5 89.5h42q-23 -82 -66 -123.5t-110 -58.5l-16 -77q-20 -97 -69.5 -133.5zM345 -36l-9 -44
q-5 -27 -21 -64q16 -17 44 -17t45 17.5t26 60.5l12 57zM124.5 -91q-25.5 -19 -25.5 -48q0 -13 9 -23t25 -10q17 0 33 23t25 66l5 23q-46 -12 -71.5 -31z" />
    <glyph glyph-name="_0061" unicode="&#x454;&#x437;" horiz-adv-x="876" vert-adv-y="950" 
d="M843 46q-48 -42 -108 -57q-2 -112 -53.5 -175.5t-135.5 -63.5q-48 0 -80 25t-32 72q0 97 157 147q-3 106 -72 106h-31l13 60h29q35 0 63 23t44 62.5t16 86.5q0 86 -61 86q-45 0 -79 -35.5t-70 -122.5q-33 -79 -69.5 -135.5t-93.5 -93.5t-137 -37q-74 0 -115 38.5
t-41 120.5q0 69 27.5 152t88 143.5t153.5 60.5q60 0 85.5 -26t25.5 -66q0 -35 -15 -54t-38 -19q-17 0 -35 12q12 33 12 59q0 19 -7 30t-21 11q-29 0 -57.5 -45t-47.5 -111h119l-13 -60h-121q-8 -45 -8 -78q0 -49 17 -66.5t55 -17.5q53 0 89 25t59 64t49 101q3 7 5.5 12.5
t4.5 9.5q34 78 59 120.5t67 70.5t106 28q73 0 115.5 -42t42.5 -117q0 -60 -28.5 -108.5t-65.5 -78t-61 -34.5q26 -9 49.5 -36t32.5 -64q57 17 89.5 49t55.5 101h42q-27 -91 -75 -133zM489 -139q0 -15 8.5 -24t25.5 -9q21 0 40 35t25 83q-99 -34 -99 -85z" />
    <glyph glyph-name="_0062" unicode="&#x454;&#x445;" horiz-adv-x="755" vert-adv-y="950" 
d="M704 32.5q-56 -38.5 -110 -38.5q-50 0 -77 32t-43 106q-63 -63 -149 -100.5t-167 -37.5q-80 0 -129 39.5t-49 124.5q0 65 27 147.5t87.5 143t154.5 60.5q61 0 86 -26t25 -67q0 -36 -15.5 -54t-37.5 -18q-19 0 -35 12q12 32 12 59q0 41 -27 41q-28 0 -58 -46t-49 -110h127
l-13 -60h-129q-7 -34 -7 -65q0 -99 101 -99q57 0 121.5 30t112.5 84l-57 310h141l39 -216q45 48 70 90t25 69q0 9 -1 12q-14 -2 -18 -2q-24 0 -35 15t-11 37q0 25 15 38t39 13q34 0 52 -24.5t18 -62.5q0 -48 -33 -103t-110 -138l9 -49q1 -5 6.5 -31.5t18.5 -41.5t34 -15
q29 0 54 24.5t36 63.5h42q-37 -108 -93 -146.5z" />
    <glyph glyph-name="_0063" unicode="&#x441;&#x447;" horiz-adv-x="889" vert-adv-y="950" 
d="M839.5 32.5q-54.5 -38.5 -109.5 -38.5q-48 0 -77.5 30t-29.5 90q0 25 8 65l5 25q-29 -32 -59 -44t-61 -12q-73 0 -97 61q-47 -89 -120.5 -152t-155.5 -63q-74 0 -115 38.5t-41 120.5q0 69 27.5 152t88 143.5t153.5 60.5q60 0 85.5 -26t25.5 -66q0 -35 -15 -54t-38 -19
q-17 0 -35 12q12 33 12 59q0 19 -7 30t-21 11q-30 0 -60 -49t-49 -119t-19 -126q0 -48 16.5 -66t51.5 -18q38 0 82.5 34.5t80.5 92.5t50 126l36 169h144l-39 -186q-3 -15 -3 -28q0 -41 30 -41q29 0 50.5 24t29.5 64l35 167h144l-72 -340q-4 -15 -4 -32q0 -20 9.5 -28.5
t31.5 -8.5q28 0 48.5 24t32.5 64h42q-37 -108 -91.5 -146.5z" />
    <glyph glyph-name="_0064" unicode="&#x454;&#x447;" horiz-adv-x="889" vert-adv-y="950" 
d="M839.5 32.5q-54.5 -38.5 -109.5 -38.5q-48 0 -77.5 30t-29.5 90q0 25 8 65l5 25q-29 -32 -59 -44t-61 -12q-73 0 -97 61q-47 -89 -120.5 -152t-155.5 -63q-74 0 -115 38.5t-41 120.5q0 69 27.5 152t88 143.5t153.5 60.5q60 0 85.5 -26t25.5 -66q0 -35 -15 -54t-38 -19
q-17 0 -35 12q12 33 12 59q0 19 -7 30t-21 11q-29 0 -57.5 -45t-47.5 -111h119l-13 -60h-121q-8 -45 -8 -78q0 -48 16.5 -66t51.5 -18q39 0 84 35.5t80.5 95t50.5 128.5l34 163h144l-39 -186q-3 -15 -3 -28q0 -41 30 -41q29 0 50.5 24t29.5 64l35 167h144l-72 -340
q-4 -15 -4 -32q0 -20 9.5 -28.5t31.5 -8.5q28 0 48.5 24t32.5 64h42q-37 -108 -91.5 -146.5z" />
    <glyph glyph-name="_0065" unicode="&#x442;&#x447;" horiz-adv-x="1257" vert-adv-y="950" 
d="M1207.5 32.5q-54.5 -38.5 -109.5 -38.5q-48 0 -77.5 30t-29.5 90q0 25 8 65l5 25q-29 -32 -59 -44t-61 -12q-58 0 -87 42q-60 -196 -189 -196q-61 0 -89.5 32.5t-28.5 80.5q0 21 5 47.5t10.5 51.5t7.5 32q8 35 15 69t7 55q0 51 -36 51q-26 0 -46 -25.5t-32 -66.5
l-68 -321h-144l73 345q3 12 3 25q0 44 -30 44q-28 0 -48.5 -25.5t-32.5 -67.5l-68 -321h-144l106 500h144l-11 -52q51 57 122 57q88 0 103 -86q55 85 139 85q51 0 81 -28t30 -85q0 -29 -7 -64.5t-20 -86.5q-8 -31 -14.5 -60.5t-6.5 -46.5q0 -20 9 -31t31 -11q32 0 52 28.5
t32.5 73.5t33.5 144l34 163h144l-39 -186q-3 -15 -3 -28q0 -41 30 -41q29 0 50.5 24.5t29.5 63.5l35 167h144l-72 -340q-4 -15 -4 -32q0 -20 9.5 -28.5t31.5 -8.5q28 0 48.5 24t32.5 64h42q-37 -108 -91.5 -146.5z" />
    <glyph glyph-name="_0066" unicode="&#x441;&#x44a;" horiz-adv-x="841" vert-adv-y="950" 
d="M604 327q48 31 104 31q49 0 83 -31.5t34 -93.5q0 -71 -36 -125.5t-96.5 -84t-130.5 -29.5q-67 0 -109 33t-42 96v11q0 11 2 16q-59 -70 -124.5 -113t-141.5 -43q-160 0 -160 159q0 69 27.5 152t88 143.5t153.5 60.5q60 0 85.5 -26t25.5 -66q0 -35 -15 -54t-38 -19
q-17 0 -35 12q12 33 12 59q0 19 -7 30t-21 11q-30 0 -60 -49t-49 -119t-19 -126q0 -49 17 -66.5t60 -17.5q63 0 122.5 55t137.5 160q36 57 103 131l18 22h-49q-28 0 -41.5 -3t-13.5 -13q0 -2 5.5 -4.5t5.5 -17.5q0 -26 -16 -39.5t-38 -13.5q-19 0 -32.5 11.5t-13.5 32.5
q0 40 32 70.5t84 30.5h180l-30 -48q-44 -73 -62 -125zM560 187q-7 -30 -7 -57q0 -51 40 -51q28 0 51 24t36.5 59.5t13.5 66.5q0 55 -49 55q-34 0 -59 -17q-19 -50 -26 -80z" />
    <glyph glyph-name="_0068" unicode="&#x45e;&#x458;" horiz-adv-x="725" vert-adv-y="950" 
d="M387.5 587q-51.5 -38 -127.5 -38q-62 0 -96 23t-34 63q0 33 18.5 53t48.5 20q29 0 45.5 -14t16.5 -40q0 -32 -24 -48q13 -4 40 -4q48 0 89 27t65 90h42q-32 -94 -83.5 -132zM700.5 578q-23.5 -23 -56.5 -23t-56 23t-23 56t23 56.5t56 23.5t56.5 -23.5t23.5 -56.5
t-23.5 -56zM505.5 -213.5q-49.5 -36.5 -111.5 -36.5q-40 0 -66.5 15.5t-39.5 43.5q-49 -59 -132 -59q-48 0 -80 25t-32 72q0 56 43 88t118 48l15 68q-51 -57 -121 -57q-48 0 -77.5 30t-29.5 90q0 25 8 65l68 321h144l-72 -340q-3 -12 -3 -25q0 -44 30 -44q28 0 48 23.5
t32 64.5l68 321h144l-106 -496q31 2 46 5l51 5l104 486h144l-98 -459q48 16 79.5 48.5t45.5 89.5h42q-23 -82 -66 -123.5t-110 -58.5l-16 -77q-20 -97 -69.5 -133.5zM397 -31l-52 -5l-9 -44q-5 -27 -21 -64q16 -17 44 -17t45 17.5t26 60.5l12 57q-30 -2 -45 -5zM124.5 -91
q-25.5 -19 -25.5 -48q0 -13 9 -23t25 -10q17 0 33 23t25 66l5 23q-46 -12 -71.5 -31z" />
    <glyph glyph-name="_0069" unicode="&#x443;&#x447;" horiz-adv-x="989" vert-adv-y="950" 
d="M939.5 32.5q-54.5 -38.5 -109.5 -38.5q-48 0 -77.5 30t-29.5 90q0 25 8 65l5 25q-29 -32 -59 -44t-61 -12q-58 0 -87 41q-21 -91 -69.5 -135.5t-108.5 -61.5l-15 -72q-20 -97 -69 -133.5t-111 -36.5q-48 0 -80 25t-32 72q0 57 46 91.5t117 57.5l12 54q-29 -32 -59 -44
t-61 -12q-48 0 -77.5 30t-29.5 90q0 25 8 65l68 321h144l-72 -340q-3 -12 -3 -25q0 -44 30 -44q26 0 46 22.5t32 59.5l70 327h144l-99 -464q53 19 85 58.5t47 113.5l60 292h144l-39 -186q-3 -15 -3 -28q0 -41 30 -41q29 0 50 23.5t29 62.5l36 169h144l-72 -340
q-4 -15 -4 -32q0 -20 9.5 -28.5t31.5 -8.5q28 0 48.5 24t32.5 64h42q-37 -108 -91.5 -146.5zM99 -139q0 -13 9 -23t25 -10q17 0 33 23t25 66l6 29q-98 -36 -98 -85z" />
    <glyph glyph-name="_0070" unicode="&#x45e;&#x447;" horiz-adv-x="989" vert-adv-y="950" 
d="M387.5 587q-51.5 -38 -127.5 -38q-62 0 -96 23t-34 63q0 33 18.5 53t48.5 20q29 0 45.5 -14t16.5 -40q0 -32 -24 -48q13 -4 40 -4q48 0 89 27t65 90h42q-32 -94 -83.5 -132zM939.5 32.5q-54.5 -38.5 -109.5 -38.5q-48 0 -77.5 30t-29.5 90q0 25 8 65l5 25
q-29 -32 -59 -44t-61 -12q-58 0 -87 41q-21 -91 -69.5 -135.5t-108.5 -61.5l-15 -72q-20 -97 -69 -133.5t-111 -36.5q-48 0 -80 25t-32 72q0 57 46 91.5t117 57.5l12 54q-29 -32 -59 -44t-61 -12q-48 0 -77.5 30t-29.5 90q0 25 8 65l68 321h144l-72 -340q-3 -12 -3 -25
q0 -44 30 -44q26 0 46 22.5t32 59.5l70 327h144l-99 -464q53 19 85 58.5t47 113.5l60 292h144l-39 -186q-3 -15 -3 -28q0 -41 30 -41q29 0 50.5 24t29.5 64l35 167h144l-72 -340q-4 -15 -4 -32q0 -20 9.5 -28.5t31.5 -8.5q28 0 48.5 24t32.5 64h42q-37 -108 -91.5 -146.5z
M99 -139q0 -13 9 -23t25 -10q17 0 33 23t25 66l6 29q-98 -36 -98 -85z" />
    <glyph glyph-name="_0071" unicode="&#x445;&#x447;" horiz-adv-x="1027" vert-adv-y="950" 
d="M977.5 32.5q-54.5 -38.5 -109.5 -38.5q-48 0 -77.5 30t-29.5 90q0 25 8 65l5 25q-29 -32 -59 -44t-61 -12q-59 0 -87 42q-61 -196 -197 -196q-53 0 -85 41.5t-47 132.5l-138 -168h-72l202 228l-16 112q-8 49 -16.5 66t-21.5 17q-20 0 -45 -27.5t-48.5 -83t-40.5 -133.5
h-42q29 136 86.5 231t149.5 95q54 0 78.5 -35.5t29.5 -83.5l9 -76q43 48 64 82.5t23 61.5q-14 -2 -17 -2q-25 0 -36 15.5t-11 40.5t19.5 37t48.5 12q26 0 41 -27.5t15 -63.5q0 -44 -30 -88.5t-109 -129.5l9 -70q6 -48 20.5 -67.5t41.5 -19.5q33 0 54 27t35 71.5t30 122.5
l39 188h144l-39 -186q-3 -15 -3 -28q0 -41 30 -41q29 0 50.5 24.5t29.5 63.5l35 167h144l-72 -340q-4 -15 -4 -32q0 -20 9.5 -28.5t31.5 -8.5q28 0 48.5 24t32.5 64h42q-37 -108 -91.5 -146.5z" />
    <glyph glyph-name="_0072" unicode="&#x445;&#x44a;" horiz-adv-x="1006" vert-adv-y="950" 
d="M745 327q48 31 104 31q49 0 83 -31.5t34 -93.5q0 -71 -36 -125.5t-96.5 -84t-130.5 -29.5q-65 0 -106 30t-45 88q-86 -118 -187 -118q-51 0 -81.5 41.5t-45.5 132.5l-138 -168h-72l202 228l-16 112q-8 49 -16.5 66t-21.5 17q-20 0 -45 -27.5t-48.5 -83t-40.5 -133.5h-42
q29 136 86.5 231t149.5 95q54 0 78.5 -35.5t29.5 -83.5l9 -76q43 48 64 82.5t23 61.5q-14 -2 -17 -2q-25 0 -36 15.5t-11 40.5t19.5 37t48.5 12q26 0 41 -27.5t15 -63.5q0 -44 -30 -88.5t-109 -129.5l9 -70q6 -48 20.5 -67.5t41.5 -19.5q39 0 83 52t74 109q43 80 145 194
h-49q-28 0 -41.5 -3t-13.5 -13q0 -2 5.5 -4.5t5.5 -17.5q0 -26 -16 -39.5t-38 -13.5q-19 0 -32.5 11.5t-13.5 32.5q0 40 32 70.5t84 30.5h180l-30 -48q-44 -73 -62 -125zM701 187q-7 -30 -7 -57q0 -51 40 -51q28 0 51 24t36.5 59.5t13.5 66.5q0 55 -49 55q-34 0 -59 -17
q-19 -50 -26 -80z" />
    <glyph glyph-name="_0073" unicode="&#x447;&#x447;" horiz-adv-x="1010" vert-adv-y="950" 
d="M960.5 32.5q-54.5 -38.5 -109.5 -38.5q-48 0 -77.5 30t-29.5 90q0 25 8 65l5 25q-29 -32 -59 -44t-61 -12q-59 0 -87 42q-28 -89 -78.5 -142.5t-125.5 -53.5q-48 0 -77.5 30.5t-29.5 86.5q0 37 8 68l5 25q-29 -32 -59 -44t-61 -12q-48 0 -77.5 30t-29.5 90q0 25 8 65
l35 167h144l-39 -186q-3 -15 -3 -28q0 -41 30 -41q28 0 48 23.5t32 64.5l35 167h144l-72 -340q-4 -15 -4 -32q0 -20 9.5 -28.5t31.5 -8.5q45 0 68.5 61.5t40.5 153.5l6 31l34 163h144l-39 -186q-3 -15 -3 -28q0 -41 30 -41q29 0 50.5 24t29.5 64l35 167h144l-72 -340
q-4 -15 -4 -32q0 -20 9.5 -28.5t31.5 -8.5q28 0 48.5 24t32.5 64h42q-37 -108 -91.5 -146.5z" />
    <glyph glyph-name="_0074" unicode="&#x448;&#x447;" horiz-adv-x="1257" vert-adv-y="950" 
d="M1207.5 32.5q-54.5 -38.5 -109.5 -38.5q-48 0 -77.5 30t-29.5 90q0 25 8 65l5 25q-29 -32 -59 -44t-61 -12q-59 0 -87 42q-28 -89 -78.5 -142.5t-125.5 -53.5q-43 0 -68.5 24t-30.5 71q-34 -55 -71.5 -75t-76.5 -20q-43 0 -68.5 24t-30.5 71q-34 -55 -71.5 -75t-76.5 -20
q-48 0 -77.5 30t-29.5 90q0 25 8 65l68 321h144l-72 -340q-3 -15 -3 -28q0 -41 30 -41q28 0 48 23.5t32 64.5l68 321h144l-72 -340q-3 -15 -3 -28q0 -41 30 -41q28 0 48 23.5t32 64.5l68 321h144l-72 -340q-4 -15 -4 -32q0 -20 9.5 -28.5t31.5 -8.5q45 0 68.5 61.5
t40.5 153.5l6 31l34 163h144l-39 -186q-3 -15 -3 -28q0 -41 30 -41q29 0 50.5 24.5t29.5 63.5l35 167h144l-72 -340q-4 -15 -4 -32q0 -20 9.5 -28.5t31.5 -8.5q28 0 48.5 24t32.5 64h42q-37 -108 -91.5 -146.5z" />
    <glyph glyph-name="_0075" unicode="&#x44b;&#x447;" horiz-adv-x="1157" vert-adv-y="950" 
d="M1107.5 32.5q-54.5 -38.5 -109.5 -38.5q-48 0 -77.5 30t-29.5 90q0 25 8 65l5 25q-29 -32 -59 -44t-61 -12q-57 0 -86 40q-24 -85 -71 -138.5t-117 -55.5q-59 4 -87.5 34.5t-28.5 74.5q0 19 9 65t46 217q-47 -30 -112 -65q24 -37 24 -100q0 -47 -25 -99.5t-75.5 -89.5
t-123.5 -37q-68 0 -105.5 34t-37.5 94q0 30 7 57l66 321h138l-74 -352q-3 -8 -3 -28q0 -41 45 -41q27 0 52 22.5t40 60.5t15 83q0 25 -15 38q-13 -9 -29 -9q-17 0 -30.5 11t-13.5 32q0 22 17 34t39 12q23 0 41 -6q64 29 153 83q72 43 104 60h62l-53 -248q-10 -43 -17 -75
t-7 -44q0 -42 40 -42q45 0 68.5 61.5t40.5 153.5l6 31l34 163h144l-39 -186q-3 -15 -3 -28q0 -41 30 -41q29 0 50.5 24.5t29.5 63.5l35 167h144l-72 -340q-4 -15 -4 -32q0 -20 9.5 -28.5t31.5 -8.5q28 0 48.5 24t32.5 64h42q-37 -108 -91.5 -146.5z" />
    <glyph glyph-name="_0076" unicode="&#x456;&#x447;" horiz-adv-x="763" vert-adv-y="950" 
d="M223.5 577q-23.5 -23 -56.5 -23t-56 23t-23 56t23 56.5t56 23.5t56.5 -23.5t23.5 -56.5t-23.5 -56zM713.5 32.5q-54.5 -38.5 -109.5 -38.5q-48 0 -77.5 30t-29.5 90q0 25 8 65l5 25q-29 -32 -59 -44t-61 -12q-59 0 -87 42q-28 -89 -78.5 -142.5t-125.5 -53.5
q-51 0 -79 31.5t-28 86.5q0 27 8 67l68 321h144l-72 -340q-4 -15 -4 -32q0 -20 9.5 -28.5t31.5 -8.5q45 0 68.5 61.5t40.5 153.5l6 31l34 163h144l-39 -186q-3 -15 -3 -28q0 -41 30 -41q29 0 50.5 24.5t29.5 63.5l35 167h144l-72 -340q-4 -15 -4 -32q0 -20 9.5 -28.5
t31.5 -8.5q28 0 48.5 24t32.5 64h42q-37 -108 -91.5 -146.5z" />
    <glyph glyph-name="_0077" unicode="&#x457;&#x447;" horiz-adv-x="763" vert-adv-y="950" 
d="M33.5 590.5q-17.5 17.5 -17.5 43.5q0 25 17.5 43t43.5 18q25 0 43 -18t18 -43q0 -26 -18 -43.5t-43 -17.5q-26 0 -43.5 17.5zM213.5 590.5q-17.5 17.5 -17.5 43.5q0 25 17.5 43t43.5 18q25 0 43 -18t18 -43q0 -26 -18 -43.5t-43 -17.5q-26 0 -43.5 17.5zM713.5 32.5
q-54.5 -38.5 -109.5 -38.5q-48 0 -77.5 30t-29.5 90q0 25 8 65l5 25q-29 -32 -59 -44t-61 -12q-59 0 -87 42q-28 -89 -78.5 -142.5t-125.5 -53.5q-51 0 -79 31.5t-28 86.5q0 27 8 67l68 321h144l-72 -340q-4 -15 -4 -32q0 -20 9.5 -28.5t31.5 -8.5q45 0 68.5 61.5
t40.5 153.5l6 31l34 163h144l-39 -186q-3 -15 -3 -28q0 -41 30 -41q29 0 50.5 24t29.5 64l35 167h144l-72 -340q-4 -15 -4 -32q0 -20 9.5 -28.5t31.5 -8.5q28 0 48.5 24t32.5 64h42q-37 -108 -91.5 -146.5z" />
    <glyph glyph-name="_0078" unicode="&#x457;&#x457;" horiz-adv-x="543" vert-adv-y="950" 
d="M33.5 590.5q-17.5 17.5 -17.5 43.5q0 25 17.5 43t43.5 18q25 0 43 -18t18 -43q0 -26 -18 -43.5t-43 -17.5q-26 0 -43.5 17.5zM182.5 590.5q-17.5 17.5 -17.5 43.5q0 25 17.5 43t43.5 18q25 0 43 -18t18 -43q0 -26 -18 -43.5t-43 -17.5q-26 0 -43.5 17.5zM331.5 590.5
q-17.5 17.5 -17.5 43.5q0 25 17.5 43t43.5 18q25 0 43 -18t18 -43q0 -26 -18 -43.5t-43 -17.5q-26 0 -43.5 17.5zM480.5 590.5q-17.5 17.5 -17.5 43.5q0 25 17.5 43t43.5 18q25 0 43 -18t18 -43q0 -26 -18 -43.5t-43 -17.5q-26 0 -43.5 17.5zM481 32.5q-58 -38.5 -115 -38.5
q-41 0 -69 22t-36 67q-37 -51 -80 -70t-82 -19q-48 0 -77.5 30t-29.5 90q0 25 8 65l68 321h144l-72 -340q-4 -15 -4 -32q0 -20 9.5 -28.5t31.5 -8.5q29 0 54 24.5t36 63.5l68 321h144l-72 -340q-4 -15 -4 -32q0 -20 9.5 -28.5t31.5 -8.5q29 0 54 24.5t36 63.5h42
q-37 -108 -95 -146.5z" />
    <glyph glyph-name="_0080" unicode="&#x45b;&#x458;" horiz-adv-x="722" vert-adv-y="950" 
d="M697.5 578q-23.5 -23 -56.5 -23t-56 23t-23 56t23 56.5t56 23.5t56.5 -23.5t23.5 -56.5t-23.5 -56zM502.5 -213.5q-49.5 -36.5 -111.5 -36.5q-78 0 -106 58q-46 -58 -127 -58q-47 0 -78 25t-31 72q0 57 43 89t118 48q28 130 33 155q17 77 24 111.5t7 42.5q0 51 -36 51
q-26 0 -46 -25.5t-33 -66.5l-53 -252h-144l106 500h-54l11 54h55l27 126l148 20l-31 -146h125l-12 -54h-125l-26 -121q50 56 118 56q51 0 81 -28t30 -85q0 -13 -6 -44t-23 -109l-35 -165q29 2 45 5l51 5l104 486h144l-97 -459q48 17 79 49t45 89h42q-23 -82 -66 -123.5
t-110 -58.5l-16 -77q-20 -97 -69.5 -133.5zM394 -31l-52 -5l-9 -44q-2 -8 -8 -29t-12 -36q13 -16 43 -16q28 0 45 17.5t26 60.5l12 57q-30 -2 -45 -5zM129 -90q-25 -19 -25 -49q0 -13 9 -23t25 -10q17 0 33 23t25 66l5 24q-47 -12 -72 -31z" />
    <glyph glyph-name="_0081" unicode="&#x45b;&#x447;" horiz-adv-x="990" vert-adv-y="950" 
d="M933.5 32.5q-54.5 -38.5 -109.5 -38.5q-48 0 -77.5 30t-29.5 90q0 25 8 65l5 25q-29 -32 -59 -44t-61 -12q-58 0 -87 41q-22 -91 -69.5 -135.5t-107.5 -61.5l-16 -72q-22 -98 -67 -134t-107 -36q-47 0 -77 25t-30 72q0 59 48 95.5t118 56.5q39 179 49 230t10 64
q0 51 -36 51q-26 0 -46 -25.5t-33 -66.5l-53 -252h-144l106 500h-54l11 54h55l27 126l148 20l-31 -146h125l-12 -54h-125l-26 -121q50 56 118 56q51 0 81 -28t30 -85q0 -16 -9.5 -63t-48.5 -221q51 19 82.5 58t46.5 112l60 292h144l-39 -186q-3 -15 -3 -28q0 -41 30 -41
q29 0 50.5 24.5t29.5 63.5l35 167h144l-72 -340q-4 -15 -4 -32q0 -20 9.5 -28.5t31.5 -8.5q28 0 48.5 24t32.5 64h42q-37 -108 -91.5 -146.5zM105 -139q0 -13 9 -23t25 -10q17 0 33 23t25 66q3 22 7 33q-99 -37 -99 -89z" />
    <glyph glyph-name="_0082" unicode="&#x458;&#x458;" horiz-adv-x="480" vert-adv-y="950" 
d="M215.5 578q-23.5 -23 -56.5 -23t-56 23t-23 56t23 56.5t56 23.5t56.5 -23.5t23.5 -56.5t-23.5 -56zM455.5 578q-23.5 -23 -56.5 -23t-56 23t-23 56t23 56.5t56 23.5t56.5 -23.5t23.5 -56.5t-23.5 -56zM260.5 -213.5q-49.5 -36.5 -111.5 -36.5q-40 0 -66.5 15.5
t-39.5 43.5q-49 -59 -132 -59q-48 0 -80 25t-32 72q0 56 44 88t118 48l109 517h144l-106 -496q31 2 46 5l51 5l104 486h144l-98 -459q48 16 79.5 48.5t45.5 89.5h42q-23 -82 -66 -123.5t-110 -58.5l-16 -77q-20 -97 -69.5 -133.5zM152 -31l-52 -5l-9 -44q-5 -27 -21 -64
q16 -17 44 -17t45 17.5t26 60.5l12 57q-30 -2 -45 -5zM-120.5 -91q-25.5 -19 -25.5 -48q0 -13 9 -23t25 -10q17 0 33 23t25 66l5 23q-46 -12 -71.5 -31z" />
    <glyph glyph-name="_0083" unicode="&#x458;&#x447;" horiz-adv-x="743" vert-adv-y="950" 
d="M215.5 578q-23.5 -23 -56.5 -23t-56 23t-23 56t23 56.5t56 23.5t56.5 -23.5t23.5 -56.5t-23.5 -56zM693.5 32.5q-54.5 -38.5 -109.5 -38.5q-48 0 -77.5 30t-29.5 90q0 25 8 65l5 25q-29 -32 -59 -44t-61 -12q-58 0 -87 41q-21 -91 -69.5 -135.5t-108.5 -61.5l-15 -72
q-20 -97 -69 -133.5t-111 -36.5q-48 0 -80 25t-32 72q0 97 164 149l107 504h144l-99 -464q53 19 85 58.5t47 113.5l60 292h144l-39 -186q-3 -15 -3 -28q0 -41 30 -41q29 0 50.5 24t29.5 64l35 167h144l-72 -340q-4 -15 -4 -32q0 -20 9.5 -28.5t31.5 -8.5q28 0 48.5 24
t32.5 64h42q-37 -108 -91.5 -146.5zM-147 -139q0 -13 9 -23t25 -10q17 0 33 23t25 66l6 29q-98 -36 -98 -85z" />
    <glyph glyph-name="_0084" unicode="&#x437;&#x437;" horiz-adv-x="840" vert-adv-y="950" 
d="M807 46q-48 -42 -108 -57q-2 -113 -53.5 -176t-135.5 -63q-48 0 -80 25t-32 72q0 97 157 147q-2 55 -19.5 80.5t-52.5 25.5h-31l13 60h29q35 0 63 23t44 62.5t16 86.5q0 86 -61 86q-46 0 -80.5 -47t-73.5 -147q-47 -118 -112 -174t-176 -56q-48 0 -81 18.5t-49 48
t-16 61.5q0 33 15.5 57.5t37.5 35.5q39 70 68 141.5t55 154.5l148 20q5 -128 17 -277q5 -60 5 -87q0 -22 -4 -39q8 9 23 38t29 64l12 30q39 95 65 143t66.5 77t104.5 29q73 0 115.5 -42t42.5 -117q0 -60 -28.5 -108.5t-65.5 -78t-61 -34.5q26 -10 49.5 -36.5t32.5 -63.5
q58 17 91 49t54 101h42q-27 -91 -75 -133zM69 214q23 -12 23 -35q0 -19 -12.5 -34t-31.5 -15q-21 0 -27 13q0 -36 14.5 -53t46.5 -17q37 0 62 22t25 71q0 30 -6 84q-10 114 -13 153q-24 -79 -81 -189zM453 -139q0 -15 8.5 -24t25.5 -9q21 0 40 35t25 83q-99 -34 -99 -85z
" />
    <glyph glyph-name="_0085" unicode="&#x437;&#x445;" horiz-adv-x="727" vert-adv-y="950" 
d="M675.5 32.5q-56.5 -38.5 -112.5 -38.5q-49 0 -74.5 33.5t-44.5 114.5q-33 -23 -74.5 -42t-47.5 -22l-51 -24q-29 -31 -71.5 -45.5t-85.5 -14.5q-48 0 -81 18.5t-49 48t-16 61.5q0 33 15.5 57.5t37.5 35.5q39 70 68 141.5t55 154.5l148 20q5 -128 17 -277q5 -60 5 -87
q0 -20 -5 -45q80 33 125 73l-56 305h141l39 -216q45 48 70 90t25 69q0 9 -1 12q-14 -2 -17 -2q-25 0 -36 15.5t-11 40.5q0 22 16 34.5t40 12.5q32 0 50 -25t18 -64q0 -48 -33.5 -103.5t-109.5 -134.5l9 -50q1 -5 6.5 -31.5t18.5 -41.5t34 -15q29 0 54 24.5t36 63.5h42
q-37 -108 -93.5 -146.5zM69 214q23 -12 23 -35q0 -19 -12.5 -34t-31.5 -15q-21 0 -27 13q0 -36 14.5 -53t46.5 -17q37 0 62 22t25 71q0 30 -6 84q-10 114 -13 153q-24 -79 -81 -189z" />
    <glyph glyph-name="_0086" unicode="&#x437;&#x447;" horiz-adv-x="909" vert-adv-y="950" 
d="M859.5 32.5q-54.5 -38.5 -109.5 -38.5q-48 0 -77.5 30t-29.5 90q0 25 8 65l5 25q-29 -32 -59 -44t-61 -12q-37 0 -62.5 17t-37.5 52q-28 -65 -77 -109t-103 -68q-29 -23 -67 -34.5t-75 -11.5q-48 0 -81 18.5t-49 48t-16 61.5q0 33 15.5 57.5t37.5 35.5q39 70 68 141.5
t55 154.5l148 20q5 -128 17 -277q5 -60 5 -87q0 -20 -5 -45q43 32 80.5 98t48.5 118l34 162h144l-39 -186q-3 -15 -3 -28q0 -41 30 -41q29 0 50.5 24.5t29.5 63.5l35 167h144l-72 -340q-4 -15 -4 -32q0 -20 9.5 -28.5t31.5 -8.5q28 0 48.5 24t32.5 64h42
q-37 -108 -91.5 -146.5zM69 214q23 -12 23 -35q0 -19 -12.5 -34t-31.5 -15q-21 0 -27 13q0 -36 14.5 -53t46.5 -17q37 0 62 22t25 71q0 30 -6 84q-10 114 -13 153q-24 -79 -81 -189z" />
    <glyph glyph-name="_0087" unicode="&#x45f;&#x447;" horiz-adv-x="1010" vert-adv-y="950" 
d="M960.5 32.5q-54.5 -38.5 -109.5 -38.5q-48 0 -77.5 30t-29.5 90q0 25 8 65l5 25q-29 -32 -59 -44t-61 -12q-59 0 -87 42q-28 -89 -78.5 -142.5t-125.5 -53.5q-43 0 -68.5 24t-30.5 71q-34 -55 -71.5 -75t-76.5 -20q-48 0 -77.5 30t-29.5 90q0 25 8 65l68 321h144
l-72 -340q-3 -15 -3 -28q0 -41 30 -41q28 0 48 23.5t32 64.5l68 321h144l-72 -340q-4 -15 -4 -32q0 -20 9.5 -28.5t31.5 -8.5q45 0 68.5 61.5t40.5 153.5l6 31l34 163h144l-39 -186q-3 -15 -3 -28q0 -41 30 -41q29 0 50.5 24.5t29.5 63.5l35 167h144l-72 -340q-4 -15 -4 -32
q0 -20 9.5 -28.5t31.5 -8.5q28 0 48.5 24t32.5 64h42q-37 -108 -91.5 -146.5zM195.5 -235q3.5 9 3.5 16q0 11 -5 19.5t-15 22.5q-14 16 -21 29.5t-7 35.5q0 59 53 112h51q-6 -6 -9.5 -14.5t-3.5 -15.5q0 -9 4.5 -17.5t14.5 -22.5q14 -18 22 -34t8 -38q-1 -52 -54 -108h-51
q6 6 9.5 15z" />
    <glyph glyph-name="_0088" unicode="&#x44d;&#x437;" horiz-adv-x="837" vert-adv-y="950" 
d="M804 46q-48 -42 -108 -57q-2 -112 -53.5 -175.5t-135.5 -63.5q-48 0 -80 25t-32 72q0 97 157 147q-3 106 -72 106h-31l13 60h29q35 0 63 23t44 62.5t16 86.5q0 35 -13 60.5t-44 25.5q-29 0 -55.5 -18.5t-70.5 -59.5q-39 -37 -47 -43q-11 -69 -44.5 -138.5t-94.5 -117
t-146 -47.5q-67 0 -101.5 28t-34.5 78q0 40 16.5 62t41.5 22q22 0 37 -14q-13 -35 -13 -68q0 -55 55 -55q44 0 83 57t56 136h-134l13 60h130q2 26 2 38q0 45 -21 66t-66 21q-31 0 -54 -16t-42 -49h-51q31 73 78 111t129 38q75 0 119 -38.5t46 -116.5q1 1 22 25
q39 45 66 70.5t62 42.5t79 17q65 0 106.5 -42.5t41.5 -116.5q0 -60 -28.5 -108.5t-65.5 -78t-61 -34.5q26 -9 49.5 -36t32.5 -64q57 17 89.5 49t55.5 101h42q-27 -91 -75 -133zM450 -139q0 -15 8.5 -24t25.5 -9q21 0 40 35t25 83q-99 -34 -99 -85z" />
    <glyph glyph-name="_0089" unicode="&#x431;&#x430;" horiz-adv-x="1030" vert-adv-y="950" 
d="M980.5 32.5q-54.5 -38.5 -109.5 -38.5q-48 0 -77.5 30t-29.5 90q0 25 8 65l5 25q-29 -32 -59 -44t-61 -12q-57 0 -86 40q-58 -194 -190 -194q-57 0 -86 28.5t-29 82.5q0 24 6 51l12 56q-27 -6 -57 -6q-18 -77 -35 -121t-45 -67.5t-73 -23.5q-54 0 -83 32.5t-29 80.5
q0 36 16.5 58t45.5 22q23 0 37.5 -14.5t14.5 -37.5q0 -24 -11.5 -36t-28.5 -10q1 -13 10 -22.5t29 -9.5q32 0 49.5 36t35.5 118q-44 9 -69.5 38t-25.5 78q0 77 62 125t201 48h152l-73 -340q-4 -15 -4 -32q0 -20 9.5 -28.5t31.5 -8.5q45 0 68 60.5t40 152.5l7 33l34 163h144
l-39 -186q-3 -15 -3 -28q0 -41 30 -41q29 0 50.5 24.5t29.5 63.5l35 167h144l-72 -340q-4 -15 -4 -32q0 -20 9.5 -28.5t31.5 -8.5q28 0 48.5 24t32.5 64h42q-37 -108 -91.5 -146.5zM310 446q-58 0 -88.5 -31.5t-30.5 -84.5q0 -77 72 -77h13q12 0 17 2l41 191h-24z" />
    <glyph glyph-name="_0090" unicode="&#x415;&#x437;" horiz-adv-x="940" vert-adv-y="950" 
d="M907 46q-48 -42 -108 -57q-2 -112 -53.5 -175.5t-135.5 -63.5q-48 0 -80 25t-32 72q0 97 157 147q-3 106 -72 106h-31l13 60h29q35 0 63 23t44 62.5t16 86.5q0 86 -61 86q-45 0 -79 -35.5t-70 -122.5q-54 -133 -125.5 -205.5t-190.5 -72.5q-91 0 -137.5 50t-46.5 126
q0 54 22.5 108.5t64.5 95.5t98 55q-31 22 -46 53.5t-15 66.5q0 52 28.5 102t79 81.5t111.5 31.5q63 0 103 -33t40 -92q0 -44 -22 -74t-52 -30q-27 0 -47 27q18 6 31 33t13 54q0 29 -16 42.5t-39 13.5q-29 0 -52.5 -20.5t-36.5 -53t-13 -67.5q0 -48 25 -84.5t76 -49.5
q-51 -11 -92 -50t-64 -90.5t-23 -98.5q0 -45 23.5 -73t71.5 -28q50 0 83.5 23.5t56 61t52.5 105.5q3 7 5.5 12.5t4.5 9.5q34 78 59 120.5t67 70.5t106 28q73 0 115.5 -42t42.5 -117q0 -60 -28.5 -108.5t-65.5 -78t-61 -34.5q26 -9 49.5 -36t32.5 -64q57 17 89.5 49t55.5 101
h42q-27 -91 -75 -133zM553 -139q0 -15 8.5 -24t25.5 -9q21 0 40 35t25 83q-99 -34 -99 -85z" />
    <glyph glyph-name="_0091" unicode="&#x415;&#x445;" horiz-adv-x="797" vert-adv-y="950" 
d="M745.5 32.5q-56.5 -38.5 -112.5 -38.5q-47 0 -72 30t-43 102q-53 -63 -144.5 -102.5t-176.5 -39.5q-84 0 -137 42.5t-53 131.5q0 54 22.5 108.5t64.5 95.5t98 55q-31 22 -46 53.5t-15 66.5q0 52 28.5 102t79 81.5t111.5 31.5q63 0 103 -33t40 -92q0 -44 -22 -74t-52 -30
q-27 0 -47 27q18 6 31 33t13 54q0 29 -16 42.5t-39 13.5q-29 0 -52.5 -20.5t-36.5 -53t-13 -67.5q0 -48 25 -84.5t76 -49.5q-51 -11 -92 -50t-64 -90.5t-23 -98.5q0 -52 27.5 -77t74.5 -25q55 0 117 31t105 80l-50 274h141l32 -178q45 48 70 90t25 69q0 9 -1 12
q-14 -2 -17 -2q-25 0 -36 15.5t-11 40.5q0 22 16 34.5t40 12.5q32 0 50 -25t18 -64q0 -48 -33.5 -103.5t-109.5 -134.5l9 -50q1 -5 6.5 -31.5t18.5 -41.5t34 -15q29 0 54 24.5t36 63.5h42q-37 -108 -93.5 -146.5z" />
    <glyph glyph-name="_0092" unicode="&#x401;&#x437;" horiz-adv-x="940" vert-adv-y="950" 
d="M255.5 840.5q-17.5 17.5 -17.5 43.5q0 25 17.5 43t43.5 18q25 0 43 -18t18 -43q0 -26 -18 -43.5t-43 -17.5q-26 0 -43.5 17.5zM435.5 840.5q-17.5 17.5 -17.5 43.5q0 25 17.5 43t43.5 18q25 0 43 -18t18 -43q0 -26 -18 -43.5t-43 -17.5q-26 0 -43.5 17.5zM907 46
q-48 -42 -108 -57q-2 -112 -53.5 -175.5t-135.5 -63.5q-48 0 -80 25t-32 72q0 97 157 147q-3 106 -72 106h-31l13 60h29q35 0 63 23t44 62.5t16 86.5q0 86 -61 86q-45 0 -79 -35.5t-70 -122.5q-54 -133 -125.5 -205.5t-190.5 -72.5q-91 0 -137.5 50t-46.5 126
q0 54 22.5 108.5t64.5 95.5t98 55q-31 22 -46 53.5t-15 66.5q0 52 28.5 102t79 81.5t111.5 31.5q63 0 103 -33t40 -92q0 -44 -22 -74t-52 -30q-27 0 -47 27q18 6 31 33t13 54q0 29 -16 42.5t-39 13.5q-29 0 -52.5 -20.5t-36.5 -53t-13 -67.5q0 -48 25 -84.5t76 -49.5
q-51 -11 -92 -50t-64 -90.5t-23 -98.5q0 -45 23.5 -73t71.5 -28q50 0 83.5 23.5t56 61t52.5 105.5q3 7 5.5 12.5t4.5 9.5q34 78 59 120.5t67 70.5t106 28q73 0 115.5 -42t42.5 -117q0 -60 -28.5 -108.5t-65.5 -78t-61 -34.5q26 -9 49.5 -36t32.5 -64q57 17 89.5 49t55.5 101
h42q-27 -91 -75 -133zM553 -139q0 -15 8.5 -24t25.5 -9q21 0 40 35t25 83q-99 -34 -99 -85z" />
    <glyph glyph-name="_0093" unicode="&#x401;&#x445;" horiz-adv-x="797" vert-adv-y="950" 
d="M255.5 840.5q-17.5 17.5 -17.5 43.5q0 25 17.5 43t43.5 18q25 0 43 -18t18 -43q0 -26 -18 -43.5t-43 -17.5q-26 0 -43.5 17.5zM435.5 840.5q-17.5 17.5 -17.5 43.5q0 25 17.5 43t43.5 18q25 0 43 -18t18 -43q0 -26 -18 -43.5t-43 -17.5q-26 0 -43.5 17.5zM745.5 32.5
q-56.5 -38.5 -112.5 -38.5q-47 0 -72 30t-43 102q-53 -63 -144.5 -102.5t-176.5 -39.5q-84 0 -137 42.5t-53 131.5q0 54 22.5 108.5t64.5 95.5t98 55q-31 22 -46 53.5t-15 66.5q0 52 28.5 102t79 81.5t111.5 31.5q63 0 103 -33t40 -92q0 -44 -22 -74t-52 -30q-27 0 -47 27
q18 6 31 33t13 54q0 29 -16 42.5t-39 13.5q-29 0 -52.5 -20.5t-36.5 -53t-13 -67.5q0 -48 25 -84.5t76 -49.5q-51 -11 -92 -50t-64 -90.5t-23 -98.5q0 -52 27.5 -77t74.5 -25q55 0 117 31t105 80l-50 274h141l32 -178q45 48 70 90t25 69q0 9 -1 12q-14 -2 -17 -2
q-25 0 -36 15.5t-11 40.5q0 22 16 34.5t40 12.5q32 0 50 -25t18 -64q0 -48 -33.5 -103.5t-109.5 -134.5l9 -50q1 -5 6.5 -31.5t18.5 -41.5t34 -15q29 0 54 24.5t36 63.5h42q-37 -108 -93.5 -146.5z" />
    <glyph glyph-name="_0094" unicode="&#x421;&#x437;" horiz-adv-x="973" vert-adv-y="950" 
d="M940 46q-48 -42 -108 -57q-2 -112 -53.5 -175.5t-135.5 -63.5q-48 0 -80 25t-32 72q0 97 157 147q-3 106 -72 106h-31l13 60h29q35 0 63 23t44 62.5t16 86.5q0 86 -61 86q-46 0 -80.5 -36t-68.5 -122q-32 -85 -80 -147t-105.5 -95.5t-116.5 -33.5q-113 0 -166 57t-53 189
q0 105 35.5 226t114 207.5t199.5 86.5q75 0 121 -33t46 -101q0 -43 -17 -67.5t-53 -24.5t-57 26q18 9 32 36t14 56q0 27 -14.5 44t-46.5 17q-53 0 -101 -72.5t-77.5 -182.5t-29.5 -212q0 -76 26 -116t94 -40q60 0 105.5 44.5t90.5 143.5q3 7 5.5 12.5t4.5 9.5
q34 78 59 120.5t67 70.5t106 28q73 0 115.5 -42t42.5 -117q0 -60 -28.5 -108.5t-65.5 -78t-61 -34.5q26 -9 49.5 -36t32.5 -64q57 17 89.5 49t55.5 101h42q-27 -91 -75 -133zM586 -139q0 -15 8.5 -24t25.5 -9q21 0 40 35t25 83q-99 -34 -99 -85z" />
    <glyph glyph-name="_0095" unicode="&#x421;&#x445;" horiz-adv-x="814" vert-adv-y="950" 
d="M762.5 32.5q-56.5 -38.5 -112.5 -38.5q-47 0 -72 30t-43 103q-41 -49 -98 -81t-112.5 -47t-96.5 -15q-108 0 -158.5 57t-50.5 189q0 105 35.5 226t114 207.5t199.5 86.5q75 0 121 -33t46 -101q0 -43 -17 -67.5t-53 -24.5t-57 26q18 9 32 36t14 56q0 27 -14.5 44t-46.5 17
q-53 0 -101 -72.5t-77.5 -182.5t-29.5 -212q0 -76 26 -116t94 -40q60 0 117.5 30.5t99.5 78.5l-50 273h141l32 -178q45 48 70 90t25 69q0 9 -1 12q-14 -2 -17 -2q-25 0 -36 15.5t-11 40.5q0 22 16 34.5t40 12.5q32 0 50 -25t18 -64q0 -48 -33.5 -103.5t-109.5 -134.5l9 -50
q1 -5 6.5 -31.5t18.5 -41.5t34 -15q29 0 54 24.5t36 63.5h42q-37 -108 -93.5 -146.5z" />
    <glyph glyph-name="_0096" unicode="&#x404;&#x437;" horiz-adv-x="973" vert-adv-y="950" 
d="M940 46q-48 -42 -108 -57q-2 -112 -53.5 -175.5t-135.5 -63.5q-48 0 -80 25t-32 72q0 97 157 147q-3 106 -72 106h-31l13 60h29q35 0 63 23t44 62.5t16 86.5q0 86 -61 86q-46 0 -80.5 -36t-68.5 -122q-32 -85 -80 -147t-105.5 -95.5t-116.5 -33.5q-113 0 -166 57t-53 189
q0 105 35.5 226t114 207.5t199.5 86.5q75 0 121 -33t46 -101q0 -43 -17 -67.5t-53 -24.5t-57 26q18 9 32 36t14 56q0 27 -14.5 44t-46.5 17q-52 0 -100.5 -72.5t-77.5 -180.5h191l-16 -74h-192q-13 -76 -13 -140q0 -76 26 -116t94 -40q60 0 105.5 44.5t90.5 143.5
q3 7 5.5 12.5t4.5 9.5q34 78 59 120.5t67 70.5t106 28q73 0 115.5 -42t42.5 -117q0 -60 -28.5 -108.5t-65.5 -78t-61 -34.5q26 -9 49.5 -36t32.5 -64q57 17 89.5 49t55.5 101h42q-27 -91 -75 -133zM586 -139q0 -15 8.5 -24t25.5 -9q21 0 40 35t25 83q-99 -34 -99 -85z" />
    <glyph glyph-name="_0097" unicode="&#x404;&#x445;" horiz-adv-x="814" vert-adv-y="950" 
d="M762.5 32.5q-56.5 -38.5 -112.5 -38.5q-47 0 -72 30t-43 103q-41 -49 -98 -81t-112.5 -47t-96.5 -15q-108 0 -158.5 57t-50.5 189q0 105 35.5 226t114 207.5t199.5 86.5q75 0 121 -33t46 -101q0 -43 -17 -67.5t-53 -24.5t-57 26q18 9 32 36t14 56q0 27 -14.5 44t-46.5 17
q-52 0 -100.5 -72.5t-77.5 -180.5h191l-16 -74h-192q-13 -76 -13 -140q0 -76 26 -116t94 -40q60 0 117.5 30.5t99.5 78.5l-50 273h141l32 -178q45 48 70 90t25 69q0 9 -1 12q-14 -2 -17 -2q-25 0 -36 15.5t-11 40.5q0 22 16 34.5t40 12.5q32 0 50 -25t18 -64
q0 -48 -33.5 -103.5t-109.5 -134.5l9 -50q1 -5 6.5 -31.5t18.5 -41.5t34 -15q29 0 54 24.5t36 63.5h42q-37 -108 -93.5 -146.5z" />
    <glyph glyph-name="_0098" unicode="&#x435;&#x445;" horiz-adv-x="762" vert-adv-y="950" 
d="M711 32.5q-56 -38.5 -110 -38.5q-50 0 -76 31t-44 108q-60 -63 -146.5 -101t-169.5 -38q-80 0 -129 39t-49 124q0 66 27 148t88 143t155 61q110 0 110 -96q0 -56 -32 -103t-85 -75.5t-114 -32.5q-1 -9 -1 -27q0 -99 100 -99q57 0 122 30t113 84l-57 310h141l39 -216
q45 48 70 90t25 69q0 9 -1 12q-14 -2 -18 -2q-24 0 -35 15t-11 37q0 25 15 38t39 13q34 0 52 -24.5t18 -62.5q0 -48 -33 -103t-110 -138l9 -49q1 -5 6.5 -31.5t18.5 -41.5t34 -15q29 0 54 24.5t36 63.5h42q-37 -108 -93 -146.5zM215.5 275q33.5 24 54 61.5t20.5 78.5t-25 41
q-35 0 -70 -64.5t-51 -141.5q38 1 71.5 25z" />
    <glyph glyph-name="_0099" unicode="&#x451;&#x445;" horiz-adv-x="762" vert-adv-y="950" 
d="M136.5 590.5q-17.5 17.5 -17.5 43.5q0 25 17.5 43t43.5 18q25 0 43 -18t18 -43q0 -26 -18 -43.5t-43 -17.5q-26 0 -43.5 17.5zM316.5 590.5q-17.5 17.5 -17.5 43.5q0 25 17.5 43t43.5 18q25 0 43 -18t18 -43q0 -26 -18 -43.5t-43 -17.5q-26 0 -43.5 17.5zM711 32.5
q-56 -38.5 -110 -38.5q-50 0 -76 31t-44 108q-60 -63 -146.5 -101t-169.5 -38q-80 0 -129 39t-49 124q0 66 27 148t88 143t155 61q110 0 110 -96q0 -56 -32 -103t-85 -75.5t-114 -32.5q-1 -9 -1 -27q0 -99 100 -99q57 0 122 30t113 84l-57 310h141l39 -216q45 48 70 90
t25 69q0 9 -1 12q-14 -2 -18 -2q-24 0 -35 15t-11 37q0 25 15 38t39 13q34 0 52 -24.5t18 -62.5q0 -48 -33 -103t-110 -138l9 -49q1 -5 6.5 -31.5t18.5 -41.5t34 -15q29 0 54 24.5t36 63.5h42q-37 -108 -93 -146.5zM215.5 275q33.5 24 54 61.5t20.5 78.5t-25 41
q-35 0 -70 -64.5t-51 -141.5q38 1 71.5 25z" />
    <glyph glyph-name="_0100" unicode="&#x43e;&#x445;" horiz-adv-x="850" vert-adv-y="950" 
d="M798.5 32.5q-56.5 -38.5 -112.5 -38.5q-36 0 -59.5 18.5t-38.5 58.5t-28 108l-2 7q-90 -63 -90 -112q3 1 13 1q41 0 41 -49q0 -28 -15 -41.5t-41 -13.5q-33 0 -49.5 19t-16.5 52q0 47 44.5 104t103.5 96l-28 155q-61 -73 -135 -96q-8 -92 -41.5 -161t-85.5 -106.5
t-113 -37.5q-74 0 -117 38t-43 120q0 68 28 151t90 143.5t156 60.5q127 0 128 -157q55 6 123 100l-9 48h141l36 -198q49 43 73.5 78t24.5 63q0 9 -1 12q-14 -2 -17 -2q-25 0 -36 15.5t-11 40.5q0 22 16 34.5t40 12.5q32 0 50 -25t18 -64q0 -50 -34 -101t-112 -121l12 -66
q1 -5 6.5 -31.5t18.5 -41.5t34 -15q29 0 54 24.5t36 63.5h42q-37 -108 -93.5 -146.5zM274 338q0 42 31 53q-2 32 -10.5 44.5t-27.5 12.5q-33 0 -64 -48t-50 -115t-19 -118q0 -48 11 -64.5t40 -16.5q24 0 48 27.5t42 74.5t26 105q-27 8 -27 45z" />
    <glyph glyph-name="_0101" unicode="&#x440;&#x437;" horiz-adv-x="890" vert-adv-y="950" 
d="M857 46q-48 -42 -108 -57q-2 -112 -53.5 -175.5t-135.5 -63.5q-48 0 -80 25t-32 72q0 97 157 147q-3 106 -72 106h-31l13 60h29q35 0 63 23t44 62.5t16 86.5q0 35 -13 60.5t-44 25.5q-28 0 -57 -20.5t-72 -61.5l-40 -36q-6 -75 -32 -144.5t-79 -115.5t-133 -46
q-64 0 -85 36l-52 -244l-151 -36l167 787h144l-16 -75q50 43 117 43q54 0 87 -35t35 -114l19 21q38 44 66 70.5t63.5 44t78.5 17.5q65 0 106.5 -42.5t41.5 -116.5q0 -60 -28.5 -108.5t-65.5 -78t-61 -34.5q26 -9 49.5 -36t32.5 -64q57 17 89.5 49t55.5 101h42
q-27 -91 -75 -133zM166 81q48 0 79.5 45t46 107.5t14.5 116.5q0 83 -50 83q-18 0 -36.5 -13t-32.5 -36l-59 -280q8 -23 38 -23zM503 -139q0 -15 8.5 -24t25.5 -9q21 0 40 35t25 83q-99 -34 -99 -85z" />
    <glyph glyph-name="_0102" unicode="&#x441;&#x445;" horiz-adv-x="755" vert-adv-y="950" 
d="M704 32.5q-56 -38.5 -110 -38.5q-50 0 -77 32t-43 106q-63 -63 -149 -100.5t-167 -37.5q-80 0 -129 39.5t-49 124.5q0 65 27 147.5t87.5 143t154.5 60.5q61 0 86 -26t25 -67q0 -36 -15.5 -54t-37.5 -18q-19 0 -35 12q12 32 12 59q0 41 -27 41q-30 0 -60 -49.5t-49.5 -117
t-19.5 -114.5q0 -99 101 -99q57 0 121.5 30t112.5 84l-57 310h141l39 -216q45 48 70 90t25 69q0 9 -1 12q-14 -2 -18 -2q-24 0 -35 15t-11 37q0 25 15 38t39 13q34 0 52 -24.5t18 -62.5q0 -48 -33 -103t-110 -138l9 -49q1 -5 6.5 -31.5t18.5 -41.5t34 -15q29 0 54 24.5
t36 63.5h42q-37 -108 -93 -146.5z" />
    <glyph glyph-name="_0104" unicode="&#x444;&#x437;" horiz-adv-x="1148" vert-adv-y="950" 
d="M1115 46q-48 -42 -108 -57q-2 -112 -53.5 -175.5t-135.5 -63.5q-48 0 -80 25t-32 72q0 97 157 147q-3 106 -72 106h-31l13 60h29q35 0 63 23t44 62.5t16 86.5q0 35 -13 60.5t-44 25.5q-29 0 -56.5 -19.5t-71.5 -61.5q-44 -41 -43 -40h-1q-11 -134 -71.5 -218.5
t-176.5 -84.5q-60 0 -81 36l-52 -244l-141 -36l66 299q-51 -55 -116 -55t-101.5 40t-36.5 121q0 113 63 225q31 56 82 90.5t112 34.5q82 0 82 -55l50 230l138 20l-54 -238q49 43 117 43q119 0 122 -151h1q1 1 22 25q39 45 66 70.5t62 42.5t79 17q65 0 106.5 -42.5
t41.5 -116.5q0 -60 -28.5 -108.5t-65.5 -78t-61 -34.5q26 -9 49.5 -36t32.5 -64q57 17 89.5 49t55.5 101h42q-27 -91 -75 -133zM271 443q-36 0 -71 -50q-33 -49 -50 -112q-17 -68 -17 -111q0 -29 6 -46.5t14 -23.5q9 -9 26 -9q23 0 47 18t36 53l53 247q-6 34 -44 34z
M400.5 87q13.5 -6 29.5 -6q43 0 75 38t49 100t17 131q0 41 -15 62t-41 21q-21 0 -40 -12.5t-33 -36.5l-59 -280q4 -11 17.5 -17zM761 -139q0 -15 8.5 -24t25.5 -9q21 0 40 35t25 83q-99 -34 -99 -85z" />
    <glyph glyph-name="_0105" unicode="&#x400;&#x437;" horiz-adv-x="940" vert-adv-y="950" 
d="M267 1000h105l29 -189h-75zM907 46q-48 -42 -108 -57q-2 -112 -53.5 -175.5t-135.5 -63.5q-48 0 -80 25t-32 72q0 97 157 147q-3 106 -72 106h-31l13 60h29q35 0 63 23t44 62.5t16 86.5q0 86 -61 86q-45 0 -79 -35.5t-70 -122.5q-54 -133 -125.5 -205.5t-190.5 -72.5
q-91 0 -137.5 50t-46.5 126q0 54 22.5 108.5t64.5 95.5t98 55q-31 22 -46 53.5t-15 66.5q0 52 28.5 102t79 81.5t111.5 31.5q63 0 103 -33t40 -92q0 -44 -22 -74t-52 -30q-27 0 -47 27q18 6 31 33t13 54q0 29 -16 42.5t-39 13.5q-29 0 -52.5 -20.5t-36.5 -53t-13 -67.5
q0 -48 25 -84.5t76 -49.5q-51 -11 -92 -50t-64 -90.5t-23 -98.5q0 -45 23.5 -73t71.5 -28q50 0 83.5 23.5t56 61t52.5 105.5q3 7 5.5 12.5t4.5 9.5q34 78 59 120.5t67 70.5t106 28q73 0 115.5 -42t42.5 -117q0 -60 -28.5 -108.5t-65.5 -78t-61 -34.5q26 -9 49.5 -36
t32.5 -64q57 17 89.5 49t55.5 101h42q-27 -91 -75 -133zM553 -139q0 -15 8.5 -24t25.5 -9q21 0 40 35t25 83q-99 -34 -99 -85z" />
    <glyph glyph-name="_0106" unicode="&#x400;&#x445;" horiz-adv-x="797" vert-adv-y="950" 
d="M267 1000h105l29 -189h-75zM745.5 32.5q-56.5 -38.5 -112.5 -38.5q-47 0 -72 30t-43 102q-53 -63 -144.5 -102.5t-176.5 -39.5q-84 0 -137 42.5t-53 131.5q0 54 22.5 108.5t64.5 95.5t98 55q-31 22 -46 53.5t-15 66.5q0 52 28.5 102t79 81.5t111.5 31.5q63 0 103 -33
t40 -92q0 -44 -22 -74t-52 -30q-27 0 -47 27q18 6 31 33t13 54q0 29 -16 42.5t-39 13.5q-29 0 -52.5 -20.5t-36.5 -53t-13 -67.5q0 -48 25 -84.5t76 -49.5q-51 -11 -92 -50t-64 -90.5t-23 -98.5q0 -52 27.5 -77t74.5 -25q55 0 117 31t105 80l-50 274h141l32 -178
q45 48 70 90t25 69q0 9 -1 12q-14 -2 -17 -2q-25 0 -36 15.5t-11 40.5q0 22 16 34.5t40 12.5q32 0 50 -25t18 -64q0 -48 -33.5 -103.5t-109.5 -134.5l9 -50q1 -5 6.5 -31.5t18.5 -41.5t34 -15q29 0 54 24.5t36 63.5h42q-37 -108 -93.5 -146.5z" />
    <glyph glyph-name="_0107" unicode="&#x450;&#x447;" horiz-adv-x="889" vert-adv-y="950" 
d="M173 750h105l29 -189h-75zM839.5 32.5q-54.5 -38.5 -109.5 -38.5q-48 0 -77.5 30t-29.5 90q0 25 8 65l5 25q-29 -32 -59 -44t-61 -12q-73 0 -97 61q-47 -89 -120.5 -152t-155.5 -63q-74 0 -115 38.5t-41 120.5q0 69 27 152t88 143.5t155 60.5q110 0 110 -96
q0 -56 -32 -103t-85 -75.5t-113 -32.5q-2 -30 -2 -40q0 -48 16.5 -66t51.5 -18q38 0 83 35t81 94t50 126l35 167h144l-39 -186q-3 -15 -3 -28q0 -41 30 -41q29 0 50.5 24.5t29.5 63.5l35 167h144l-72 -340q-4 -15 -4 -32q0 -20 9.5 -28.5t31.5 -8.5q28 0 48.5 24t32.5 64h42
q-37 -108 -91.5 -146.5zM215.5 276q33.5 24 54 61t20.5 78t-25 41q-36 0 -70.5 -63t-49.5 -143q37 2 70.5 26z" />
    <glyph glyph-name="_0108" unicode="&#x450;&#x437;" horiz-adv-x="876" vert-adv-y="950" 
d="M173 750h105l29 -189h-75zM843 46q-48 -42 -108 -57q-2 -112 -53.5 -175.5t-135.5 -63.5q-48 0 -80 25t-32 72q0 97 157 147q-3 106 -72 106h-31l13 60h29q35 0 63 23t44 62.5t16 86.5q0 86 -61 86q-45 0 -79 -35.5t-70 -122.5q-33 -79 -69.5 -135.5t-93.5 -93.5
t-137 -37q-74 0 -115 38.5t-41 120.5q0 69 27 152t88 143.5t155 60.5q110 0 110 -96q0 -56 -32 -103t-85 -75.5t-113 -32.5q-2 -30 -2 -40q0 -49 17 -66.5t55 -17.5q53 0 89 25t59 64t49 101q3 7 5.5 12.5t4.5 9.5q34 78 59 120.5t67 70.5t106 28q73 0 115.5 -42t42.5 -117
q0 -60 -28.5 -108.5t-65.5 -78t-61 -34.5q26 -9 49.5 -36t32.5 -64q57 17 89.5 49t55.5 101h42q-27 -91 -75 -133zM215.5 276q33.5 24 54 61t20.5 78t-25 41q-36 0 -70.5 -63t-49.5 -143q37 2 70.5 26zM489 -139q0 -15 8.5 -24t25.5 -9q21 0 40 35t25 83q-99 -34 -99 -85z
" />
    <glyph glyph-name="_0109" unicode="&#x450;&#x445;" horiz-adv-x="762" vert-adv-y="950" 
d="M173 750h105l29 -189h-75zM711 32.5q-56 -38.5 -110 -38.5q-50 0 -76 31t-44 108q-60 -63 -146.5 -101t-169.5 -38q-80 0 -129 39t-49 124q0 66 27 148t88 143t155 61q110 0 110 -96q0 -56 -32 -103t-85 -75.5t-114 -32.5q-1 -9 -1 -27q0 -99 100 -99q57 0 122 30t113 84
l-57 310h141l39 -216q45 48 70 90t25 69q0 9 -1 12q-14 -2 -18 -2q-24 0 -35 15t-11 37q0 25 15 38t39 13q34 0 52 -24.5t18 -62.5q0 -48 -33 -103t-110 -138l9 -49q1 -5 6.5 -31.5t18.5 -41.5t34 -15q29 0 54 24.5t36 63.5h42q-37 -108 -93 -146.5zM215.5 275
q33.5 24 54 61.5t20.5 78.5t-25 41q-35 0 -70 -64.5t-51 -141.5q38 1 71.5 25z" />
    <glyph glyph-name="_0110" unicode="&#x45d;&#x447;" horiz-adv-x="1010" vert-adv-y="950" 
d="M185 750h105l29 -189h-75zM960.5 32.5q-54.5 -38.5 -109.5 -38.5q-48 0 -77.5 30t-29.5 90q0 25 8 65l5 25q-29 -32 -59 -44t-61 -12q-59 0 -87 42q-28 -89 -78.5 -142.5t-125.5 -53.5q-43 0 -68.5 24t-30.5 71q-34 -55 -71.5 -75t-76.5 -20q-48 0 -77.5 30t-29.5 90
q0 25 8 65l68 321h144l-72 -340q-3 -15 -3 -28q0 -41 30 -41q28 0 48 23.5t32 64.5l68 321h144l-72 -340q-4 -15 -4 -32q0 -20 9.5 -28.5t31.5 -8.5q45 0 68.5 61.5t40.5 153.5l6 31l34 163h144l-39 -186q-3 -15 -3 -28q0 -41 30 -41q29 0 50.5 24t29.5 64l35 167h144
l-72 -340q-4 -15 -4 -32q0 -20 9.5 -28.5t31.5 -8.5q28 0 48.5 24t32.5 64h42q-37 -108 -91.5 -146.5z" />
    <glyph glyph-name=".notdef" horiz-adv-x="385" vert-adv-y="950" 
 />
    <glyph glyph-name=".null" horiz-adv-x="0" vert-adv-y="0" 
 />
    <glyph glyph-name="nonmarkingreturn" horiz-adv-x="333" 
 />
    <glyph glyph-name="space" unicode=" " horiz-adv-x="217" vert-adv-y="950" 
 />
    <glyph glyph-name="exclam" unicode="!" horiz-adv-x="257" vert-adv-y="950" 
d="M169 700h144l-130 -469h-85zM57.5 23.5q-23.5 23.5 -23.5 56.5t23.5 56t56.5 23t56 -23t23 -56t-23 -56.5t-56 -23.5t-56.5 23.5z" />
    <glyph glyph-name="quotedbl" unicode="&#x22;" horiz-adv-x="420" vert-adv-y="950" 
d="M123 750h105l-91 -189h-75zM280 750h105l-91 -189h-75z" />
    <glyph glyph-name="numbersign" unicode="#" horiz-adv-x="659" vert-adv-y="950" 
d="M364 -27h-57l25 138h-118l-30 -138h-57l25 138h-107l21 102h104l21 113h-102l21 102h99l52 290h88l-65 -290h105l52 290h88l-65 -290h104l-20 -102h-106l-25 -113h107l-20 -102h-110zM262 326l-25 -113h113l21 113h-109z" />
    <glyph glyph-name="dollar" unicode="$" horiz-adv-x="403" vert-adv-y="950" 
d="M134 108q-50 4 -80 31t-30 83q0 38 21 62t51 24q20 0 31.5 -7.5t11.5 -17.5q-20 -4 -30 -23.5t-10 -50.5q0 -21 11.5 -36.5t30.5 -24.5l36 196q-8 7 -24 19q-42 34 -62 58t-20 60t22.5 65.5t58 46.5t73.5 19l19 106h58l-25 -109q39 -7 63 -25.5t24 -57.5q0 -36 -12.5 -56
t-35.5 -20q-12 0 -20.5 5.5t-18.5 17.5q24 16 24 52q0 13 -8 25.5t-24 18.5l-36 -161l17 -12q32 -22 51 -39t32 -42.5t13 -59.5q0 -70 -49.5 -108t-130.5 -40l-29 -134h-27zM178.5 547.5q-12.5 -20.5 -12.5 -47.5q0 -33 28 -61l24 135q-27 -6 -39.5 -26.5zM225 173.5
q16 24.5 16 60.5q0 40 -29 76l-37 -166q34 5 50 29.5z" />
    <glyph glyph-name="percent" unicode="%" horiz-adv-x="644" vert-adv-y="950" 
d="M507 750h72l-386 -750h-72zM127.5 402q-20.5 28 -20.5 86q0 59 19.5 108t56.5 77.5t86 28.5q43 0 62.5 -28.5t19.5 -84.5q0 -45 -18 -95.5t-51.5 -85t-78.5 -34.5q-55 0 -75.5 28zM267.5 468q23.5 57 23.5 136q0 30 -5 46.5t-20 16.5t-33.5 -17.5t-33 -51.5t-18.5 -79
q-2 -24 -2 -43q0 -65 27 -65q38 0 61.5 57zM375.5 28q-20.5 28 -20.5 86q0 59 19.5 108t56.5 77.5t86 28.5q44 0 68 -29t24 -84q0 -48 -16.5 -97.5t-52 -83.5t-89.5 -34q-55 0 -75.5 28zM509 91q22 54 22 132q0 29 -6.5 48.5t-21.5 19.5t-32 -17t-30 -50t-17 -79
q-2 -24 -2 -43q0 -65 27 -65q38 0 60 54z" />
    <glyph glyph-name="ampersand" unicode="&#x26;" horiz-adv-x="682" vert-adv-y="950" 
d="M661 355q-21 -30 -56 -52.5t-75 -28.5q-36 -127 -88 -188.5t-104 -76.5t-120 -15q-66 0 -113 28t-70.5 74.5t-23.5 99.5q0 49 21 95.5t61.5 80t98.5 45.5q-49 27 -74 67t-25 85q0 47 26.5 88.5t77 67t118.5 25.5q77 0 130.5 -33.5t53.5 -100.5q0 -43 -17 -67.5t-53 -24.5
t-57 26q17 6 30.5 33.5t13.5 48.5q0 26 -12.5 50t-53.5 24q-53 0 -87.5 -36t-34.5 -87q0 -48 32 -91t100 -74q-90 -37 -132 -90.5t-42 -110.5q0 -36 16 -66.5t43 -48.5t58 -18q60 0 109.5 43.5t71.5 144.5q-50 6 -71 6q-65 0 -94 -45l-7 1q15 64 66 102.5t127 38.5
q21 0 40 -3q24 -2 36 -2q31 0 57 10.5t38 32.5h6q0 -28 -21 -58z" />
    <glyph glyph-name="quotesingle" unicode="'" horiz-adv-x="268" vert-adv-y="950" 
d="M163 750h105l-91 -189h-75z" />
    <glyph glyph-name="parenleft" unicode="(" horiz-adv-x="437" vert-adv-y="950" 
d="M166 -97q-28 90 -28 197q0 132 40.5 264.5t115 235.5t170.5 150l13 -40q-73 -37 -134 -138t-96.5 -235t-35.5 -264q0 -185 73 -294l-33 -29q-57 63 -85 153z" />
    <glyph glyph-name="parenright" unicode=")" horiz-adv-x="413" vert-adv-y="950" 
d="M105 -72q61 101 96.5 235t35.5 264q0 88 -18 163.5t-55 130.5l33 29q57 -63 85 -153t28 -197q0 -132 -40.5 -264.5t-115 -235.5t-170.5 -150l-13 40q73 37 134 138z" />
    <glyph glyph-name="asterisk" unicode="*" horiz-adv-x="515" vert-adv-y="950" 
d="M287 376h-64v135l-107 -62l-30 52l109 63l-109 63l30 52l107 -62v135h64v-135l107 62l30 -52l-109 -63l109 -63l-30 -52l-107 62v-135z" />
    <glyph glyph-name="plus" unicode="+" horiz-adv-x="515" vert-adv-y="950" 
d="M267 82h-113l27 123h-128l24 112h128l27 122h113l-27 -122h127l-23 -112h-128z" />
    <glyph glyph-name="comma" unicode="," horiz-adv-x="216" vert-adv-y="950" 
d="M32 -109q0 12 6 21t20 24t20 24t6 22q0 11 -13 20q-47 30 -47 73q0 33 23 56.5t56 23.5q32 0 50 -21t18 -55q0 -47 -35.5 -106t-94.5 -99q-9 6 -9 17z" />
    <glyph glyph-name="hyphen" unicode="-" horiz-adv-x="290" vert-adv-y="950" 
d="M37 301h200l-17 -79h-201z" />
    <glyph glyph-name="period" unicode="." horiz-adv-x="263" vert-adv-y="950" 
d="M166.5 19q-23.5 -23 -56.5 -23t-56 23t-23 56t23 56.5t56 23.5t56.5 -23.5t23.5 -56.5t-23.5 -56z" />
    <glyph glyph-name="slash" unicode="/" horiz-adv-x="311" vert-adv-y="950" 
d="M223 750h72l-212 -1000h-72z" />
    <glyph glyph-name="zero" unicode="0" horiz-adv-x="546" vert-adv-y="950" 
d="M108.5 21q-45.5 30 -62 86.5t-16.5 146.5q0 137 42.5 250.5t121 179.5t183.5 66q92 0 135 -65.5t43 -195.5q0 -106 -38.5 -222.5t-111 -196t-168.5 -79.5q-83 0 -128.5 30zM338 144.5q41 69.5 63.5 179.5t22.5 229q0 72 -11 108.5t-43 36.5q-31 0 -71 -48.5t-71.5 -134
t-39.5 -190.5q-5 -45 -5 -99q0 -151 59 -151q55 0 96 69.5z" />
    <glyph glyph-name="one" unicode="1" horiz-adv-x="317" vert-adv-y="950" 
d="M153 624h-95l12 46q55 0 114 15t140 63l-159 -748h-144z" />
    <glyph glyph-name="two" unicode="2" horiz-adv-x="492" vert-adv-y="950" 
d="M195 124q66 -10 107 -10q42 0 64.5 12t42.5 31t27 26q1 -16 1 -44q0 -53 -9.5 -85t-35 -48.5t-74.5 -16.5q-37 0 -64.5 4.5t-63.5 13.5q-35 9 -61 13.5t-59 4.5q-18 0 -45 -12.5t-34 -15.5q-2 9 -2 19.5v13.5q0 49 20.5 93t50.5 80t82 89q58 60 92.5 103t59 98t24.5 120
q0 35 -19 58.5t-42 23.5q-48 0 -64.5 -19.5t-16.5 -61.5q0 -21 9.5 -42t28.5 -26q-37 -34 -76 -34q-32 0 -52 23.5t-20 66.5q0 37 21 70.5t67.5 55t117.5 21.5q190 0 190 -161q0 -67 -30 -123t-73.5 -98t-112.5 -98q-54 -44 -87 -74.5t-53 -62.5h5q26 0 84 -8z" />
    <glyph glyph-name="three" unicode="3" horiz-adv-x="514" vert-adv-y="950" 
d="M291 465.5q39 32.5 59 72t20 75.5q0 37 -19.5 59.5t-56.5 22.5q-36 0 -57.5 -21.5t-21.5 -56.5q0 -24 9.5 -45t28.5 -26q-37 -34 -76 -34q-31 0 -51.5 22.5t-20.5 62.5q0 45 27.5 79.5t74.5 53.5t105 19q59 0 101 -20t63.5 -53t21.5 -73q0 -52 -35 -102t-102 -84
q63 -21 94.5 -64.5t31.5 -100.5q0 -62 -35.5 -121.5t-100 -97.5t-146.5 -38q-71 0 -135 35t-64 135q0 65 31.5 104t89.5 39q68 0 78 -51q-51 -3 -69.5 -35t-18.5 -73q0 -52 21 -70.5t55 -18.5q42 0 73.5 23.5t48.5 62t17 83.5q0 61 -33.5 113.5t-99.5 75.5q53 15 92 47.5z
" />
    <glyph glyph-name="four" unicode="4" horiz-adv-x="476" vert-adv-y="950" 
d="M252 275h-244q13 40 54 124q45 95 68.5 161t23.5 130q0 33 -7 60q47 0 79 -25t32 -70q0 -60 -23.5 -108t-69.5 -115q-38 -54 -53 -83h156l81 381l148 20l-86 -401h64l-20 -74h-60l-58 -275h-144z" />
    <glyph glyph-name="five" unicode="5" horiz-adv-x="517" vert-adv-y="950" 
d="M209 728q86 -11 129 -11q81 0 162 32q2 -22 2 -33q0 -52 -27.5 -84t-87.5 -32q-23 0 -55 5t-61 11q-25 5 -51 9l-40 -181q63 31 125 31q86 0 131 -58.5t45 -148.5q0 -73 -31 -135t-96.5 -100t-162.5 -38q-176 0 -176 144q0 72 39 107t91 35q61 0 71 -51
q-41 -6 -65.5 -29.5t-24.5 -66.5q0 -40 24 -56t58 -16q40 0 69 27t43.5 69.5t14.5 87.5q0 71 -29 108t-81 37q-36 0 -72.5 -15.5t-76.5 -40.5l82 399z" />
    <glyph glyph-name="six" unicode="6" horiz-adv-x="497" vert-adv-y="950" 
d="M205 363q0 43 41.5 71.5t99.5 28.5q67 0 101 -49.5t34 -115.5q0 -84 -37.5 -153.5t-99.5 -109.5t-133 -40q-111 0 -153 53t-42 145q0 24 1 37q10 154 53 271t120 183t184 66q53 0 84 -25t31 -58q0 -27 -23 -46t-66 -21q16 15 16 36t-14.5 37.5t-35.5 16.5
q-27 0 -66.5 -26.5t-82.5 -122.5t-63 -283q-5 -52 -5 -76q0 -47 9.5 -71t26.5 -31t44 -7q32 0 64 30.5t52.5 79.5t20.5 101q0 39 -11.5 68t-41.5 29q-51 0 -88 -76q-20 29 -20 58z" />
    <glyph glyph-name="seven" unicode="7" horiz-adv-x="464" vert-adv-y="950" 
d="M342 487q-113 -179 -131 -222q-32 -75 -32 -129q0 -30 11 -52t38 -45q-8 -22 -31.5 -30.5t-60.5 -8.5q-50 0 -76.5 27t-26.5 98q0 77 41 160.5t104.5 166.5t169.5 205q-43 6 -85 6q-144 0 -207 -71q-8 37 -8 58q0 50 32 75t104 25h328q-57 -84 -170 -263z" />
    <glyph glyph-name="eight" unicode="8" horiz-adv-x="499" vert-adv-y="950" 
d="M450 356.5q30 -41.5 30 -95.5q0 -62 -36.5 -124t-100 -102t-140.5 -40q-66 0 -113.5 28t-72.5 74t-25 99q0 73 46.5 135t133.5 86q-43 25 -64 60t-21 76q0 48 28.5 93.5t80 74t114.5 28.5q60 0 103 -19.5t64.5 -52.5t21.5 -73q0 -53 -36.5 -103.5t-103.5 -83.5
q61 -19 91 -60.5zM345 533q27 52 27 98q0 31 -13 50.5t-36 19.5q-48 0 -76.5 -39t-28.5 -92q0 -34 13.5 -65t39.5 -54q47 30 74 82zM169 282q-32 -61 -32 -119q0 -43 18.5 -69.5t52.5 -26.5q33 0 59 23.5t41 62.5t15 82t-15.5 81.5t-47.5 66.5q-59 -40 -91 -101z" />
    <glyph glyph-name="nine" unicode="9" horiz-adv-x="489" vert-adv-y="950" 
d="M101 130q0 -22 15.5 -39t37.5 -17q58 0 122.5 76t84.5 337q2 38 2 52q0 59 -10.5 91t-29.5 43t-48 11q-32 0 -61 -32.5t-47.5 -83t-18.5 -101.5q0 -41 13 -72t43 -31t50 13.5t34 46.5q21 -25 21 -50t-18 -46t-48.5 -33.5t-67.5 -12.5q-47 0 -79 26t-47 66t-15 83
q0 81 34.5 148t94 106t130.5 39q107 0 150 -64t43 -171q0 -151 -41 -269t-118 -184.5t-180 -66.5q-37 0 -63.5 14t-40.5 36t-14 45q0 34 18.5 54t67.5 20q-14 -14 -14 -34z" />
    <glyph glyph-name="colon" unicode=":" horiz-adv-x="267" vert-adv-y="950" 
d="M226.5 319q-23.5 -23 -56.5 -23t-56 23t-23 56t23 56.5t56 23.5t56.5 -23.5t23.5 -56.5t-23.5 -56zM176.5 79q-23.5 -23 -56.5 -23t-56 23t-23 56t23 56.5t56 23.5t56.5 -23.5t23.5 -56.5t-23.5 -56z" />
    <glyph glyph-name="semicolon" unicode=";" horiz-adv-x="276" vert-adv-y="950" 
d="M229.5 275q-23.5 -23 -56.5 -23t-56 23t-23 56t23 56.5t56 23.5t56.5 -23.5t23.5 -56.5t-23.5 -56zM54 -93q0 12 6 21t20 24t20 24t6 22q0 11 -13 20q-47 30 -47 73q0 33 23 56.5t56 23.5q32 0 50 -21t18 -55q0 -47 -35.5 -106t-94.5 -99q-9 6 -9 17z" />
    <glyph glyph-name="less" unicode="&#x3c;" horiz-adv-x="359" vert-adv-y="950" 
d="M29 279l307 150l-10 -55l-241 -120l194 -96l-12 -57l-247 137z" />
    <glyph glyph-name="equal" unicode="=" horiz-adv-x="515" vert-adv-y="950" 
d="M100 428h368l-23 -112h-369zM56 213h368l-23 -112h-369z" />
    <glyph glyph-name="greater" unicode="&#x3e;" horiz-adv-x="344" vert-adv-y="950" 
d="M29 158l240 96l-194 120l9 55l246 -150l-11 -54l-304 -124z" />
    <glyph glyph-name="question" unicode="?" horiz-adv-x="441" vert-adv-y="950" 
d="M141 313q22 35 66 85q46 49 70 88.5t24 90.5q0 35 -15.5 52t-39.5 17q-30 0 -55 -23.5t-25 -59.5q0 -21 9.5 -41t28.5 -25q-12 -20 -31.5 -31t-41.5 -11q-31 0 -53.5 22t-22.5 62q0 37 22.5 74t69.5 62t118 25q94 0 127 -31.5t33 -89.5q0 -51 -17 -88.5t-41.5 -62
t-65.5 -57.5q-46 -36 -74 -66t-42 -73h-66q0 46 22 81zM71.5 23.5q-23.5 23.5 -23.5 56.5t23.5 56t56.5 23t56 -23t23 -56t-23 -56.5t-56 -23.5t-56.5 23.5z" />
    <glyph glyph-name="at" unicode="@" horiz-adv-x="562" vert-adv-y="950" 
d="M334 209q0 -19 13 -19q18 0 36 42t29.5 97t11.5 85q0 33 -19.5 56t-68.5 23q-70 0 -123.5 -47.5t-82 -122.5t-28.5 -153q0 -63 25.5 -90.5t96.5 -27.5q55 0 89.5 16t60.5 50q23 -10 23 -45q0 -32 -24.5 -57t-70.5 -39.5t-107 -14.5q-100 0 -151.5 46t-51.5 156
q0 107 46 197.5t124.5 143t170.5 52.5q63 0 110.5 -32.5t47.5 -124.5q0 -64 -24.5 -125.5t-64.5 -100t-81 -38.5q-32 0 -44 23q-11 -17 -26.5 -28t-32.5 -11q-64 0 -64 69q0 38 16.5 97t46.5 102.5t69 43.5q24 0 38 -18l4 16l55 -6l-45 -192q-4 -11 -4 -23zM298 390
q-27 0 -44.5 -33t-26 -75.5t-8.5 -69.5q0 -31 18 -31q12 0 33 14q0 11 3 21l43 166q-8 8 -18 8z" />
    <glyph glyph-name="A" unicode="A" horiz-adv-x="668" vert-adv-y="950" 
d="M468 363q-37 17 -68 25t-66 11q-57 -123 -93.5 -251.5t-36.5 -205.5q0 -38 14 -56q-37 0 -65 6t-48.5 29t-20.5 71q0 67 40.5 180t106.5 227q-50 -3 -79 -15t-38 -37q4 0 8.5 -10t4.5 -21q0 -18 -16 -28.5t-40 -10.5q-28 0 -45 15t-17 43q0 34 26.5 62t73.5 44.5
t104 16.5q21 0 52 -3q82 130 173.5 212.5t174.5 82.5q48 0 79 -14l-157 -736h-144zM445.5 593.5q-46.5 -62.5 -90.5 -151.5q72 -14 122 -35l58 272q-43 -23 -89.5 -85.5z" />
    <glyph glyph-name="B" unicode="B" horiz-adv-x="641" vert-adv-y="950" 
d="M236 636l148 20l-47 -222h6q38 0 71 24.5t53 62t20 75.5q0 46 -32.5 77t-99.5 31q-61 0 -119 -27.5t-94.5 -82.5t-36.5 -133q0 -37 7 -51.5t7 -16.5q-53 0 -80 21.5t-27 70.5q0 68 51 129t135 98.5t177 37.5q70 0 118 -22t71.5 -58t23.5 -79q0 -46 -26 -89t-74 -70
q60 -11 89 -55.5t29 -105.5q0 -57 -21.5 -124t-71 -115.5t-126.5 -48.5q-40 0 -69.5 16.5t-29.5 57.5q0 26 13 58q18 -20 33.5 -28t33.5 -8q50 0 74.5 56t24.5 124q0 127 -95 127q-27 0 -46 -3l-82 -383h-144z" />
    <glyph glyph-name="C" unicode="C" horiz-adv-x="497" vert-adv-y="950" 
d="M449 65q-49 -42 -105 -61.5t-106 -19.5q-113 0 -166 57t-53 189q0 105 35.5 226t114 207.5t199.5 86.5q75 0 121 -33t46 -101q0 -43 -17 -67.5t-53 -24.5t-57 26q18 9 32 36t14 56q0 27 -14.5 44t-46.5 17q-53 0 -101 -72.5t-77.5 -182.5t-29.5 -212q0 -76 26 -116
t94 -40q59 0 109 26t86 74l23 -10q-25 -63 -74 -105z" />
    <glyph glyph-name="D" unicode="D" horiz-adv-x="663" vert-adv-y="950" 
d="M230 636l148 20l-120 -561q28 -20 57 -20q57 0 100.5 66t67.5 168t24 206q0 98 -38.5 143.5t-107.5 45.5q-75 0 -134.5 -29.5t-93.5 -84.5t-34 -129q0 -37 7 -51.5t7 -16.5q-52 0 -79.5 22t-27.5 71q0 68 51 129t136.5 98t184.5 37q137 0 202 -81t65 -207
q0 -114 -38.5 -224.5t-102.5 -180.5t-136 -70q-60 0 -122 53l-8 -40h-144z" />
    <glyph glyph-name="E" unicode="E" horiz-adv-x="459" vert-adv-y="950" 
d="M364 33q-81 -51 -173 -51q-91 0 -137.5 50t-46.5 126q0 54 22.5 108.5t64.5 95.5t98 55q-31 22 -46 53.5t-15 66.5q0 52 28.5 102t79 81.5t111.5 31.5q63 0 103 -33t40 -92q0 -44 -22 -74t-52 -30q-27 0 -47 27q18 6 31 33t13 54q0 29 -16 42.5t-39 13.5
q-29 0 -52.5 -20.5t-36.5 -53t-13 -67.5q0 -48 25 -84.5t76 -49.5q-51 -11 -92 -50t-64 -90.5t-23 -98.5q0 -45 23.5 -73t71.5 -28q50 0 104.5 27.5t80.5 74.5l23 -10q-39 -86 -120 -137z" />
    <glyph glyph-name="F" unicode="F" horiz-adv-x="459" vert-adv-y="950" 
d="M232 668q-63 -2 -96.5 -48t-33.5 -159q0 -37 7 -51.5t7 -16.5q-54 0 -80.5 22.5t-26.5 74.5q0 71 35 129.5t111.5 94.5t194.5 36q24 0 64 -5q72 -7 102 -7q53 0 90 12q-3 -9 -11 -39.5t-28.5 -52t-55.5 -28.5q-59 0 -140 19l-42 -199h146l-16 -74h-146l-81 -376h-144z
" />
    <glyph glyph-name="G" unicode="G" horiz-adv-x="578" vert-adv-y="950" 
d="M284.5 117q-34.5 -8 -50.5 -8q-115 0 -165 70t-50 186q0 98 43 186.5t123.5 143.5t187.5 55q78 0 132 -33.5t54 -100.5q0 -43 -17 -67.5t-53 -24.5q-16 0 -36 6t-33 20q17 6 30.5 33.5t13.5 48.5q0 24 -14 47.5t-55 23.5q-53 0 -105 -52.5t-84.5 -133.5t-32.5 -160
q0 -72 28.5 -118.5t87.5 -46.5q29 0 49.5 8.5t35.5 28.5l43 190l129 -1l-82 -376q-26 -125 -83 -187t-173 -62q-67 0 -103 41t-36 97q0 35 14.5 66.5t42 51t65.5 19.5q43 0 70.5 -12.5t27.5 -54.5q0 -18 -6 -40q-18 15 -31 20.5t-29 5.5q-33 0 -51.5 -23t-18.5 -53
q0 -28 16.5 -48t46.5 -20q38 0 60.5 25t39.5 98l40 179q-37 -20 -71.5 -28z" />
    <glyph glyph-name="H" unicode="H" horiz-adv-x="665" vert-adv-y="950" 
d="M471 376h-147l-80 -376h-144l145 680q-67 -28 -103.5 -84t-36.5 -135q0 -37 7 -51.5t7 -16.5q-54 0 -80.5 22.5t-26.5 74.5q0 64 52.5 124.5t134.5 98t164 37.5q14 0 40 -2l-64 -298h147l64 298h144l-159 -748h-144z" />
    <glyph glyph-name="I" unicode="I" horiz-adv-x="375" vert-adv-y="950" 
d="M239 679q-67 -27 -103.5 -82.5t-36.5 -135.5q0 -37 7 -51.5t7 -16.5q-54 0 -80.5 22.5t-26.5 74.5q0 64 52.5 124.5t134.5 98t164 37.5q14 0 40 -2l-159 -748h-144z" />
    <glyph glyph-name="J" unicode="J" horiz-adv-x="536" vert-adv-y="950" 
d="M317 597q-37 -56 -37 -136q0 -37 7 -51.5t7 -16.5q-54 0 -80.5 22.5t-26.5 74.5q0 64 52.5 124.5t134.5 98t164 37.5h40l-150 -710q-26 -123 -86 -185t-177 -62q-71 0 -109.5 38.5t-38.5 102.5q0 54 33 94t89 40q43 0 70.5 -12.5t27.5 -54.5q0 -18 -6 -40
q-18 15 -31 20.5t-29 5.5q-33 0 -51.5 -22t-18.5 -52q0 -35 21 -52.5t47 -17.5q24 0 40.5 9.5t29.5 36t25 77.5l157 714q-67 -27 -104 -83z" />
    <glyph glyph-name="K" unicode="K" horiz-adv-x="601" vert-adv-y="950" 
d="M239 680q-67 -28 -103.5 -84t-36.5 -135q0 -37 7 -51.5t7 -16.5q-54 0 -80.5 22.5t-26.5 74.5q0 64 52.5 124.5t134.5 98t164 37.5q14 0 40 -2l-65 -306l103 138q123 166 124 165h105l-278 -320l35 1q68 0 96 -28.5t28 -78.5q0 -29 -7 -61.5t-20 -80.5q-8 -31 -15 -61
t-7 -50q0 -23 10.5 -41t28.5 -25q-61 -17 -99 -17q-78 0 -78 67q0 22 6.5 50.5t18.5 73.5q14 47 21 80t7 59q0 68 -60 68q-17 0 -33 -4l-80 -377h-144z" />
    <glyph glyph-name="L" unicode="L" horiz-adv-x="379" vert-adv-y="950" 
d="M135.5 586.5q-36.5 -55.5 -36.5 -135.5q0 -37 7 -51.5t7 -16.5q-54 0 -80.5 22.5t-26.5 74.5q0 64 52.5 124.5t134.5 98t164 37.5q14 0 40 -2l-154 -718q28 -7 57.5 -20.5t71.5 -36.5q65 -35 111 -53.5t96 -18.5q45 0 84 16q-8 -73 -35.5 -115t-68.5 -42
q-45 0 -88.5 25.5t-110.5 78.5q-50 40 -85.5 64.5t-77 41.5t-84.5 17q-15 0 -23 -1l149 693q-67 -27 -103.5 -82.5z" />
    <glyph glyph-name="M" unicode="M" horiz-adv-x="787" vert-adv-y="950" 
d="M619 449l-188 -449h-137l20 451l-167 -451h-80l254 687q-76 -25 -117.5 -82.5t-41.5 -142.5q0 -38 7 -52t7 -17q-107 0 -107 91q0 62 47.5 124.5t122 102t148.5 39.5q37 0 76 -14l-23 -527l220 527h144l-105 -736h-144z" />
    <glyph glyph-name="N" unicode="N" horiz-adv-x="668" vert-adv-y="950" 
d="M349 523l-111 -523h-144l144 679q-67 -27 -103 -83t-36 -135q0 -37 7 -51.5t7 -16.5q-54 0 -80.5 22.5t-26.5 74.5q0 59 36 119.5t100.5 100.5t146.5 40q34 0 54 -2t39 -12l79 -530l109 542h144l-159 -748h-121z" />
    <glyph glyph-name="O" unicode="O" horiz-adv-x="665" vert-adv-y="950" 
d="M346.5 549q-40.5 -81 -65.5 -181t-25 -177q0 -54 14 -85t44 -31q49 0 97.5 70.5t80 177.5t31.5 206q0 62 -10.5 99.5t-38.5 56.5t-79 19q-77 0 -143 -31.5t-105.5 -90t-39.5 -135.5q0 -27 5 -39.5t5 -14.5q-50 0 -75.5 20t-25.5 64q0 69 56.5 132t150 102t196.5 39
q125 0 181 -68t56 -188q0 -107 -40 -223t-123.5 -196.5t-205.5 -80.5q-84 0 -131.5 48t-47.5 153q0 89 32 200t93.5 190t145.5 79q30 0 52 -8q-44 -26 -84.5 -107z" />
    <glyph glyph-name="P" unicode="P" horiz-adv-x="573" vert-adv-y="950" 
d="M230 636l148 20l-71 -334q48 4 88.5 42t63.5 94t23 110q0 60 -31 98t-93 38q-122 0 -190.5 -64t-68.5 -179q0 -37 7 -51.5t7 -16.5q-54 0 -80.5 22.5t-26.5 74.5q0 64 52.5 124.5t134.5 98t164 37.5q79 0 132 -27t78.5 -71.5t25.5 -98.5q0 -65 -35.5 -127t-101.5 -101.5
t-152 -39.5h-5l-61 -285h-144z" />
    <glyph glyph-name="Q" unicode="Q" horiz-adv-x="665" vert-adv-y="950" 
d="M287 -6q-84 0 -131.5 48t-47.5 153q0 89 32 200t93.5 190t145.5 79q30 0 52 -8q-44 -26 -84.5 -107t-65.5 -181t-25 -177v-18q0 -17 2 -25q36 9 62 9q45 0 80 -27q51 66 87 179.5t36 219.5q0 62 -10.5 99.5t-38.5 56.5t-79 19q-77 0 -143 -31.5t-105.5 -90t-39.5 -135.5
q0 -27 5 -39.5t5 -14.5q-50 0 -75.5 20t-25.5 64q0 69 56.5 132t150 102t196.5 39q125 0 181 -68t56 -188q0 -74 -21 -158.5t-64 -160.5t-106 -123q26 -39 54 -60t71 -21q6 0 22 2q-19 -49 -43.5 -67.5t-59.5 -18.5q-41 0 -66 16.5t-37.5 41t-25.5 63.5q-45 -14 -93 -14z
M295 120q-16 0 -29 -4q14 -41 48 -41q22 0 38 11q-20 34 -57 34z" />
    <glyph glyph-name="R" unicode="R" horiz-adv-x="601" vert-adv-y="950" 
d="M230 636l148 20l-49 -231h8q39 0 72 27t51.5 67.5t18.5 79.5q0 46 -27.5 75.5t-82.5 29.5q-81 0 -142 -29t-94.5 -84t-33.5 -130q0 -37 7 -51.5t7 -16.5q-54 0 -80.5 22.5t-26.5 74.5q0 64 52.5 124.5t134.5 98t164 37.5q75 0 126 -22t76 -58.5t25 -79.5q0 -47 -29 -94
t-79 -77q38 -11 53.5 -36.5t15.5 -63.5q0 -29 -7 -61.5t-20 -80.5q-8 -31 -15 -61t-7 -50q0 -23 10.5 -41t28.5 -25q-61 -17 -99 -17q-78 0 -78 67q0 22 6.5 50.5t18.5 73.5q14 47 21 80t7 59q0 68 -60 68q-16 0 -33 -4l-80 -377h-144z" />
    <glyph glyph-name="S" unicode="S" horiz-adv-x="570" vert-adv-y="950" 
d="M448.5 586.5q12.5 24.5 12.5 49.5q0 29 -17.5 48t-56.5 19q-43 0 -67.5 -23.5t-24.5 -67.5t23.5 -76t72.5 -75q42 -37 67.5 -65.5t43.5 -70t18 -96.5q0 -81 -39 -137t-103 -84.5t-139 -28.5q-93 0 -152.5 42.5t-59.5 129.5q0 51 21.5 88.5t55.5 56.5t70 19
q33 0 59.5 -15.5t28.5 -50.5q-47 0 -82 -23t-35 -71q0 -40 25 -68t71 -28q52 0 84 35.5t32 97.5q0 41 -15 76.5t-36 63t-57 65.5q-48 50 -72.5 88t-24.5 86q0 51 30.5 92t83.5 64t117 23q58 0 109.5 -24.5t51.5 -95.5q0 -45 -22 -73t-60 -28q-28 0 -46 21q20 12 32.5 36.5z
" />
    <glyph glyph-name="T" unicode="T" horiz-adv-x="481" vert-adv-y="950" 
d="M299 662h-12q-89 0 -138.5 -44.5t-49.5 -157.5q0 -37 7 -51.5t7 -16.5q-54 0 -80.5 22.5t-26.5 74.5q0 71 35 129.5t111.5 94.5t194.5 36q66 0 142 -12q64 -11 114 -11q64 0 116 21q-2 -65 -33 -96t-92 -31q-32 0 -64 5t-91 17l-138 -642h-144z" />
    <glyph glyph-name="U" unicode="U" horiz-adv-x="716" vert-adv-y="950" 
d="M761 748l-66 -312q-35 -168 -72 -259.5t-101 -137.5t-174 -46q-104 0 -148.5 40t-44.5 119q0 58 15.5 133t49.5 207l17 68l33 132q-83 -22 -130 -81.5t-47 -148.5q0 -38 7 -52t7 -17q-53 0 -80 21.5t-27 70.5q0 69 53.5 130t141 98t183.5 37q22 0 48 -5l-44 -161
q-55 -202 -73 -279t-18 -124q0 -45 16 -67.5t53 -22.5q49 0 76.5 20.5t54 93.5t62.5 234l67 309h141z" />
    <glyph glyph-name="V" unicode="V" horiz-adv-x="615" vert-adv-y="950" 
d="M248 683q-71 -27 -110 -83.5t-39 -138.5q0 -37 7 -51.5t7 -16.5q-54 0 -80.5 22.5t-26.5 74.5q0 64 52.5 124.5t134.5 98t164 37.5q14 0 40 -2l9 -615l210 612h70l-278 -745h-144z" />
    <glyph glyph-name="W" unicode="W" horiz-adv-x="962" vert-adv-y="950" 
d="M598 509l-190 -509h-144l-16 683q-71 -27 -110 -83.5t-39 -138.5q0 -37 7 -51.5t7 -16.5q-54 0 -80.5 22.5t-26.5 74.5q0 64 52.5 124.5t134.5 98t164 37.5q14 0 40 -2l9 -615l210 612h127l9 -612l210 612h70l-278 -745h-144z" />
    <glyph glyph-name="X" unicode="X" horiz-adv-x="620" vert-adv-y="950" 
d="M340 250l-145 -250h-61l188 332l-74 351q-71 -27 -110 -83.5t-39 -138.5q0 -37 7 -51.5t7 -16.5q-54 0 -80.5 22.5t-26.5 74.5q0 64 52.5 124.5t134.5 98t164 37.5q14 0 40 -2l43 -208l116 205h70l-168 -291l94 -454h-159z" />
    <glyph glyph-name="Y" unicode="Y" horiz-adv-x="620" vert-adv-y="950" 
d="M344 308l-96 375q-71 -27 -110 -83.5t-39 -138.5q0 -37 7 -51.5t7 -16.5q-54 0 -80.5 22.5t-26.5 74.5q0 64 52.5 124.5t134.5 98t164 37.5q14 0 40 -2l87 -358l148 355h66l-194 -437l-66 -308h-160z" />
    <glyph glyph-name="Z" unicode="Z" horiz-adv-x="542" vert-adv-y="950" 
d="M361 696q-21 0 -34 1l-56 1q-92 0 -92 -22q6 0 11.5 -8t5.5 -24q0 -30 -18.5 -43.5t-40.5 -13.5q-27 0 -39 17.5t-12 41.5q0 41 33 72.5t90 31.5h343l-345 -685q28 0 43 -1l53 -1q42 0 68.5 4.5t35.5 17.5q-7 0 -12.5 7.5t-5.5 23.5q0 30 18 44t42 14q26 0 38.5 -17
t12.5 -41q0 -26 -16 -53t-45.5 -45t-66.5 -18h-361z" />
    <glyph glyph-name="bracketleft" unicode="[" horiz-adv-x="400" vert-adv-y="950" 
d="M188 750h193l-13 -62h-121l-186 -876h121l-13 -62h-193z" />
    <glyph glyph-name="backslash" unicode="\" horiz-adv-x="362" vert-adv-y="950" 
d="M42 750h72l212 -1000h-72z" />
    <glyph glyph-name="bracketright" unicode="]" horiz-adv-x="400" vert-adv-y="950" 
d="M-11 -188h121l186 876h-121l13 62h193l-212 -1000h-193z" />
    <glyph glyph-name="asciicircum" unicode="^" horiz-adv-x="421" vert-adv-y="950" 
d="M251 641l-157 -80h-44l212 189h21l60 -189h-32z" />
    <glyph glyph-name="underscore" unicode="_" horiz-adv-x="444" vert-adv-y="950" 
d="M54 79h350l-17 -79h-351z" />
    <glyph glyph-name="grave" unicode="`" horiz-adv-x="201" vert-adv-y="950" 
d="M24 750h105l29 -189h-75z" />
    <glyph glyph-name="a" unicode="a" horiz-adv-x="526" vert-adv-y="950" 
d="M476.5 32.5q-54.5 -38.5 -109.5 -38.5q-42 0 -67.5 23.5t-30.5 68.5q-29 -41 -64.5 -66.5t-84.5 -25.5q-57 0 -95 39t-38 122q0 74 29.5 155.5t88 138t139.5 56.5q41 0 61 -14t20 -37v-7l11 53h144l-72 -340q-4 -15 -4 -32q0 -43 41 -43q28 0 48.5 26t32.5 68h42
q-37 -108 -91.5 -146.5zM306 430.5q-10 12.5 -31 12.5q-40 0 -72 -46.5t-50 -112t-18 -115.5t14.5 -64t35.5 -14q25 0 49.5 23.5t33.5 64.5l48 226q0 13 -10 25.5z" />
    <glyph glyph-name="b" unicode="b" horiz-adv-x="444" vert-adv-y="950" 
d="M255 700l-48 -225q28 17 46 22.5t36 5.5q118 0 118 -171q0 -69 -26.5 -147.5t-88 -134.5t-159.5 -56q-68 0 -104 33.5t-36 94.5q0 30 7 57l107 501zM136 137q0 -46 53 -46q31 0 58 38.5t43 96t16 110.5q0 40 -14 68t-39 28q-15 0 -33.5 -4.5t-25.5 -13.5l-55 -254
q-3 -12 -3 -23z" />
    <glyph glyph-name="c" unicode="c" horiz-adv-x="384" vert-adv-y="950" 
d="M143 -6q-74 0 -115 38.5t-41 120.5q0 69 27.5 152t88 143.5t153.5 60.5q60 0 85.5 -26t25.5 -66q0 -35 -15 -54t-38 -19q-17 0 -35 12q12 33 12 59q0 19 -7 30t-21 11q-30 0 -60 -49t-49 -119t-19 -126q0 -49 17 -66.5t55 -17.5q54 0 92.5 25t84.5 76h34
q-111 -185 -275 -185z" />
    <glyph glyph-name="d" unicode="d" horiz-adv-x="525" vert-adv-y="4" 
d="M366 0q-41 0 -66.5 22t-31.5 64q-26 -40 -62.5 -66t-85.5 -26q-57 0 -95 39t-38 122q0 74 29.5 155.5t88 138t139.5 56.5q41 0 61 -14t20 -37v-4l49 230l148 20l-115 -540q-4 -15 -4 -32q0 -20 9.5 -28.5t31.5 -8.5q28 0 48.5 24t32.5 64h42q-61 -179 -201 -179zM316 408
q-9 35 -41 35q-40 0 -72 -46.5t-50 -112t-18 -115.5t14.5 -64t35.5 -14q24 0 48.5 22t33.5 61v5z" />
    <glyph glyph-name="e" unicode="e" horiz-adv-x="384" vert-adv-y="950" 
d="M143 -6q-74 0 -115 38.5t-41 120.5q0 69 27 152t88 143.5t155 60.5q110 0 110 -96q0 -56 -32 -103t-85 -75.5t-113 -32.5q-2 -30 -2 -40q0 -49 17 -66.5t55 -17.5q54 0 92.5 25t84.5 76h34q-111 -185 -275 -185zM215.5 276q33.5 24 54 61t20.5 78t-25 41q-36 0 -70.5 -63
t-49.5 -143q37 2 70.5 26z" />
    <glyph glyph-name="f" unicode="f" horiz-adv-x="267" vert-adv-y="950" 
d="M155.5 712q50.5 37 111.5 37q47 0 82.5 -30.5t35.5 -77.5q0 -23 -3 -41h-47q2 22 2 27q0 16 -11 25t-27 9q-21 0 -41 -18.5t-29 -63.5l-17 -79h73l-7 -40h-74l-115 -540q-20 -97 -69 -133.5t-110 -36.5q-47 0 -82.5 30.5t-35.5 77.5q0 43 22 71t57 44.5t93 34.5l121 571
q20 96 70.5 133zM-124.5 -66.5q-28.5 -23.5 -28.5 -61.5q0 -12 12 -22.5t28 -10.5q40 0 57 78l13 58q-53 -18 -81.5 -41.5z" />
    <glyph glyph-name="g" unicode="g" horiz-adv-x="507" vert-adv-y="950" 
d="M288 -213.5q-49 -36.5 -111 -36.5q-48 0 -80 25t-32 72q0 57 46 91.5t117 57.5l12 53q-51 -55 -120 -55q-57 0 -95 39t-38 122q0 74 29.5 155.5t88 138t139.5 56.5q41 0 61 -14t20 -37v-6l11 52h144l-99 -464q48 16 77 48t49 95h42q-27 -89 -73 -130.5t-104 -56.5
l-15 -72q-20 -97 -69 -133.5zM306 430.5q-10 12.5 -31 12.5q-40 0 -72 -46.5t-50 -112t-18 -115.5t14.5 -64t35.5 -14q23 0 47 21t33 57l51 237q0 12 -10 24.5zM120 -139q0 -13 9 -23t25 -10q17 0 33 23t25 66l6 29q-98 -36 -98 -85z" />
    <glyph glyph-name="h" unicode="h" vert-adv-y="950" 
d="M461.5 31.5q-48.5 -37.5 -100.5 -37.5q-61 0 -89.5 32.5t-28.5 80.5q0 21 5 47.5t10.5 51.5t7.5 32q8 35 15 69t7 55q0 51 -36 51q-26 0 -46 -25.5t-32 -66.5l-68 -321h-144l145 680l148 20l-54 -252q50 56 117 56q51 0 81 -28t30 -85q0 -29 -7 -64.5t-20 -86.5
q-8 -31 -14.5 -60.5t-6.5 -46.5q0 -20 9 -31t31 -11q30 0 48 21.5t36 66.5h42q-37 -110 -85.5 -147.5z" />
    <glyph glyph-name="i" unicode="i" horiz-adv-x="267" vert-adv-y="950" 
d="M223.5 577q-23.5 -23 -56.5 -23t-56 23t-23 56t23 56.5t56 23.5t56.5 -23.5t23.5 -56.5t-23.5 -56zM214 32.5q-58 -38.5 -115 -38.5q-48 0 -77.5 30t-29.5 90q0 25 8 65l68 321h144l-72 -340q-4 -15 -4 -32q0 -20 9.5 -28.5t31.5 -8.5q29 0 54 24.5t36 63.5h42
q-37 -108 -95 -146.5z" />
    <glyph glyph-name="j" unicode="j" horiz-adv-x="240" vert-adv-y="950" 
d="M215.5 578q-23.5 -23 -56.5 -23t-56 23t-23 56t23 56.5t56 23.5t56.5 -23.5t23.5 -56.5t-23.5 -56zM21 -213.5q-49 -36.5 -111 -36.5q-48 0 -80 25t-32 72q0 97 164 149l107 504h144l-99 -464q48 16 77 48t49 95h42q-27 -89 -73 -130.5t-104 -56.5l-15 -72
q-20 -97 -69 -133.5zM-147 -139q0 -13 9 -23t25 -10q17 0 33 23t25 66l6 29q-98 -36 -98 -85z" />
    <glyph glyph-name="k" unicode="k" horiz-adv-x="518" vert-adv-y="950" 
d="M376 -6q-62 0 -94 29.5t-32 84.5q0 24 6 52l8 39q4 17 4 37q0 48 -36 48q-16 0 -33.5 -9t-40.5 -28l-52 -247h-144l145 680l148 20l-75 -352l193 152h99l-200 -139q15 4 33 4q54 0 82 -33t28 -84q0 -21 -4 -38l-11 -50q-5 -18 -5 -32q0 -37 39 -37q30 0 48 21.5t36 66.5
h42q-62 -185 -184 -185z" />
    <glyph glyph-name="l" unicode="l" horiz-adv-x="267" vert-adv-y="950" 
d="M214 32.5q-58 -38.5 -115 -38.5q-48 0 -77.5 30t-29.5 90q0 25 8 65l107 501l148 20l-115 -540q-4 -15 -4 -32q0 -20 9.5 -28.5t31.5 -8.5q29 0 54 24.5t36 63.5h42q-37 -108 -95 -146.5z" />
    <glyph glyph-name="m" unicode="m" horiz-adv-x="752" vert-adv-y="950" 
d="M708.5 31.5q-48.5 -37.5 -100.5 -37.5q-61 0 -89.5 32.5t-28.5 80.5q0 21 5 47.5t10.5 51.5t7.5 32q8 35 15 69t7 55q0 51 -36 51q-26 0 -46 -25.5t-32 -66.5l-68 -321h-144l73 345q3 12 3 25q0 44 -30 44q-28 0 -48.5 -25.5t-32.5 -67.5l-68 -321h-144l106 500h144
l-11 -52q51 57 122 57q88 0 103 -86q55 85 139 85q51 0 81 -28t30 -85q0 -29 -7 -64.5t-20 -86.5q-8 -31 -14.5 -60.5t-6.5 -46.5q0 -20 9 -31t31 -11q30 0 48 21.5t36 66.5h42q-37 -110 -85.5 -147.5z" />
    <glyph glyph-name="n" unicode="n" vert-adv-y="950" 
d="M461.5 31.5q-48.5 -37.5 -100.5 -37.5q-61 0 -89.5 32.5t-28.5 80.5q0 21 5 47.5t10.5 51.5t7.5 32q8 35 15 69t7 55q0 51 -36 51q-26 0 -46 -25.5t-32 -66.5l-68 -321h-144l106 500h144l-11 -52q50 56 117 56q51 0 81 -28t30 -85q0 -29 -7 -64.5t-20 -86.5
q-8 -31 -14.5 -60.5t-6.5 -46.5q0 -20 9 -31t31 -11q30 0 48 21.5t36 66.5h42q-37 -110 -85.5 -147.5z" />
    <glyph glyph-name="o" unicode="o" horiz-adv-x="439" vert-adv-y="950" 
d="M486.5 327.5q-46.5 -21.5 -101.5 -30.5q-8 -91 -41 -159t-85 -105t-113 -37q-74 0 -117 38t-43 120q0 68 28 151t90 143.5t156 60.5q128 0 128 -160v-1q3 -1 11 -1q33 0 76 17.5t78 42.5l9 -27q-29 -31 -75.5 -52.5zM275 336q0 41 31 54q-2 33 -10 45.5t-28 12.5
q-33 0 -64 -48t-50 -115t-19 -118q0 -48 11 -64.5t40 -16.5q24 0 48 27.5t42 75t26 105.5q-27 6 -27 42z" />
    <glyph glyph-name="p" unicode="p" horiz-adv-x="468" vert-adv-y="950" 
d="M76 537h144l-16 -75q50 43 117 43q56 0 89 -37t33 -121q0 -79 -23 -159.5t-78 -137t-145 -56.5q-64 0 -85 36l-52 -244l-151 -36zM166 81q48 0 79.5 45t46 107.5t14.5 116.5q0 83 -50 83q-18 0 -36.5 -13t-32.5 -36l-59 -280q8 -23 38 -23z" />
    <glyph glyph-name="q" unicode="q" horiz-adv-x="486" vert-adv-y="950" 
d="M239 49q-51 -55 -119 -55q-57 0 -95 39t-38 122q0 74 29.5 155.5t88 138t139.5 56.5q41 0 61 -14t20 -37v-2l10 48h144l-152 -714l-151 -36zM275 443q-40 0 -72 -46.5t-50 -112t-18 -115.5t14.5 -64t35.5 -14q22 0 44.5 19t33.5 52l53 247q-8 34 -41 34z" />
    <glyph glyph-name="r" unicode="r" horiz-adv-x="376" vert-adv-y="950" 
d="M68 500h144l-13 -62q34 30 61.5 46t59.5 16t50.5 -22t18.5 -53q0 -29 -19 -51t-53 -22q-22 0 -29.5 10.5t-11.5 30.5q-3 13 -6 19t-11 6q-21 0 -35.5 -8.5t-37.5 -29.5l-80 -380h-144z" />
    <glyph glyph-name="s" unicode="s" horiz-adv-x="382" vert-adv-y="950" 
d="M271 54q-29 -31 -71.5 -45.5t-85.5 -14.5q-48 0 -81 18.5t-49 48t-16 61.5q0 33 15.5 57.5t37.5 35.5q39 70 68 141.5t55 154.5l148 20q5 -128 17 -277q5 -60 5 -87q0 -23 -4 -38q47 27 72 50h42q-64 -74 -153 -125zM69 214q23 -12 23 -35q0 -19 -12.5 -34t-31.5 -15
q-21 0 -27 13q0 -36 14.5 -53t46.5 -17q37 0 62 22t25 71q0 30 -6 84q-10 114 -13 153q-24 -79 -81 -189z" />
    <glyph glyph-name="t" unicode="t" horiz-adv-x="267" vert-adv-y="950" 
d="M214 32.5q-58 -38.5 -115 -38.5q-48 0 -77.5 30t-29.5 90q0 25 8 65l60 281h-33l8 40h33l30 138l148 20l-34 -158h60l-8 -40h-60l-64 -300q-4 -15 -4 -32q0 -20 9.5 -28.5t31.5 -8.5q29 0 54 24.5t36 63.5h42q-37 -108 -95 -146.5z" />
    <glyph glyph-name="u" unicode="u" vert-adv-y="950" 
d="M455.5 32.5q-54.5 -38.5 -109.5 -38.5q-43 0 -68.5 24t-30.5 71q-34 -55 -71.5 -75t-76.5 -20q-48 0 -77.5 30t-29.5 90q0 25 8 65l68 321h144l-72 -340q-3 -15 -3 -28q0 -41 30 -41q28 0 48 23.5t32 64.5l68 321h144l-72 -340q-4 -15 -4 -32q0 -20 9.5 -28.5t31.5 -8.5
q28 0 48.5 24t32.5 64h42q-37 -108 -91.5 -146.5z" />
    <glyph glyph-name="v" unicode="v" horiz-adv-x="414" vert-adv-y="950" 
d="M212 500l-72 -340q-5 -25 -5 -36q0 -33 34 -33q46 0 85.5 58t63.5 138t24 138q-2 -5 -13 -7.5t-19 -2.5q-17 0 -26.5 16t-9.5 35q0 24 15.5 39t46.5 15q33 0 48 -24.5t15 -62.5q0 -90 -31 -192.5t-95 -174.5t-159 -72q-58 0 -90.5 29.5t-32.5 88.5q0 24 5 48l72 340h144z
" />
    <glyph glyph-name="w" unicode="w" horiz-adv-x="661" vert-adv-y="950" 
d="M459 500l-72 -340q-5 -25 -5 -36q0 -33 34 -33q46 0 85.5 58t63.5 138t24 138q-2 -5 -13 -7.5t-19 -2.5q-17 0 -26.5 16t-9.5 35q0 24 15.5 39t46.5 15q33 0 48 -24.5t15 -62.5q0 -90 -31 -192.5t-95 -174.5t-159 -72q-49 0 -80 21t-40 63q-56 -84 -142 -84
q-48 0 -77.5 30t-29.5 90q0 25 8 65l68 321h144l-72 -340q-3 -12 -3 -25q0 -44 30 -44q28 0 48 23.5t32 64.5l68 321h144z" />
    <glyph glyph-name="x" unicode="x" horiz-adv-x="522" vert-adv-y="950" 
d="M472 34.5q-56 -40.5 -112 -40.5q-46 0 -76.5 42t-45.5 132l-138 -168h-72l202 228l-16 112q-8 49 -16.5 66t-21.5 17q-20 0 -45 -27.5t-48.5 -83t-40.5 -133.5h-42q29 136 86.5 231t149.5 95q54 0 78.5 -35.5t29.5 -83.5l9 -76q43 48 64 82.5t23 61.5q-14 -2 -17 -2
q-25 0 -36 15.5t-11 40.5t19.5 37t48.5 12q26 0 41 -27.5t15 -63.5q0 -44 -30 -88.5t-109 -129.5l9 -70q6 -48 20.5 -67.5t41.5 -19.5q29 0 54 24.5t36 63.5h42q-36 -104 -92 -144.5z" />
    <glyph glyph-name="y" unicode="y" horiz-adv-x="486" vert-adv-y="950" 
d="M267 -213.5q-49 -36.5 -111 -36.5q-48 0 -80 25t-32 72q0 57 46 91.5t117 57.5l12 54q-29 -32 -59 -44t-61 -12q-48 0 -77.5 30t-29.5 90q0 25 8 65l68 321h144l-72 -340q-3 -12 -3 -25q0 -44 30 -44q26 0 46 22.5t32 59.5l70 327h144l-99 -464q48 16 77 48t49 95h42
q-27 -89 -73 -130.5t-104 -56.5l-15 -72q-20 -97 -69 -133.5zM99 -139q0 -13 9 -23t25 -10q17 0 33 23t25 66l6 29q-98 -36 -98 -85z" />
    <glyph glyph-name="z" unicode="z" horiz-adv-x="428" vert-adv-y="950" 
d="M255 446h-56q-28 0 -41.5 -3t-13.5 -13q0 -2 5.5 -4.5t5.5 -17.5q0 -26 -16 -39.5t-38 -13.5q-19 0 -32.5 11.5t-13.5 32.5t14.5 45t41 40t60.5 16h257l-245 -423q6 0 22 -2q34 -4 54 -4q43 0 47 20q-9 1 -14 6.5t-5 14.5q0 16 15 29.5t41 13.5q22 0 33 -13t11 -35
q0 -24 -15 -49t-43 -41.5t-64 -16.5h-265z" />
    <glyph glyph-name="braceleft" unicode="{" horiz-adv-x="352" vert-adv-y="950" 
d="M90.5 -242q-22.5 7 -41.5 35q-19 27 -19 67q0 34 14 71.5t43 95.5q23 45 37.5 79.5t22.5 68.5q3 12 3 22q0 15 -9 23t-32 8q-13 0 -32 -3l12 57q18 -3 31 -3q42 0 54.5 30.5t12.5 80.5q0 29 -4 83q-1 13 -2 32t-1 44q0 43 16.5 89.5t52.5 79t91 32.5h43l-9 -50
q-35 0 -55 -4.5t-36 -21.5q-25 -28 -35 -60.5t-11 -77.5l6 -171q-2 -43 -12 -69.5t-28 -41.5q12 -13 12 -36q0 -29 -14 -65.5t-43 -95.5q-32 -68 -47 -107.5t-15 -73.5q0 -80 85 -80l-9 -45h-9q-50 0 -72.5 7z" />
    <glyph glyph-name="bar" unicode="|" horiz-adv-x="532" vert-adv-y="950" 
d="M219 751h93v-1001h-93v1001z" />
    <glyph glyph-name="braceright" unicode="}" horiz-adv-x="352" vert-adv-y="950" 
d="M39 -199q35 0 55 4.5t36 21.5q25 28 35 60.5t11 77.5l-6 171q2 43 12 69.5t28 41.5q-12 14 -12 36q0 28 13.5 63t42.5 97q31 65 47 106t16 76q0 80 -85 80l9 45h9q50 0 72.5 -7t41.5 -35q19 -27 19 -67q0 -34 -14 -71.5t-43 -95.5q-23 -45 -37.5 -79.5t-22.5 -68.5
q-3 -12 -3 -22q0 -15 9 -23t32 -8q12 0 32 3l-12 -57q-18 3 -31 3q-42 0 -54.5 -30.5t-12.5 -80.5q0 -29 4 -83q1 -13 2 -32t1 -44q0 -43 -16.5 -89.5t-52.5 -79t-91 -32.5h-43z" />
    <glyph glyph-name="asciitilde" unicode="~" horiz-adv-x="431" vert-adv-y="950" 
d="M420.5 622.5q-24.5 -23.5 -59.5 -38.5t-72 -15q-23 0 -44 5t-48 15q-23 8 -40.5 12.5t-35.5 4.5q-37 0 -66 -26l-6 2q24 48 67 73t100 25q25 0 46 -4.5t46 -13.5q43 -15 73 -15q40 0 63 23l6 -1q-5 -23 -29.5 -46.5z" />
    <glyph glyph-name="exclamdown" unicode="&#xa1;" horiz-adv-x="219" vert-adv-y="950" 
d="M194.5 316q-23.5 -23 -56.5 -23t-56 23t-23 56t23 56.5t56 23.5t56.5 -23.5t23.5 -56.5t-23.5 -56zM69 221h85l-71 -469h-144z" />
    <glyph glyph-name="cent" unicode="&#xa2;" horiz-adv-x="403" vert-adv-y="950" 
d="M158 146q-55 9 -91 53t-36 117q0 69 24.5 129t71.5 100.5t112 49.5l22 123h58l-27 -122q40 -3 65 -19t25 -49q0 -17 -5 -33h-57q5 20 5 28q0 34 -37 34h-5l-76 -343q3 -1 15 -1q36 0 65.5 17.5t66.5 50.5q-12 -65 -51 -99t-111 -37l-38 -172h-27zM162 441
q-26 -61 -26 -122q0 -27 9 -51.5t28 -38.5l55 305q-40 -32 -66 -93z" />
    <glyph glyph-name="sterling" unicode="&#xa3;" horiz-adv-x="465" vert-adv-y="950" 
d="M114 358l-17 1q-37 0 -66 -26l-6 2q34 66 105 89l72 295l150 31l-80 -331q6 -2 23 -7.5t32 -8.5t30 -3q40 0 63 23l6 -1q-5 -23 -29.5 -46.5t-59.5 -38.5t-72 -15h-16l-56 -231q15 2 26.5 2.5t18.5 0.5q35 1 60 4.5t57.5 17t71.5 42.5q-8 -73 -35.5 -115.5t-68.5 -42.5
h-295z" />
    <glyph glyph-name="currency" unicode="&#xa4;" horiz-adv-x="500" vert-adv-y="950" 
d="M253 190q-52 0 -92 30l-56 -56l-36 36l56 56q-29 38 -29 89q0 52 29 90l-57 57l38 36l56 -56q41 30 91 30q51 0 89 -29l56 56l36 -36l-55 -55q30 -40 30 -92q0 -50 -30 -91l55 -55l-36 -36l-55 55q-38 -29 -90 -29zM324 417q-29 29 -71 29t-71 -29t-29 -71t29 -71t71 -29
t71 29t29 71t-29 71z" />
    <glyph glyph-name="yen" unicode="&#xa5;" horiz-adv-x="474" vert-adv-y="950" 
d="M248 0h-160l30 142h-99l14 50h96l14 65h-99l14 50h96v1l-112 442h164l88 -361l150 361h66l-196 -442v-1h131l-14 -50h-128l-14 -65h131l-14 -50h-128z" />
    <glyph glyph-name="brokenbar" unicode="&#xa6;" horiz-adv-x="532" vert-adv-y="950" 
d="M219 751h93v-450h-93v450zM219 222h93v-472h-93v472z" />
    <glyph glyph-name="section" unicode="&#xa7;" horiz-adv-x="542" vert-adv-y="950" 
d="M332.5 -4q-57.5 -50 -159.5 -50q-64 0 -114.5 27t-50.5 104q0 54 27 88.5t69 34.5q27 0 44.5 -13.5t34.5 -36.5q-45 -4 -63 -21t-18 -55q0 -40 19 -59t63 -19q38 0 59 24t21 73q0 57 -25 94t-73 78q-42 37 -62 64.5t-20 68.5q0 47 28.5 83t75.5 54q-5 25 -5 42
q0 56 31 95.5t79.5 58.5t101.5 19q47 0 88.5 -19t41.5 -76q0 -36 -18 -58.5t-48 -22.5q-22 0 -37 16q17 9 26.5 28.5t9.5 40.5q0 23 -14 38.5t-42 15.5q-40 0 -67 -32t-27 -75q0 -27 11.5 -48.5t28 -37.5t48.5 -42q36 -28 57.5 -50t37 -53t15.5 -72q0 -61 -31 -108t-85 -59
v-3q0 -87 -57.5 -137zM190 451q0 -26 18.5 -48t56.5 -56q49 -43 78.5 -78.5t40.5 -85.5q19 23 19 63q0 33 -14 59.5t-34.5 46t-55.5 47.5q-33 25 -54 44t-36 43q-19 -12 -19 -35z" />
    <glyph glyph-name="dieresis" unicode="&#xa8;" horiz-adv-x="392" vert-adv-y="950" 
d="M73.5 590.5q-17.5 17.5 -17.5 43.5q0 25 17.5 43t43.5 18q25 0 43 -18t18 -43q0 -26 -18 -43.5t-43 -17.5q-26 0 -43.5 17.5zM253.5 590.5q-17.5 17.5 -17.5 43.5q0 25 17.5 43t43.5 18q25 0 43 -18t18 -43q0 -26 -18 -43.5t-43 -17.5q-26 0 -43.5 17.5z" />
    <glyph glyph-name="copyright" unicode="&#xa9;" horiz-adv-x="587" vert-adv-y="950" 
d="M172 110.5q-56 34.5 -88.5 93t-32.5 127.5q0 70 32.5 129t88 93t121.5 34q65 0 120.5 -34t88.5 -92.5t33 -128.5t-33 -129t-88.5 -93t-120.5 -34t-121 34.5zM393.5 146q45.5 28 72 77t26.5 108t-26.5 108t-72 77t-98.5 28q-54 0 -99.5 -28t-72 -77t-26.5 -108t26.5 -108
t72 -77t99.5 -28q53 0 98.5 28zM367.5 200q-32.5 -18 -69.5 -18q-40 0 -73.5 21t-53 56.5t-19.5 76.5q0 42 20 75.5t54 53t74 19.5q47 -2 80.5 -28.5t43.5 -66.5l-47 -18q-6 19 -12.5 30.5t-21.5 21t-41 9.5q-41 0 -68 -23.5t-27 -67.5q0 -45 27.5 -76t67.5 -31
q23 0 43.5 12t31.5 33l44 -29q-21 -32 -53.5 -50z" />
    <glyph glyph-name="ordfeminine" unicode="&#xaa;" horiz-adv-x="345" vert-adv-y="950" 
d="M276 547q-1 -5 -1 -9q0 -20 21 -20h6q6 0 9 2q-11 -31 -25.5 -40.5t-34.5 -9.5q-46 0 -58 40q-36 -43 -79 -43q-38 0 -54.5 20t-16.5 48q0 82 36.5 143t115.5 61q20 0 39 -14l3 15h83l-42 -184q-1 -4 -2 -9zM228 699q-11 10 -29 10q-21 0 -39 -24t-28.5 -61t-10.5 -74
q0 -38 34 -38q17 0 36 26l4 18z" />
    <glyph glyph-name="guillemotleft" unicode="&#xab;" horiz-adv-x="589" vert-adv-y="950" 
d="M29 279l307 150l-10 -55l-241 -120l194 -96l-12 -57l-247 137zM239 279l307 150l-10 -55l-241 -120l194 -96l-12 -57l-247 137z" />
    <glyph glyph-name="logicalnot" unicode="&#xac;" horiz-adv-x="444" vert-adv-y="950" 
d="M270 222h-251l18 79h362l-51 -250h-113z" />
    <glyph glyph-name="uni00AD" unicode="&#xad;" horiz-adv-x="290" vert-adv-y="950" 
d="M37 301h200l-17 -79h-201z" />
    <glyph glyph-name="registered" unicode="&#xae;" horiz-adv-x="553" vert-adv-y="950" 
d="M155 113.5q-56 34.5 -88.5 93t-32.5 127.5q0 70 32.5 129t88 93t121.5 34q65 0 120.5 -34t88.5 -92.5t33 -128.5t-33 -129t-88.5 -93t-120.5 -34t-121 34.5zM376.5 149q45.5 28 72 77t26.5 108t-26.5 108t-72 77t-98.5 28q-54 0 -99.5 -28t-72 -77t-26.5 -108t26.5 -108
t72 -77t99.5 -28q53 0 98.5 28zM288 315h-66v-123h-46l1 291h94q55 0 87.5 -22t32.5 -62q0 -27 -16 -48t-43 -29l65 -125l-47 -7zM323.5 362.5q21.5 9.5 21.5 34.5q0 24 -22 34.5t-51 10.5h-50v-89h52q28 0 49.5 9.5z" />
    <glyph glyph-name="degree" unicode="&#xb0;" horiz-adv-x="314" vert-adv-y="950" 
d="M57.5 402q-20.5 28 -20.5 86q0 59 19.5 108t56.5 77.5t86 28.5q43 0 62.5 -28.5t19.5 -84.5q0 -45 -18 -95.5t-51.5 -85t-78.5 -34.5q-55 0 -75.5 28zM197.5 468q23.5 57 23.5 136q0 30 -5 46.5t-20 16.5t-33.5 -17.5t-33 -51.5t-18.5 -79q-2 -24 -2 -43q0 -65 27 -65
q38 0 61.5 57z" />
    <glyph glyph-name="plusminus" unicode="&#xb1;" horiz-adv-x="533" vert-adv-y="950" 
d="M297 186h-113l27 123h-128l24 112h128l27 122h113l-27 -122h127l-23 -112h-128zM49 147h367l-17 -79h-368z" />
    <glyph glyph-name="uni00B2" unicode="&#xb2;" horiz-adv-x="300" vert-adv-y="950" 
d="M130 411q7 -1 25 -3t33 -2q23 0 35.5 6.5t24 17t15.5 14.5q0 -42 -3.5 -62t-18 -31.5t-47.5 -11.5q-22 0 -40 3t-34 7q-15 4 -32 7t-37 3q-11 0 -26 -7t-20 -9q-2 14 -2 18q0 37 22 67.5t66 72.5q51 49 77 86.5t26 88.5q0 19 -10.5 31.5t-24.5 12.5q-28 0 -37.5 -10.5
t-9.5 -32.5q0 -12 5.5 -23t16.5 -14q-22 -19 -45 -19q-18 0 -29.5 13t-11.5 36q0 32 29.5 55.5t90.5 23.5q110 0 110 -86q0 -36 -18 -66.5t-42.5 -53t-66.5 -54.5q-30 -23 -49.5 -39.5t-30.5 -33.5h4q25 0 55 -5z" />
    <glyph glyph-name="uni00B3" unicode="&#xb3;" horiz-adv-x="316" vert-adv-y="950" 
d="M198 614q26 32 26 64q0 19 -9.5 30.5t-27.5 11.5q-28 0 -40 -11t-12 -32q0 -12 5.5 -23t16.5 -14q-22 -19 -45 -19q-18 0 -29.5 13t-11.5 36q0 31 32 55t93 24q49 0 75.5 -22.5t26.5 -56.5q0 -29 -20 -55.5t-59 -44.5q37 -11 54.5 -34t17.5 -54q0 -33 -19.5 -65.5
t-54 -53.5t-75.5 -21q-51 0 -90 18t-39 69q0 39 18 60.5t51 21.5q40 0 47 -27q-32 -3 -41.5 -19.5t-9.5 -44.5q0 -25 12.5 -34.5t38.5 -9.5q31 0 51 28t20 66q0 33 -18.5 61t-56.5 40q47 11 73 43z" />
    <glyph glyph-name="acute" unicode="&#xb4;" horiz-adv-x="316" vert-adv-y="950" 
d="M211 750h105l-121 -189h-75z" />
    <glyph glyph-name="uni00B5" unicode="&#xb5;" vert-adv-y="950" 
d="M346 0q-42 0 -67.5 22.5t-30.5 67.5q-56 -90 -143 -90l-27 -130l-151 -36l70 330l3 15l68 321h144l-72 -340q-3 -12 -3 -25q0 -44 30 -44q28 0 48 23.5t32 64.5l68 321h144l-72 -340q-4 -15 -4 -32q0 -20 9.5 -28.5t31.5 -8.5q28 0 48.5 24t32.5 64h42
q-61 -179 -201 -179z" />
    <glyph glyph-name="paragraph" unicode="&#xb6;" horiz-adv-x="542" vert-adv-y="950" 
d="M359 299q-18 -6 -43 -11l-77 -369h-94l77 369q-72 14 -111 71.5t-39 131.5q0 64 29 123.5t86 97t135 37.5q82 0 133.5 -40t51.5 -125q0 -29 -8 -72l-127 -593h-94zM422 619q0 43 -23 63l-72 -343h6q22 0 35 4l48 227q6 29 6 49z" />
    <glyph glyph-name="periodcentered" unicode="&#xb7;" horiz-adv-x="434" vert-adv-y="950" 
d="M284.5 199q-28.5 -28 -68.5 -28t-68 28t-28 68t28 68.5t68 28.5t68.5 -28.5t28.5 -68.5t-28.5 -68z" />
    <glyph glyph-name="cedilla" unicode="&#xb8;" horiz-adv-x="227" vert-adv-y="950" 
d="M141 6l-29 -72q34 8 53 8q62 0 62 -50q0 -51 -36 -80.5t-84 -29.5q-34 0 -57 7t-50 21q18 32 40 32q15 0 23.5 -4t19.5 -11q18 -12 31 -12q12 0 21 13t9 29t-9.5 26t-29.5 10q-18 0 -28.5 -3t-23.5 -9l53 148z" />
    <glyph glyph-name="uni00B9" unicode="&#xb9;" horiz-adv-x="217" vert-adv-y="950" 
d="M99 682h-55l7 25q32 0 66 8t81 34l-92 -404h-84z" />
    <glyph glyph-name="ordmasculine" unicode="&#xba;" horiz-adv-x="329" vert-adv-y="950" 
d="M285 657.5q-8 -13.5 -23 -22.5q-2 -53 -22.5 -91.5t-49.5 -58t-57 -19.5q-48 0 -69.5 20.5t-21.5 68.5q0 94 43.5 142t108.5 48q22 0 38.5 -6.5t16.5 -17.5t-7 -16.5t-19 -9.5q-7 19 -26 19q-26 0 -43.5 -27.5t-26 -64t-8.5 -62.5q0 -23 10.5 -32t30.5 -9q25 0 40 32.5
t19 75.5q-15 5 -15 22q0 14 12.5 27.5t26.5 13.5q11 0 15 -4t4 -15q12 7 21 17.5t12 14.5l6 -11q-8 -21 -16 -34.5z" />
    <glyph glyph-name="guillemotright" unicode="&#xbb;" horiz-adv-x="586" vert-adv-y="950" 
d="M29 158l240 96l-194 120l9 55l246 -150l-11 -54l-304 -124zM251 158l240 96l-194 120l9 55l246 -150l-11 -54l-304 -124z" />
    <glyph glyph-name="onequarter" unicode="&#xbc;" horiz-adv-x="689" vert-adv-y="950" 
d="M403 750h72l-264 -915h-72zM147 562h-55l7 25q32 0 66 8t81 34l-92 -404h-84zM515 150h-141q8 24 32 70q25 48 38.5 83t13.5 70q0 20 -4 33q28 0 46.5 -13t18.5 -38q0 -33 -14 -60t-41 -63q-20 -25 -30 -43h90l47 206l86 11l-50 -217h38l-12 -39h-35l-34 -149h-83z" />
    <glyph glyph-name="onehalf" unicode="&#xbd;" horiz-adv-x="675" vert-adv-y="950" 
d="M398 750h72l-264 -915h-72zM147 562h-55l7 25q32 0 66 8t81 34l-92 -404h-84zM493 71q7 -1 25 -3t33 -2q23 0 35.5 6.5t24 17t15.5 14.5q0 -42 -3.5 -62t-18 -31.5t-47.5 -11.5q-22 0 -40 3t-34 7q-15 4 -32 7t-37 3q-11 0 -26 -7t-20 -9q-2 14 -2 18q0 37 22 67.5
t66 72.5q51 49 77 86.5t26 88.5q0 19 -10.5 31.5t-24.5 12.5q-28 0 -37.5 -10.5t-9.5 -32.5q0 -12 5.5 -23t16.5 -14q-22 -19 -45 -19q-18 0 -29.5 13t-11.5 36q0 32 29.5 55.5t90.5 23.5q110 0 110 -86q0 -36 -18 -66.5t-42.5 -53t-66.5 -54.5q-30 -23 -49.5 -39.5
t-30.5 -33.5h4q25 0 55 -5z" />
    <glyph glyph-name="threequarters" unicode="&#xbe;" horiz-adv-x="819" vert-adv-y="950" 
d="M519 750h72l-264 -915h-72zM246 494q26 32 26 64q0 19 -9.5 30.5t-27.5 11.5q-28 0 -40 -11t-12 -32q0 -12 5.5 -23t16.5 -14q-22 -19 -45 -19q-18 0 -29.5 13t-11.5 36q0 31 32 55t93 24q49 0 75.5 -22.5t26.5 -56.5q0 -29 -20 -55.5t-59 -44.5q37 -11 54.5 -34
t17.5 -54q0 -33 -19.5 -65.5t-54 -53.5t-75.5 -21q-51 0 -90 18t-39 69q0 39 18 60.5t51 21.5q40 0 47 -27q-32 -3 -41.5 -19.5t-9.5 -44.5q0 -25 12.5 -34.5t38.5 -9.5q31 0 51 28t20 66q0 33 -18.5 61t-56.5 40q47 11 73 43zM634 150h-141q8 24 32 70q25 48 38.5 83
t13.5 70q0 20 -4 33q28 0 46.5 -13t18.5 -38q0 -33 -14 -60t-41 -63q-20 -25 -30 -43h90l47 206l86 11l-50 -217h38l-12 -39h-35l-34 -149h-83z" />
    <glyph glyph-name="questiondown" unicode="&#xbf;" horiz-adv-x="439" vert-adv-y="950" 
d="M366.5 316q-23.5 -23 -56.5 -23t-56 23t-23 56v1q0 33 23 56.5t56 23.5t56.5 -23.5t23.5 -56.5v-1q0 -33 -23.5 -56zM297 140q-22 -35 -66 -85q-46 -49 -70 -88.5t-24 -90.5q0 -35 15.5 -52t39.5 -17q30 0 55 23.5t25 59.5q0 21 -9.5 41t-28.5 25q12 20 31.5 31t41.5 11
q31 0 53.5 -22t22.5 -62q0 -37 -22.5 -74t-69.5 -62t-118 -25q-88 0 -124.5 33t-36.5 86q0 50 16 87t40.5 62.5t65.5 59.5q45 37 73 67t46 73h66q0 -46 -22 -81z" />
    <glyph glyph-name="Agrave" unicode="&#xc0;" horiz-adv-x="668" vert-adv-y="950" 
d="M468 363q-37 17 -68 25t-66 11q-57 -123 -93.5 -251.5t-36.5 -205.5q0 -38 14 -56q-37 0 -65 6t-48.5 29t-20.5 71q0 67 40.5 180t106.5 227q-50 -3 -79 -15t-38 -37q4 0 8.5 -10t4.5 -21q0 -18 -16 -28.5t-40 -10.5q-28 0 -45 15t-17 43q0 34 26.5 62t73.5 44.5
t104 16.5q21 0 52 -3q82 130 173.5 212.5t174.5 82.5q48 0 79 -14l-157 -736h-144zM445.5 593.5q-46.5 -62.5 -90.5 -151.5q72 -14 122 -35l58 272q-43 -23 -89.5 -85.5zM437 1000h105l29 -189h-75z" />
    <glyph glyph-name="Aacute" unicode="&#xc1;" horiz-adv-x="668" vert-adv-y="950" 
d="M468 363q-37 17 -68 25t-66 11q-57 -123 -93.5 -251.5t-36.5 -205.5q0 -38 14 -56q-37 0 -65 6t-48.5 29t-20.5 71q0 67 40.5 180t106.5 227q-50 -3 -79 -15t-38 -37q4 0 8.5 -10t4.5 -21q0 -18 -16 -28.5t-40 -10.5q-28 0 -45 15t-17 43q0 34 26.5 62t73.5 44.5
t104 16.5q21 0 52 -3q82 130 173.5 212.5t174.5 82.5q48 0 79 -14l-157 -736h-144zM445.5 593.5q-46.5 -62.5 -90.5 -151.5q72 -14 122 -35l58 272q-43 -23 -89.5 -85.5zM577 1000h105l-121 -189h-75z" />
    <glyph glyph-name="Acircumflex" unicode="&#xc2;" horiz-adv-x="668" vert-adv-y="950" 
d="M468 363q-37 17 -68 25t-66 11q-57 -123 -93.5 -251.5t-36.5 -205.5q0 -38 14 -56q-37 0 -65 6t-48.5 29t-20.5 71q0 67 40.5 180t106.5 227q-50 -3 -79 -15t-38 -37q4 0 8.5 -10t4.5 -21q0 -18 -16 -28.5t-40 -10.5q-28 0 -45 15t-17 43q0 34 26.5 62t73.5 44.5
t104 16.5q21 0 52 -3q82 130 173.5 212.5t174.5 82.5q48 0 79 -14l-157 -736h-144zM445.5 593.5q-46.5 -62.5 -90.5 -151.5q72 -14 122 -35l58 272q-43 -23 -89.5 -85.5zM608 891l-157 -80h-44l212 189h21l60 -189h-32z" />
    <glyph glyph-name="Atilde" unicode="&#xc3;" horiz-adv-x="668" vert-adv-y="950" 
d="M468 363q-37 17 -68 25t-66 11q-57 -123 -93.5 -251.5t-36.5 -205.5q0 -38 14 -56q-37 0 -65 6t-48.5 29t-20.5 71q0 67 40.5 180t106.5 227q-50 -3 -79 -15t-38 -37q4 0 8.5 -10t4.5 -21q0 -18 -16 -28.5t-40 -10.5q-28 0 -45 15t-17 43q0 34 26.5 62t73.5 44.5
t104 16.5q21 0 52 -3q82 130 173.5 212.5t174.5 82.5q48 0 79 -14l-157 -736h-144zM445.5 593.5q-46.5 -62.5 -90.5 -151.5q72 -14 122 -35l58 272q-43 -23 -89.5 -85.5zM780.5 872.5q-24.5 -23.5 -59.5 -38.5t-72 -15q-23 0 -44 5t-48 15q-23 8 -40.5 12.5t-35.5 4.5
q-37 0 -66 -26l-6 2q24 48 67 73t100 25q25 0 46 -4.5t46 -13.5q43 -15 73 -15q40 0 63 23l6 -1q-5 -23 -29.5 -46.5z" />
    <glyph glyph-name="Adieresis" unicode="&#xc4;" horiz-adv-x="668" vert-adv-y="950" 
d="M468 363q-37 17 -68 25t-66 11q-57 -123 -93.5 -251.5t-36.5 -205.5q0 -38 14 -56q-37 0 -65 6t-48.5 29t-20.5 71q0 67 40.5 180t106.5 227q-50 -3 -79 -15t-38 -37q4 0 8.5 -10t4.5 -21q0 -18 -16 -28.5t-40 -10.5q-28 0 -45 15t-17 43q0 34 26.5 62t73.5 44.5
t104 16.5q21 0 52 -3q82 130 173.5 212.5t174.5 82.5q48 0 79 -14l-157 -736h-144zM445.5 593.5q-46.5 -62.5 -90.5 -151.5q72 -14 122 -35l58 272q-43 -23 -89.5 -85.5zM447.5 840.5q-17.5 17.5 -17.5 43.5q0 25 17.5 43t43.5 18q25 0 43 -18t18 -43q0 -26 -18 -43.5
t-43 -17.5q-26 0 -43.5 17.5zM627.5 840.5q-17.5 17.5 -17.5 43.5q0 25 17.5 43t43.5 18q25 0 43 -18t18 -43q0 -26 -18 -43.5t-43 -17.5q-26 0 -43.5 17.5z" />
    <glyph glyph-name="Aring" unicode="&#xc5;" horiz-adv-x="668" vert-adv-y="950" 
d="M468 363q-37 17 -68 25t-66 11q-57 -123 -93.5 -251.5t-36.5 -205.5q0 -38 14 -56q-37 0 -65 6t-48.5 29t-20.5 71q0 67 40.5 180t106.5 227q-50 -3 -79 -15t-38 -37q4 0 8.5 -10t4.5 -21q0 -18 -16 -28.5t-40 -10.5q-28 0 -45 15t-17 43q0 34 26.5 62t73.5 44.5
t104 16.5q21 0 52 -3q82 130 173.5 212.5t174.5 82.5q48 0 79 -14l-157 -736h-144zM445.5 593.5q-46.5 -62.5 -90.5 -151.5q72 -14 122 -35l58 272q-43 -23 -89.5 -85.5zM620.5 826q-21.5 -24 -65.5 -24q-32 0 -51 20t-19 50q0 32 22 61.5t63 29.5q35 0 53.5 -21.5
t18.5 -55.5q0 -36 -21.5 -60zM599 917q-6 13 -27 13q-24 0 -35.5 -17t-11.5 -39q0 -37 34 -37q23 0 34.5 12t11.5 34q0 21 -6 34z" />
    <glyph glyph-name="AE" unicode="&#xc6;" horiz-adv-x="764" vert-adv-y="950" 
d="M468 363q-70 31 -135 36q-56 -123 -92.5 -250.5t-36.5 -205.5q0 -37 7 -45.5t7 -10.5q-45 2 -71.5 8.5t-44.5 30t-18 73.5q0 64 40.5 175.5t106.5 224.5q-49 -3 -77.5 -14.5t-39.5 -37.5q4 0 8.5 -10t4.5 -21q0 -17 -15 -28t-46 -11q-24 0 -40.5 15.5t-16.5 47.5
q0 30 27 56.5t72 42.5t96 16q26 0 59 -3q82 132 174 215.5t175 83.5q30 0 79 -9q24 -4 50.5 -7.5t50.5 -3.5q61 0 117 19q-2 -6 -11.5 -39t-33.5 -52t-62 -19q-29 0 -52 6.5t-43.5 14.5t-28.5 11l-54 -253h155l-20 -74h-151l-51 -239h224l-21 -106h-369zM444 592.5
q-47 -62.5 -91 -151.5q69 -13 124 -34l58 272q-44 -24 -91 -86.5z" />
    <glyph glyph-name="Ccedilla" unicode="&#xc7;" horiz-adv-x="497" vert-adv-y="950" 
d="M414 106q50 26 86 74l23 -10q-33 -83 -105.5 -129t-149.5 -55l-21 -52q34 8 53 8q62 0 62 -50q0 -51 -36 -80.5t-84 -29.5q-34 0 -57 7t-50 21q18 32 40 32q15 0 23.5 -4t19.5 -11q18 -12 31 -12q12 0 21 13t9 29t-9.5 26t-29.5 10q-18 0 -28.5 -3t-23.5 -9l37 103
q-106 3 -156 60t-50 186q0 105 35.5 226t114 207.5t199.5 86.5q75 0 121 -33t46 -101q0 -43 -17 -67.5t-53 -24.5t-57 26q18 9 32 36t14 56q0 27 -14.5 44t-46.5 17q-53 0 -101 -72.5t-77.5 -182.5t-29.5 -212q0 -76 26 -116t94 -40q59 0 109 26z" />
    <glyph glyph-name="Egrave" unicode="&#xc8;" horiz-adv-x="459" vert-adv-y="950" 
d="M364 33q-81 -51 -173 -51q-91 0 -137.5 50t-46.5 126q0 54 22.5 108.5t64.5 95.5t98 55q-31 22 -46 53.5t-15 66.5q0 52 28.5 102t79 81.5t111.5 31.5q63 0 103 -33t40 -92q0 -44 -22 -74t-52 -30q-27 0 -47 27q18 6 31 33t13 54q0 29 -16 42.5t-39 13.5
q-29 0 -52.5 -20.5t-36.5 -53t-13 -67.5q0 -48 25 -84.5t76 -49.5q-51 -11 -92 -50t-64 -90.5t-23 -98.5q0 -45 23.5 -73t71.5 -28q50 0 104.5 27.5t80.5 74.5l23 -10q-39 -86 -120 -137zM252 1000h105l29 -189h-75z" />
    <glyph glyph-name="Eacute" unicode="&#xc9;" horiz-adv-x="459" vert-adv-y="950" 
d="M364 33q-81 -51 -173 -51q-91 0 -137.5 50t-46.5 126q0 54 22.5 108.5t64.5 95.5t98 55q-31 22 -46 53.5t-15 66.5q0 52 28.5 102t79 81.5t111.5 31.5q63 0 103 -33t40 -92q0 -44 -22 -74t-52 -30q-27 0 -47 27q18 6 31 33t13 54q0 29 -16 42.5t-39 13.5
q-29 0 -52.5 -20.5t-36.5 -53t-13 -67.5q0 -48 25 -84.5t76 -49.5q-51 -11 -92 -50t-64 -90.5t-23 -98.5q0 -45 23.5 -73t71.5 -28q50 0 104.5 27.5t80.5 74.5l23 -10q-39 -86 -120 -137zM421 1000h105l-121 -189h-75z" />
    <glyph glyph-name="Ecircumflex" unicode="&#xca;" horiz-adv-x="459" vert-adv-y="950" 
d="M364 33q-81 -51 -173 -51q-91 0 -137.5 50t-46.5 126q0 54 22.5 108.5t64.5 95.5t98 55q-31 22 -46 53.5t-15 66.5q0 52 28.5 102t79 81.5t111.5 31.5q63 0 103 -33t40 -92q0 -44 -22 -74t-52 -30q-27 0 -47 27q18 6 31 33t13 54q0 29 -16 42.5t-39 13.5
q-29 0 -52.5 -20.5t-36.5 -53t-13 -67.5q0 -48 25 -84.5t76 -49.5q-51 -11 -92 -50t-64 -90.5t-23 -98.5q0 -45 23.5 -73t71.5 -28q50 0 104.5 27.5t80.5 74.5l23 -10q-39 -86 -120 -137zM403 891l-157 -80h-44l212 189h21l60 -189h-32z" />
    <glyph glyph-name="Edieresis" unicode="&#xcb;" horiz-adv-x="459" vert-adv-y="950" 
d="M364 33q-81 -51 -173 -51q-91 0 -137.5 50t-46.5 126q0 54 22.5 108.5t64.5 95.5t98 55q-31 22 -46 53.5t-15 66.5q0 52 28.5 102t79 81.5t111.5 31.5q63 0 103 -33t40 -92q0 -44 -22 -74t-52 -30q-27 0 -47 27q18 6 31 33t13 54q0 29 -16 42.5t-39 13.5
q-29 0 -52.5 -20.5t-36.5 -53t-13 -67.5q0 -48 25 -84.5t76 -49.5q-51 -11 -92 -50t-64 -90.5t-23 -98.5q0 -45 23.5 -73t71.5 -28q50 0 104.5 27.5t80.5 74.5l23 -10q-39 -86 -120 -137zM255.5 840.5q-17.5 17.5 -17.5 43.5q0 25 17.5 43t43.5 18q25 0 43 -18t18 -43
q0 -26 -18 -43.5t-43 -17.5q-26 0 -43.5 17.5zM435.5 840.5q-17.5 17.5 -17.5 43.5q0 25 17.5 43t43.5 18q25 0 43 -18t18 -43q0 -26 -18 -43.5t-43 -17.5q-26 0 -43.5 17.5z" />
    <glyph glyph-name="Igrave" unicode="&#xcc;" horiz-adv-x="375" vert-adv-y="950" 
d="M239 679q-67 -27 -103.5 -82.5t-36.5 -135.5q0 -37 7 -51.5t7 -16.5q-54 0 -80.5 22.5t-26.5 74.5q0 64 52.5 124.5t134.5 98t164 37.5q14 0 40 -2l-159 -748h-144zM171 1000h105l29 -189h-75z" />
    <glyph glyph-name="Iacute" unicode="&#xcd;" horiz-adv-x="375" vert-adv-y="950" 
d="M239 679q-67 -27 -103.5 -82.5t-36.5 -135.5q0 -37 7 -51.5t7 -16.5q-54 0 -80.5 22.5t-26.5 74.5q0 64 52.5 124.5t134.5 98t164 37.5q14 0 40 -2l-159 -748h-144zM360 1000h105l-121 -189h-75z" />
    <glyph glyph-name="Icircumflex" unicode="&#xce;" horiz-adv-x="375" vert-adv-y="950" 
d="M239 679q-67 -27 -103.5 -82.5t-36.5 -135.5q0 -37 7 -51.5t7 -16.5q-54 0 -80.5 22.5t-26.5 74.5q0 64 52.5 124.5t134.5 98t164 37.5q14 0 40 -2l-159 -748h-144zM352 891l-157 -80h-44l212 189h21l60 -189h-32z" />
    <glyph glyph-name="Idieresis" unicode="&#xcf;" horiz-adv-x="375" vert-adv-y="950" 
d="M239 679q-67 -27 -103.5 -82.5t-36.5 -135.5q0 -37 7 -51.5t7 -16.5q-54 0 -80.5 22.5t-26.5 74.5q0 64 52.5 124.5t134.5 98t164 37.5q14 0 40 -2l-159 -748h-144zM184.5 840.5q-17.5 17.5 -17.5 43.5q0 25 17.5 43t43.5 18q25 0 43 -18t18 -43q0 -26 -18 -43.5
t-43 -17.5q-26 0 -43.5 17.5zM364.5 840.5q-17.5 17.5 -17.5 43.5q0 25 17.5 43t43.5 18q25 0 43 -18t18 -43q0 -26 -18 -43.5t-43 -17.5q-26 0 -43.5 17.5z" />
    <glyph glyph-name="Eth" unicode="&#xd0;" horiz-adv-x="663" vert-adv-y="950" 
d="M168 345h-39l20 74h35l46 217l148 20l-51 -237h79l-20 -74h-75l-53 -250q28 -20 57 -20q56 0 100 66t68 167t24 200q0 68 -11 109.5t-41 64t-86 22.5q-81 0 -142 -29t-94.5 -84t-33.5 -130q0 -37 7 -51.5t7 -16.5q-54 0 -80.5 22.5t-26.5 74.5q0 64 52.5 124.5t134.5 98
t164 37.5q288 0 288 -270q0 -127 -38.5 -241t-102.5 -183t-136 -69q-60 0 -122 53l-8 -40h-144z" />
    <glyph glyph-name="Ntilde" unicode="&#xd1;" horiz-adv-x="686" vert-adv-y="950" 
d="M349 523l-111 -523h-144l144 679q-67 -27 -103 -83t-36 -135q0 -37 7 -51.5t7 -16.5q-54 0 -80.5 22.5t-26.5 74.5q0 59 36 119.5t100.5 100.5t146.5 40q34 0 54 -2t39 -12l79 -530l109 542h144l-159 -748h-121zM679.5 872.5q-24.5 -23.5 -59.5 -38.5t-72 -15
q-23 0 -44 5t-48 15q-23 8 -40.5 12.5t-35.5 4.5q-37 0 -66 -26l-6 2q24 48 67 73t100 25q25 0 46 -4.5t46 -13.5q43 -15 73 -15q40 0 63 23l6 -1q-5 -23 -29.5 -46.5z" />
    <glyph glyph-name="Ograve" unicode="&#xd2;" horiz-adv-x="658" vert-adv-y="950" 
d="M346.5 549q-40.5 -81 -65.5 -181t-25 -177q0 -54 14 -85t44 -31q49 0 97.5 70.5t80 177.5t31.5 206q0 62 -10.5 99.5t-38.5 56.5t-79 19q-77 0 -143 -31.5t-105.5 -90t-39.5 -135.5q0 -27 5 -39.5t5 -14.5q-50 0 -75.5 20t-25.5 64q0 69 56.5 132t150 102t196.5 39
q125 0 181 -68t56 -188q0 -107 -40 -223t-123.5 -196.5t-205.5 -80.5q-84 0 -131.5 48t-47.5 153q0 89 32 200t93.5 190t145.5 79q30 0 52 -8q-44 -26 -84.5 -107zM292 1000h105l29 -189h-75z" />
    <glyph glyph-name="Oacute" unicode="&#xd3;" horiz-adv-x="658" vert-adv-y="950" 
d="M346.5 549q-40.5 -81 -65.5 -181t-25 -177q0 -54 14 -85t44 -31q49 0 97.5 70.5t80 177.5t31.5 206q0 62 -10.5 99.5t-38.5 56.5t-79 19q-77 0 -143 -31.5t-105.5 -90t-39.5 -135.5q0 -27 5 -39.5t5 -14.5q-50 0 -75.5 20t-25.5 64q0 69 56.5 132t150 102t196.5 39
q125 0 181 -68t56 -188q0 -107 -40 -223t-123.5 -196.5t-205.5 -80.5q-84 0 -131.5 48t-47.5 153q0 89 32 200t93.5 190t145.5 79q30 0 52 -8q-44 -26 -84.5 -107zM488 1000h105l-121 -189h-75z" />
    <glyph glyph-name="Ocircumflex" unicode="&#xd4;" horiz-adv-x="658" vert-adv-y="950" 
d="M346.5 549q-40.5 -81 -65.5 -181t-25 -177q0 -54 14 -85t44 -31q49 0 97.5 70.5t80 177.5t31.5 206q0 62 -10.5 99.5t-38.5 56.5t-79 19q-77 0 -143 -31.5t-105.5 -90t-39.5 -135.5q0 -27 5 -39.5t5 -14.5q-50 0 -75.5 20t-25.5 64q0 69 56.5 132t150 102t196.5 39
q125 0 181 -68t56 -188q0 -107 -40 -223t-123.5 -196.5t-205.5 -80.5q-84 0 -131.5 48t-47.5 153q0 89 32 200t93.5 190t145.5 79q30 0 52 -8q-44 -26 -84.5 -107zM473 891l-157 -80h-44l212 189h21l60 -189h-32z" />
    <glyph glyph-name="Otilde" unicode="&#xd5;" horiz-adv-x="658" vert-adv-y="950" 
d="M346.5 549q-40.5 -81 -65.5 -181t-25 -177q0 -54 14 -85t44 -31q49 0 97.5 70.5t80 177.5t31.5 206q0 62 -10.5 99.5t-38.5 56.5t-79 19q-77 0 -143 -31.5t-105.5 -90t-39.5 -135.5q0 -27 5 -39.5t5 -14.5q-50 0 -75.5 20t-25.5 64q0 69 56.5 132t150 102t196.5 39
q125 0 181 -68t56 -188q0 -107 -40 -223t-123.5 -196.5t-205.5 -80.5q-84 0 -131.5 48t-47.5 153q0 89 32 200t93.5 190t145.5 79q30 0 52 -8q-44 -26 -84.5 -107zM645.5 872.5q-24.5 -23.5 -59.5 -38.5t-72 -15q-23 0 -44 5t-48 15q-23 8 -40.5 12.5t-35.5 4.5
q-37 0 -66 -26l-6 2q24 48 67 73t100 25q25 0 46 -4.5t46 -13.5q43 -15 73 -15q40 0 63 23l6 -1q-5 -23 -29.5 -46.5z" />
    <glyph glyph-name="Odieresis" unicode="&#xd6;" horiz-adv-x="658" vert-adv-y="950" 
d="M346.5 549q-40.5 -81 -65.5 -181t-25 -177q0 -54 14 -85t44 -31q49 0 97.5 70.5t80 177.5t31.5 206q0 62 -10.5 99.5t-38.5 56.5t-79 19q-77 0 -143 -31.5t-105.5 -90t-39.5 -135.5q0 -27 5 -39.5t5 -14.5q-50 0 -75.5 20t-25.5 64q0 69 56.5 132t150 102t196.5 39
q125 0 181 -68t56 -188q0 -107 -40 -223t-123.5 -196.5t-205.5 -80.5q-84 0 -131.5 48t-47.5 153q0 89 32 200t93.5 190t145.5 79q30 0 52 -8q-44 -26 -84.5 -107zM305.5 840.5q-17.5 17.5 -17.5 43.5q0 25 17.5 43t43.5 18q25 0 43 -18t18 -43q0 -26 -18 -43.5t-43 -17.5
q-26 0 -43.5 17.5zM485.5 840.5q-17.5 17.5 -17.5 43.5q0 25 17.5 43t43.5 18q25 0 43 -18t18 -43q0 -26 -18 -43.5t-43 -17.5q-26 0 -43.5 17.5z" />
    <glyph glyph-name="multiply" unicode="&#xd7;" horiz-adv-x="515" vert-adv-y="950" 
d="M163 101l-65 64l95 95l-95 95l65 64l94 -95l96 96l64 -65l-95 -95l95 -95l-64 -65l-96 95z" />
    <glyph glyph-name="Oslash" unicode="&#xd8;" horiz-adv-x="658" vert-adv-y="950" 
d="M279 -6h-2q-81 0 -127 45.5t-46 143.5q0 83 31 187t90.5 178t139.5 74q25 0 45 -7l9 41q-16 3 -38 3q-75 0 -138.5 -29.5t-101.5 -84.5t-38 -127q0 -25 5 -36.5t5 -13.5q-48 0 -73 18.5t-25 59.5q0 65 54.5 124t144.5 95.5t190 36.5q16 0 24 -1l11 49h52l-12 -56
q153 -37 153 -232q0 -91 -32.5 -191.5t-100.5 -177t-167 -94.5l-15 -70h-52zM425.5 183.5q35.5 66.5 57 150.5t21.5 161q0 54 -8 87t-30 52l-115 -546q39 29 74.5 95.5zM330.5 507.5q-37.5 -75.5 -60.5 -167t-23 -161.5q0 -99 48 -109l114 540q-41 -27 -78.5 -102.5z" />
    <glyph glyph-name="Ugrave" unicode="&#xd9;" horiz-adv-x="719" vert-adv-y="950" 
d="M761 748l-66 -312q-35 -168 -72 -259.5t-101 -137.5t-174 -46q-104 0 -148.5 40t-44.5 119q0 58 15.5 133t49.5 207l17 68l33 132q-83 -22 -130 -81.5t-47 -148.5q0 -38 7 -52t7 -17q-53 0 -80 21.5t-27 70.5q0 69 53.5 130t141 98t183.5 37q22 0 48 -5l-44 -161
q-55 -202 -73 -279t-18 -124q0 -45 16 -67.5t53 -22.5q49 0 76.5 20.5t54 93.5t62.5 234l67 309h141zM410 1000h105l29 -189h-75z" />
    <glyph glyph-name="Uacute" unicode="&#xda;" horiz-adv-x="719" vert-adv-y="950" 
d="M761 748l-66 -312q-35 -168 -72 -259.5t-101 -137.5t-174 -46q-104 0 -148.5 40t-44.5 119q0 58 15.5 133t49.5 207l17 68l33 132q-83 -22 -130 -81.5t-47 -148.5q0 -38 7 -52t7 -17q-53 0 -80 21.5t-27 70.5q0 69 53.5 130t141 98t183.5 37q22 0 48 -5l-44 -161
q-55 -202 -73 -279t-18 -124q0 -45 16 -67.5t53 -22.5q49 0 76.5 20.5t54 93.5t62.5 234l67 309h141zM542 1000h105l-121 -189h-75z" />
    <glyph glyph-name="Ucircumflex" unicode="&#xdb;" horiz-adv-x="719" vert-adv-y="950" 
d="M761 748l-66 -312q-35 -168 -72 -259.5t-101 -137.5t-174 -46q-104 0 -148.5 40t-44.5 119q0 58 15.5 133t49.5 207l17 68l33 132q-83 -22 -130 -81.5t-47 -148.5q0 -38 7 -52t7 -17q-53 0 -80 21.5t-27 70.5q0 69 53.5 130t141 98t183.5 37q22 0 48 -5l-44 -161
q-55 -202 -73 -279t-18 -124q0 -45 16 -67.5t53 -22.5q49 0 76.5 20.5t54 93.5t62.5 234l67 309h141zM564 891l-157 -80h-44l212 189h21l60 -189h-32z" />
    <glyph glyph-name="Udieresis" unicode="&#xdc;" horiz-adv-x="719" vert-adv-y="950" 
d="M761 748l-66 -312q-35 -168 -72 -259.5t-101 -137.5t-174 -46q-104 0 -148.5 40t-44.5 119q0 58 15.5 133t49.5 207l17 68l33 132q-83 -22 -130 -81.5t-47 -148.5q0 -38 7 -52t7 -17q-53 0 -80 21.5t-27 70.5q0 69 53.5 130t141 98t183.5 37q22 0 48 -5l-44 -161
q-55 -202 -73 -279t-18 -124q0 -45 16 -67.5t53 -22.5q49 0 76.5 20.5t54 93.5t62.5 234l67 309h141zM390.5 840.5q-17.5 17.5 -17.5 43.5q0 25 17.5 43t43.5 18q25 0 43 -18t18 -43q0 -26 -18 -43.5t-43 -17.5q-26 0 -43.5 17.5zM570.5 840.5q-17.5 17.5 -17.5 43.5
q0 25 17.5 43t43.5 18q25 0 43 -18t18 -43q0 -26 -18 -43.5t-43 -17.5q-26 0 -43.5 17.5z" />
    <glyph glyph-name="Yacute" unicode="&#xdd;" horiz-adv-x="620" vert-adv-y="950" 
d="M344 308l-96 375q-71 -27 -110 -83.5t-39 -138.5q0 -37 7 -51.5t7 -16.5q-54 0 -80.5 22.5t-26.5 74.5q0 64 52.5 124.5t134.5 98t164 37.5q14 0 40 -2l87 -358l148 355h66l-194 -437l-66 -308h-160zM544 1000h105l-121 -189h-75z" />
    <glyph glyph-name="Thorn" unicode="&#xde;" horiz-adv-x="583" vert-adv-y="950" 
d="M214 562q-56 -29 -85.5 -82.5t-29.5 -128.5q0 -37 7 -51.5t7 -16.5q-54 0 -80.5 22.5t-26.5 74.5q0 48 29.5 94.5t79.5 83.5t110 58l25 114l148 20l-24 -110q108 -6 163.5 -61t55.5 -136q0 -65 -35.5 -127t-101.5 -101.5t-152 -39.5h-29l-37 -175h-144zM390.5 250
q42.5 38 67 95.5t24.5 112.5q0 58 -29 96t-88 40l-82 -382h14q51 0 93.5 38z" />
    <glyph glyph-name="germandbls" unicode="&#xdf;" horiz-adv-x="450" vert-adv-y="950" 
d="M81 530q20 96 70.5 133t111.5 37q66 0 101.5 -36.5t35.5 -90.5q0 -45 -24.5 -85.5t-67.5 -60.5q50 -17 73.5 -55t23.5 -87q0 -95 -30.5 -159.5t-75 -95t-84.5 -30.5q-11 0 -33 2l13 59q38 0 62.5 39.5t35.5 96t11 109.5q0 35 -16 55.5t-56 31.5l18 58q35 15 59 42.5
t24 68.5q0 29 -8.5 39.5t-29.5 10.5t-41 -18.5t-29 -63.5l-159 -744l-151 -36z" />
    <glyph glyph-name="agrave" unicode="&#xe0;" horiz-adv-x="526" vert-adv-y="950" 
d="M476.5 32.5q-54.5 -38.5 -109.5 -38.5q-42 0 -67.5 23.5t-30.5 68.5q-29 -41 -64.5 -66.5t-84.5 -25.5q-57 0 -95 39t-38 122q0 74 29.5 155.5t88 138t139.5 56.5q41 0 61 -14t20 -37v-7l11 53h144l-72 -340q-4 -15 -4 -32q0 -43 41 -43q28 0 48.5 26t32.5 68h42
q-37 -108 -91.5 -146.5zM306 430.5q-10 12.5 -31 12.5q-40 0 -72 -46.5t-50 -112t-18 -115.5t14.5 -64t35.5 -14q25 0 49.5 23.5t33.5 64.5l48 226q0 13 -10 25.5zM216 750h105l29 -189h-75z" />
    <glyph glyph-name="aacute" unicode="&#xe1;" horiz-adv-x="526" vert-adv-y="950" 
d="M476.5 32.5q-54.5 -38.5 -109.5 -38.5q-42 0 -67.5 23.5t-30.5 68.5q-29 -41 -64.5 -66.5t-84.5 -25.5q-57 0 -95 39t-38 122q0 74 29.5 155.5t88 138t139.5 56.5q41 0 61 -14t20 -37v-7l11 53h144l-72 -340q-4 -15 -4 -32q0 -43 41 -43q28 0 48.5 26t32.5 68h42
q-37 -108 -91.5 -146.5zM306 430.5q-10 12.5 -31 12.5q-40 0 -72 -46.5t-50 -112t-18 -115.5t14.5 -64t35.5 -14q25 0 49.5 23.5t33.5 64.5l48 226q0 13 -10 25.5zM336 750h105l-121 -189h-75z" />
    <glyph glyph-name="acircumflex" unicode="&#xe2;" horiz-adv-x="526" vert-adv-y="950" 
d="M476.5 32.5q-54.5 -38.5 -109.5 -38.5q-42 0 -67.5 23.5t-30.5 68.5q-29 -41 -64.5 -66.5t-84.5 -25.5q-57 0 -95 39t-38 122q0 74 29.5 155.5t88 138t139.5 56.5q41 0 61 -14t20 -37v-7l11 53h144l-72 -340q-4 -15 -4 -32q0 -43 41 -43q28 0 48.5 26t32.5 68h42
q-37 -108 -91.5 -146.5zM306 430.5q-10 12.5 -31 12.5q-40 0 -72 -46.5t-50 -112t-18 -115.5t14.5 -64t35.5 -14q25 0 49.5 23.5t33.5 64.5l48 226q0 13 -10 25.5zM347 641l-157 -80h-44l212 189h21l60 -189h-32z" />
    <glyph glyph-name="atilde" unicode="&#xe3;" horiz-adv-x="526" vert-adv-y="950" 
d="M476.5 32.5q-54.5 -38.5 -109.5 -38.5q-42 0 -67.5 23.5t-30.5 68.5q-29 -41 -64.5 -66.5t-84.5 -25.5q-57 0 -95 39t-38 122q0 74 29.5 155.5t88 138t139.5 56.5q41 0 61 -14t20 -37v-7l11 53h144l-72 -340q-4 -15 -4 -32q0 -43 41 -43q28 0 48.5 26t32.5 68h42
q-37 -108 -91.5 -146.5zM306 430.5q-10 12.5 -31 12.5q-40 0 -72 -46.5t-50 -112t-18 -115.5t14.5 -64t35.5 -14q25 0 49.5 23.5t33.5 64.5l48 226q0 13 -10 25.5zM473.5 622.5q-24.5 -23.5 -59.5 -38.5t-72 -15q-23 0 -44 5t-48 15q-23 8 -40.5 12.5t-35.5 4.5
q-37 0 -66 -26l-6 2q24 48 67 73t100 25q25 0 46 -4.5t46 -13.5q43 -15 73 -15q40 0 63 23l6 -1q-5 -23 -29.5 -46.5z" />
    <glyph glyph-name="adieresis" unicode="&#xe4;" horiz-adv-x="526" vert-adv-y="950" 
d="M476.5 32.5q-54.5 -38.5 -109.5 -38.5q-42 0 -67.5 23.5t-30.5 68.5q-29 -41 -64.5 -66.5t-84.5 -25.5q-57 0 -95 39t-38 122q0 74 29.5 155.5t88 138t139.5 56.5q41 0 61 -14t20 -37v-7l11 53h144l-72 -340q-4 -15 -4 -32q0 -43 41 -43q28 0 48.5 26t32.5 68h42
q-37 -108 -91.5 -146.5zM306 430.5q-10 12.5 -31 12.5q-40 0 -72 -46.5t-50 -112t-18 -115.5t14.5 -64t35.5 -14q25 0 49.5 23.5t33.5 64.5l48 226q0 13 -10 25.5zM197.5 590.5q-17.5 17.5 -17.5 43.5q0 25 17.5 43t43.5 18q25 0 43 -18t18 -43q0 -26 -18 -43.5t-43 -17.5
q-26 0 -43.5 17.5zM377.5 590.5q-17.5 17.5 -17.5 43.5q0 25 17.5 43t43.5 18q25 0 43 -18t18 -43q0 -26 -18 -43.5t-43 -17.5q-26 0 -43.5 17.5z" />
    <glyph glyph-name="aring" unicode="&#xe5;" horiz-adv-x="526" vert-adv-y="950" 
d="M476.5 32.5q-54.5 -38.5 -109.5 -38.5q-42 0 -67.5 23.5t-30.5 68.5q-29 -41 -64.5 -66.5t-84.5 -25.5q-57 0 -95 39t-38 122q0 74 29.5 155.5t88 138t139.5 56.5q41 0 61 -14t20 -37v-7l11 53h144l-72 -340q-4 -15 -4 -32q0 -43 41 -43q28 0 48.5 26t32.5 68h42
q-37 -108 -91.5 -146.5zM306 430.5q-10 12.5 -31 12.5q-40 0 -72 -46.5t-50 -112t-18 -115.5t14.5 -64t35.5 -14q25 0 49.5 23.5t33.5 64.5l48 226q0 13 -10 25.5zM369.5 576q-21.5 -24 -65.5 -24q-32 0 -51 20t-19 50q0 32 22 61.5t63 29.5q35 0 53.5 -21.5t18.5 -55.5
q0 -36 -21.5 -60zM348 667q-6 13 -27 13q-24 0 -35.5 -17t-11.5 -39q0 -37 34 -37q23 0 34.5 12t11.5 34q0 21 -6 34z" />
    <glyph glyph-name="ae" unicode="&#xe6;" horiz-adv-x="650" vert-adv-y="950" 
d="M408 -4q-121 0 -147 94q-24 -45 -56 -70.5t-86 -25.5t-90.5 29t-36.5 101q0 88 60 127t162 39q36 0 52 -4q21 45 21 88q0 32 -15 51.5t-46 19.5q-42 0 -69 -12t-52 -35l-28 29q35 35 65.5 52t56 21.5t60.5 4.5q80 0 130 -40q59 44 135 44q62 0 85.5 -26.5t23.5 -72.5
q0 -54 -32 -100.5t-85 -75t-113 -32.5q-2 -22 -2 -32q0 -53 15 -72.5t45 -19.5q46 0 77.5 12t53.5 31t58 58h34q-112 -183 -276 -183zM481.5 276q33.5 24 54 60.5t20.5 75.5q0 22 -5 33t-19 11q-37 0 -70.5 -62.5t-51.5 -143.5q38 2 71.5 26zM242 229q-49 0 -79 -24t-30 -64
q0 -29 15 -39.5t31 -10.5q27 0 46 29.5t34 107.5q-7 1 -17 1z" />
    <glyph glyph-name="ccedilla" unicode="&#xe7;" horiz-adv-x="384" vert-adv-y="950" 
d="M219 5l-29 -71q34 8 53 8q62 0 62 -50q0 -51 -36 -80.5t-84 -29.5q-34 0 -57 7t-50 21q18 32 40 32q15 0 23.5 -4t19.5 -11q18 -12 31 -12q12 0 21 13t9 29t-9.5 26t-29.5 10q-18 0 -28.5 -3t-23.5 -9l41 115q-18 -2 -29 -2q-74 0 -115 38.5t-41 120.5q0 69 27.5 152
t88 143.5t153.5 60.5q60 0 85.5 -26t25.5 -66q0 -35 -15 -54t-38 -19q-17 0 -35 12q12 33 12 59q0 19 -7 30t-21 11q-30 0 -60 -49t-49 -119t-19 -126q0 -49 17 -66.5t55 -17.5q54 0 92.5 25t84.5 76h34q-85 -140 -199 -174z" />
    <glyph glyph-name="egrave" unicode="&#xe8;" horiz-adv-x="384" vert-adv-y="950" 
d="M143 -6q-74 0 -115 38.5t-41 120.5q0 69 27 152t88 143.5t155 60.5q110 0 110 -96q0 -56 -32 -103t-85 -75.5t-113 -32.5q-2 -30 -2 -40q0 -49 17 -66.5t55 -17.5q54 0 92.5 25t84.5 76h34q-111 -185 -275 -185zM215.5 276q33.5 24 54 61t20.5 78t-25 41q-36 0 -70.5 -63
t-49.5 -143q37 2 70.5 26zM173 750h105l29 -189h-75z" />
    <glyph glyph-name="eacute" unicode="&#xe9;" horiz-adv-x="384" vert-adv-y="950" 
d="M143 -6q-74 0 -115 38.5t-41 120.5q0 69 27 152t88 143.5t155 60.5q110 0 110 -96q0 -56 -32 -103t-85 -75.5t-113 -32.5q-2 -30 -2 -40q0 -49 17 -66.5t55 -17.5q54 0 92.5 25t84.5 76h34q-111 -185 -275 -185zM215.5 276q33.5 24 54 61t20.5 78t-25 41q-36 0 -70.5 -63
t-49.5 -143q37 2 70.5 26zM285 750h105l-121 -189h-75z" />
    <glyph glyph-name="ecircumflex" unicode="&#xea;" horiz-adv-x="384" vert-adv-y="950" 
d="M143 -6q-74 0 -115 38.5t-41 120.5q0 69 27 152t88 143.5t155 60.5q110 0 110 -96q0 -56 -32 -103t-85 -75.5t-113 -32.5q-2 -30 -2 -40q0 -49 17 -66.5t55 -17.5q54 0 92.5 25t84.5 76h34q-111 -185 -275 -185zM215.5 276q33.5 24 54 61t20.5 78t-25 41q-36 0 -70.5 -63
t-49.5 -143q37 2 70.5 26zM306 641l-157 -80h-44l212 189h21l60 -189h-32z" />
    <glyph glyph-name="edieresis" unicode="&#xeb;" horiz-adv-x="384" vert-adv-y="950" 
d="M143 -6q-74 0 -115 38.5t-41 120.5q0 69 27 152t88 143.5t155 60.5q110 0 110 -96q0 -56 -32 -103t-85 -75.5t-113 -32.5q-2 -30 -2 -40q0 -49 17 -66.5t55 -17.5q54 0 92.5 25t84.5 76h34q-111 -185 -275 -185zM215.5 276q33.5 24 54 61t20.5 78t-25 41q-36 0 -70.5 -63
t-49.5 -143q37 2 70.5 26zM136.5 590.5q-17.5 17.5 -17.5 43.5q0 25 17.5 43t43.5 18q25 0 43 -18t18 -43q0 -26 -18 -43.5t-43 -17.5q-26 0 -43.5 17.5zM316.5 590.5q-17.5 17.5 -17.5 43.5q0 25 17.5 43t43.5 18q25 0 43 -18t18 -43q0 -26 -18 -43.5t-43 -17.5
q-26 0 -43.5 17.5z" />
    <glyph glyph-name="igrave" unicode="&#xec;" horiz-adv-x="267" vert-adv-y="950" 
d="M214 32.5q-58 -38.5 -115 -38.5q-48 0 -77.5 30t-29.5 90q0 25 8 65l68 321h144l-72 -340q-4 -15 -4 -32q0 -20 9.5 -28.5t31.5 -8.5q29 0 54 24.5t36 63.5h42q-37 -108 -95 -146.5zM66 750h105l29 -189h-75z" />
    <glyph glyph-name="iacute" unicode="&#xed;" horiz-adv-x="267" vert-adv-y="950" 
d="M214 32.5q-58 -38.5 -115 -38.5q-48 0 -77.5 30t-29.5 90q0 25 8 65l68 321h144l-72 -340q-4 -15 -4 -32q0 -20 9.5 -28.5t31.5 -8.5q29 0 54 24.5t36 63.5h42q-37 -108 -95 -146.5zM212 750h105l-121 -189h-75z" />
    <glyph glyph-name="icircumflex" unicode="&#xee;" horiz-adv-x="267" vert-adv-y="950" 
d="M214 32.5q-58 -38.5 -115 -38.5q-48 0 -77.5 30t-29.5 90q0 25 8 65l68 321h144l-72 -340q-4 -15 -4 -32q0 -20 9.5 -28.5t31.5 -8.5q29 0 54 24.5t36 63.5h42q-37 -108 -95 -146.5zM207 641l-157 -80h-44l212 189h21l60 -189h-32z" />
    </font>
</defs>
</svg>
